<svg width="1366" height="779" viewBox="0 0 1366 779" fill="none" xmlns="http://www.w3.org/2000/svg">
<g clip-path="url(#clip0_16_2)">
<mask id="mask0_16_2" style="mask-type:luminance" maskUnits="userSpaceOnUse" x="0" y="0" width="1366" height="779">
<path d="M1366 0H0V779H1366V0Z" fill="white"/>
</mask>
<g mask="url(#mask0_16_2)">
<path d="M1366 0H0V779H1366V0Z" fill="#EBEFF2"/>
<mask id="mask1_16_2" style="mask-type:luminance" maskUnits="userSpaceOnUse" x="1" y="0" width="1366" height="779">
<path d="M1367 0H1V778.709H1367V0Z" fill="white"/>
</mask>
<g mask="url(#mask1_16_2)">
<path d="M1367.17 0H0.828003V808.44H1367.17V0Z" fill="url(#paint0_radial_16_2)"/>
<path style="mix-blend-mode:screen" opacity="0.2" fill-rule="evenodd" clip-rule="evenodd" d="M1152.65 591.924C1086.78 524.294 1014.49 346.934 883.092 271.77C775.697 210.349 582.517 274.844 592.148 373.985C599.593 450.638 706.291 382.494 719.5 405.538C731.562 426.6 673.971 473.938 602.475 467.177C530.979 460.416 317.295 316.016 188.399 354.451C59.503 392.886 -0.35498 548.332 -0.35498 548.332V779.002H187.361C187.361 779.002 317.786 582.919 654.792 612.232C991.785 641.523 904.375 779.001 904.375 779.001H1366V666.334C1366 666.334 1218.51 659.571 1152.65 591.924ZM268.475 400.563C268.134 406.572 249.488 410.816 244.83 406.295C240.172 401.795 246.073 392.81 252.589 392.016C260.875 391.022 268.815 394.552 268.475 400.563ZM168.73 376.25C180.641 355.942 257.766 346.779 257.766 363.457C257.766 373.235 246.374 386.757 225.679 394.277C204.984 401.797 156.831 396.535 168.728 376.247L168.73 376.25ZM304.355 657.563C276.055 683.245 126.765 747.683 131.806 708.673C133.882 692.629 184.26 650.544 228.437 639.756C272.614 628.968 332.644 631.882 304.355 657.563ZM361.175 462.656C308.092 443.856 265.596 389.594 272.959 377.694C289.515 350.941 426.17 395.029 455.853 434.094C485.531 473.187 420.51 483.717 361.175 462.656ZM701.209 286.803C741.246 225.68 929.673 297.829 911.723 323.89C893.775 349.929 685.268 311.157 701.209 286.803ZM860.309 634.003C867.03 605.563 945.192 609.967 949.85 625.95C953.962 640.05 949.686 660.578 925.522 665.575C901.369 670.598 857.807 644.577 860.307 634.007L860.309 634.003ZM1107.87 751.252C1050.03 766.285 913.132 723.704 931.751 691.119C966.951 629.5 1079.78 608.458 1117.32 641.519C1154.86 674.603 1165.72 736.224 1107.87 751.257L1107.87 751.252Z" fill="url(#paint1_linear_16_2)"/>
<path style="mix-blend-mode:screen" opacity="0.2" fill-rule="evenodd" clip-rule="evenodd" d="M213.355 207.078C279.223 274.702 351.512 452.066 482.907 527.23C590.302 588.651 783.482 524.156 773.851 425.015C766.406 348.363 659.708 416.506 646.499 393.462C634.438 372.402 692.028 325.06 763.525 331.823C835.022 338.586 1048.7 482.986 1177.6 444.551C1306.5 406.116 1366.35 250.669 1366.35 250.669V20.002H1178.64C1178.64 20.002 1048.21 216.081 711.207 186.77C374.215 157.477 461.625 20.002 461.625 20.002H-0.000976562V132.67C-0.000976562 132.67 147.486 139.43 213.355 207.078ZM1097.53 398.44C1097.87 392.431 1116.51 388.187 1121.17 392.708C1125.83 397.208 1119.93 406.195 1113.41 406.988C1105.12 407.979 1097.18 404.449 1097.53 398.44ZM1197.27 422.755C1185.36 443.063 1108.23 452.225 1108.23 435.546C1108.23 425.77 1119.63 412.246 1140.32 404.726C1161.02 397.206 1209.17 402.465 1197.27 422.755ZM1061.65 141.436C1089.95 115.752 1239.23 51.3139 1234.19 90.3239C1232.12 106.368 1181.74 148.453 1137.56 159.241C1093.39 170.029 1033.36 167.119 1061.65 141.436ZM1004.83 336.345C1057.91 355.145 1100.41 409.407 1093.04 421.306C1076.49 448.059 939.834 403.973 910.151 364.906C880.468 325.814 945.49 315.283 1004.83 336.345ZM664.79 512.202C621.54 603.78 436.326 501.176 454.276 475.116C472.225 449.072 673.61 493.52 664.79 512.202ZM505.69 165.002C498.969 193.442 420.807 189.039 416.149 173.055C412.037 158.955 416.313 138.428 440.477 133.43C464.63 128.402 508.192 154.423 505.692 164.993L505.69 165.002ZM258.132 47.7449C315.968 32.7119 452.869 75.2919 434.25 107.876C399.05 169.495 286.217 190.537 248.679 157.476C211.142 124.397 200.279 62.7779 258.132 47.7449Z" fill="url(#paint2_linear_16_2)"/>
<g opacity="0.15">
<path d="M1654.4 -0.000976562H-110.735V792.746H1654.4V-0.000976562Z" fill="#F3F3F3"/>
<g style="mix-blend-mode:multiply" opacity="0.05">
<path d="M42.613 620.118H47.965V-0.000976562H42.613V620.118ZM84.513 620.118H89.865V-0.000976562H84.512L84.513 620.118ZM21.664 620.118H27.016V-0.000976562H21.665L21.664 620.118ZM0.71402 620.118H6.06502V-0.000976562H0.713013L0.71402 620.118ZM105.463 620.118H110.816V-0.000976562H105.465L105.463 620.118ZM189.263 620.118H194.615V-0.000976562H189.265L189.263 620.118ZM168.313 620.118H173.665V-0.000976562H168.312L168.313 620.118ZM126.413 620.118H131.765V-0.000976562H126.412L126.413 620.118ZM-20.236 620.118H-14.883V-0.000976562H-20.235L-20.236 620.118ZM147.364 620.118H152.717V-0.000976562H147.365L147.364 620.118ZM63.564 620.118H68.917V-0.000976562H63.565L63.564 620.118ZM-166.884 620.118H-161.535V-0.000976562H-166.885L-166.884 620.118ZM-187.834 620.118H-182.481V-0.000976562H-187.835L-187.834 620.118ZM-229.734 620.118H-224.382V-0.000976562H-229.735L-229.734 620.118ZM-208.784 620.118H-203.435V-0.000976562H-208.785L-208.784 620.118ZM-145.934 620.118H-140.582V-0.000976562H-145.935L-145.934 620.118ZM-104.034 620.118H-98.681V-0.000976562H-104.035L-104.034 620.118ZM-83.084 620.118H-77.735V-0.000976562H-83.088L-83.084 620.118ZM-124.984 620.118H-119.635V-0.000976562H-124.988L-124.984 620.118ZM-62.134 620.118H-56.781V-0.000976562H-62.135L-62.134 620.118ZM-41.184 620.118H-35.835V-0.000976562H-41.187L-41.184 620.118ZM503.516 620.118H508.865V-0.000976562H503.513L503.516 620.118ZM482.566 620.118H487.919V-0.000976562H482.566V620.118ZM440.666 620.118H446.019V-0.000976562H440.666V620.118ZM461.616 620.118H466.965V-0.000976562H461.612L461.616 620.118ZM587.316 620.118H592.665V-0.000976562H587.312L587.316 620.118ZM419.716 620.118H425.065V-0.000976562H419.712L419.716 620.118ZM608.264 620.118H613.617V-0.000976562H608.264V620.118ZM524.464 620.118H529.816V-0.000976562H524.464V620.118ZM566.364 620.118H571.717V-0.000976562H566.364V620.118ZM545.414 620.118H550.765V-0.000976562H545.412L545.414 620.118ZM377.814 620.118H383.165V-0.000976562H377.813L377.814 620.118ZM252.114 620.118H257.465V-0.000976562H252.112L252.114 620.118ZM294.014 620.118H299.365V-0.000976562H294.012L294.014 620.118ZM273.064 620.118H278.417V-0.000976562H273.065L273.064 620.118ZM231.164 620.118H236.517V-0.000976562H231.165L231.164 620.118ZM314.964 620.118H320.316V-0.000976562H314.965L314.964 620.118ZM629.211 620.118H634.565V-0.000976562H629.212L629.211 620.118ZM356.864 620.118H362.216V-0.000976562H356.865L356.864 620.118ZM398.764 620.118H404.117V-0.000976562H398.764V620.118ZM335.915 620.118H341.265V-0.000976562H335.913L335.915 620.118ZM210.215 620.118H215.565V-0.000976562H210.212L210.215 620.118ZM985.359 620.118H990.712V-0.000976562H985.359V620.118ZM922.509 620.118H927.862V-0.000976562H922.509V620.118ZM901.56 620.118H906.912V-0.000976562H901.56V620.118ZM859.66 620.118H865.013V-0.000976562H859.66V620.118ZM943.46 620.118H948.813V-0.000976562H943.46V620.118ZM880.611 620.118H885.963V-0.000976562H880.611V620.118ZM1069.16 620.118H1074.51V-0.000976562H1069.16V620.118ZM1048.21 620.118H1053.56V-0.000976562H1048.21V620.118ZM1027.26 620.118H1032.61V-0.000976562H1027.26V620.118ZM1006.31 620.118H1011.66V-0.000976562H1006.31V620.118ZM964.41 620.118H969.763V-0.000976562H964.41V620.118ZM733.962 620.118H739.314V-0.000976562H733.962V620.118ZM713.011 620.118H718.364V-0.000976562H713.011V620.118ZM692.062 620.118H697.415V-0.000976562H692.062V620.118ZM671.112 620.118H676.465V-0.000976562H671.113L671.112 620.118ZM817.761 620.118H823.114V-0.000976562H817.761V620.118ZM838.711 620.118H844.063V-0.000976562H838.711V620.118ZM796.811 620.118H802.164V-0.000976562H796.811V620.118ZM775.861 620.118H781.214V-0.000976562H775.861V620.118ZM754.911 620.118H760.264V-0.000976562H754.911V620.118ZM650.162 620.118H655.515V-0.000976562H650.162V620.118ZM1383.41 620.118H1388.76V-0.000976562H1383.41V620.118ZM1404.36 620.118H1409.71V-0.000976562H1404.36V620.118ZM1341.51 620.118H1346.86V-0.000976562H1341.51V620.118ZM1320.56 620.118H1325.91V-0.000976562H1320.56V620.118ZM1362.46 620.118H1367.81V-0.000976562H1362.46V620.118ZM1425.31 620.118H1430.66V-0.000976562H1425.31V620.118ZM1509.1 620.118H1514.46V-0.000976562H1509.1V620.118ZM1446.26 620.118H1451.61V-0.000976562H1446.26V620.118ZM1530.05 -0.000976562V620.118H1535.4V-0.000976562H1530.05ZM1488.15 620.118H1493.5V-0.000976562H1488.15V620.118ZM1467.2 620.118H1472.55V-0.000976562H1467.2V620.118ZM1173.9 620.118H1179.25V-0.000976562H1173.9V620.118ZM1152.95 620.118H1158.3V-0.000976562H1152.95V620.118ZM1111.05 620.118H1116.4V-0.000976562H1111.05V620.118ZM1132 620.118H1137.35V-0.000976562H1132V620.118ZM1299.6 620.118H1304.95V-0.000976562H1299.6V620.118ZM1194.85 620.118H1200.2V-0.000976562H1194.85V620.118ZM1215.8 620.118H1221.15V-0.000976562H1215.8V620.118ZM1257.7 620.118H1263.06V-0.000976562H1257.7V620.118ZM1278.65 620.118H1284.01V-0.000976562H1278.65V620.118ZM1236.75 620.118H1242.1V-0.000976562H1236.75V620.118ZM1090.1 620.118H1095.46V-0.000976562H1090.1V620.118Z" fill="#B1C7E6"/>
</g>
<path style="mix-blend-mode:screen" opacity="0.5" d="M84.623 792.746H133.217V694.764H84.623V792.746ZM1172.1 792.746H1220.69V694.764H1172.1V792.746ZM628.538 792.746H677.132V694.764H628.538V792.746Z" fill="url(#paint3_linear_16_2)"/>
</g>
</g>
</g>
</g>
<defs>
<radialGradient id="paint0_radial_16_2" cx="0" cy="0" r="1" gradientUnits="userSpaceOnUse" gradientTransform="translate(414.37 690.698) scale(863.07 765.994)">
<stop stop-color="#36a74a"/>
<stop offset="0.506" stop-color="#36a74a"/>
<stop offset="1" stop-color="#36a74a"/>
</radialGradient>
<linearGradient id="paint1_linear_16_2" x1="-0.35498" y1="513.381" x2="1366" y2="513.381" gradientUnits="userSpaceOnUse">
<stop stop-color="#52297A"/>
<stop offset="1"/>
</linearGradient>
<linearGradient id="paint2_linear_16_2" x1="-0.000976562" y1="410.462" x2="1366.35" y2="410.462" gradientUnits="userSpaceOnUse">
<stop stop-color="#52297A"/>
<stop offset="1"/>
</linearGradient>
<linearGradient id="paint3_linear_16_2" x1="652.656" y1="694.568" x2="652.656" y2="791.472" gradientUnits="userSpaceOnUse">
<stop stop-color="#36a74a"/>
<stop offset="1"/>
</linearGradient>
<clipPath id="clip0_16_2">
<rect width="1366" height="779" fill="white"/>
</clipPath>
</defs>
</svg>
