<svg xmlns="http://www.w3.org/2000/svg" width="41.017" height="40.724" viewBox="0 0 41.017 40.724">
  <g id="ascending-arrow-symbol-with-three-circles" transform="translate(41.017 -1.845) rotate(90)">
    <path id="Path_7287"  d="M39.293,30.523A10.251,10.251,0,0,0,29.073,20.9H24.527V11.1h4.19l-3.2-5.551L22.307,0,19.1,5.551,15.9,11.1h4.19V20.9H15.341A10.251,10.251,0,0,0,5.122,30.523a5.478,5.478,0,1,0,4.451.022,5.806,5.806,0,0,1,5.768-5.21h4.747v5.2a5.478,5.478,0,1,0,4.44,0v-5.2h4.546a5.806,5.806,0,0,1,5.768,5.21,5.477,5.477,0,1,0,4.451-.022Z" fill="#6E3EC4"/>
  </g>
</svg>
