<svg xmlns="http://www.w3.org/2000/svg" width="30.053" height="23.964" viewBox="0 0 30.053 23.964"><path d="M24.04,9.077l-.385.672a.58.58,0,0,1-.709.254,5.189,5.189,0,0,1-1.507-.873.583.583,0,0,1-.131-.737l.385-.672a4.054,4.054,0,0,1-.747-1.287h-.775a.58.58,0,0,1-.573-.484,5.291,5.291,0,0,1,0-1.742.584.584,0,0,1,.573-.488h.775a4.054,4.054,0,0,1,.747-1.287l-.385-.672a.578.578,0,0,1,.131-.737A5.252,5.252,0,0,1,22.946.149.58.58,0,0,1,23.655.4l.385.672a4.173,4.173,0,0,1,1.489,0L25.914.4a.58.58,0,0,1,.709-.254,5.189,5.189,0,0,1,1.507.873.583.583,0,0,1,.131.737l-.385.672a4.054,4.054,0,0,1,.747,1.287H29.4a.58.58,0,0,1,.573.484,5.291,5.291,0,0,1,0,1.742.584.584,0,0,1-.573.488h-.775a4.054,4.054,0,0,1-.747,1.287l.385.672a.578.578,0,0,1-.131.737A5.252,5.252,0,0,1,26.623,10a.58.58,0,0,1-.709-.254l-.385-.672A4.173,4.173,0,0,1,24.04,9.077Zm-.493-2.761a1.754,1.754,0,0,0,2.48-2.48A1.754,1.754,0,0,0,23.547,6.316Zm-5.415,7.227,1.583.789a1.129,1.129,0,0,1,.493,1.367,11.087,11.087,0,0,1-2,3.09,1.123,1.123,0,0,1-1.423.249l-1.367-.789a8.067,8.067,0,0,1-2.578,1.489v1.578a1.124,1.124,0,0,1-.925,1.108,10.561,10.561,0,0,1-3.564,0,1.128,1.128,0,0,1-.939-1.108V19.737a8.155,8.155,0,0,1-2.578-1.489l-1.367.784a1.124,1.124,0,0,1-1.423-.249A11.07,11.07,0,0,1,.061,15.7a1.133,1.133,0,0,1,.493-1.367l1.564-.789a8.136,8.136,0,0,1,0-2.977L.555,9.772A1.12,1.12,0,0,1,.061,8.41,11.026,11.026,0,0,1,2.043,5.32a1.123,1.123,0,0,1,1.423-.249l1.367.789A8.067,8.067,0,0,1,7.411,4.371V2.789a1.118,1.118,0,0,1,.92-1.1,10.71,10.71,0,0,1,3.569,0,1.128,1.128,0,0,1,.939,1.108V4.367a8.156,8.156,0,0,1,2.578,1.489l1.367-.789a1.124,1.124,0,0,1,1.423.249,11.011,11.011,0,0,1,1.977,3.09,1.122,1.122,0,0,1-.47,1.367l-1.583.789A8.161,8.161,0,0,1,18.133,13.543Zm-5.523.991c2.78-3.616-1.348-7.744-4.964-4.964C4.866,13.186,8.994,17.314,12.61,14.534Zm11.431,8.58-.385.672a.58.58,0,0,1-.709.254,5.189,5.189,0,0,1-1.507-.873.583.583,0,0,1-.131-.737l.385-.672a4.054,4.054,0,0,1-.747-1.287h-.775a.58.58,0,0,1-.573-.484,5.291,5.291,0,0,1,0-1.742.584.584,0,0,1,.573-.488h.775a4.054,4.054,0,0,1,.747-1.287l-.385-.672a.578.578,0,0,1,.131-.737,5.252,5.252,0,0,1,1.507-.873.58.58,0,0,1,.709.254l.385.672a4.173,4.173,0,0,1,1.489,0l.385-.672a.58.58,0,0,1,.709-.254,5.189,5.189,0,0,1,1.507.873.583.583,0,0,1,.131.737l-.385.672a4.054,4.054,0,0,1,.747,1.287H29.4a.58.58,0,0,1,.573.484,5.291,5.291,0,0,1,0,1.742.584.584,0,0,1-.573.488h-.775a4.054,4.054,0,0,1-.747,1.287l.385.672a.578.578,0,0,1-.131.737,5.252,5.252,0,0,1-1.507.873.58.58,0,0,1-.709-.254l-.385-.672A4.173,4.173,0,0,1,24.04,23.114Zm-.493-2.766a1.754,1.754,0,0,0,2.48-2.48A1.754,1.754,0,0,0,23.547,20.348Z" transform="translate(0.009 -0.112)" fill="#6E3EC4"/></svg>
