<svg xmlns="http://www.w3.org/2000/svg" width="48.256" height="38.478" viewBox="0 0 48.256 38.478">
  <path id="cogs-solid_1_" data-name="cogs-solid (1)" d="M38.607,14.506l-.618,1.078a.932.932,0,0,1-1.139.407,8.332,8.332,0,0,1-2.421-1.4.936.936,0,0,1-.211-1.184l.618-1.078a6.51,6.51,0,0,1-1.2-2.066H32.393a.931.931,0,0,1-.92-.777,8.5,8.5,0,0,1,0-2.8.938.938,0,0,1,.92-.784h1.244a6.51,6.51,0,0,1,1.2-2.066l-.618-1.078a.927.927,0,0,1,.211-1.184A8.432,8.432,0,0,1,36.85.172a.932.932,0,0,1,1.139.407l.618,1.078a6.7,6.7,0,0,1,2.39,0L41.615.579A.932.932,0,0,1,42.754.172a8.332,8.332,0,0,1,2.421,1.4.936.936,0,0,1,.211,1.184l-.618,1.078a6.51,6.51,0,0,1,1.2,2.066H47.21a.931.931,0,0,1,.92.777,8.5,8.5,0,0,1,0,2.8.938.938,0,0,1-.92.784H45.966a6.509,6.509,0,0,1-1.2,2.066l.618,1.078a.927.927,0,0,1-.211,1.184,8.432,8.432,0,0,1-2.421,1.4.932.932,0,0,1-1.139-.407L41,14.506A6.7,6.7,0,0,1,38.607,14.506Zm-.792-4.434A2.817,2.817,0,0,0,41.8,6.091,2.817,2.817,0,0,0,37.815,10.073Zm-8.694,11.6,2.541,1.267a1.813,1.813,0,0,1,.792,2.194A17.8,17.8,0,0,1,29.241,30.1a1.8,1.8,0,0,1-2.285.4l-2.194-1.267a12.953,12.953,0,0,1-4.14,2.39v2.534a1.8,1.8,0,0,1-1.485,1.78,16.958,16.958,0,0,1-5.723,0,1.812,1.812,0,0,1-1.508-1.78V31.624a13.1,13.1,0,0,1-4.14-2.39L5.571,30.492a1.8,1.8,0,0,1-2.285-.4A17.775,17.775,0,0,1,.1,25.139,1.82,1.82,0,0,1,.9,22.944l2.511-1.267a13.063,13.063,0,0,1,0-4.781L.9,15.622A1.8,1.8,0,0,1,.1,13.436,17.7,17.7,0,0,1,3.287,8.474a1.8,1.8,0,0,1,2.285-.4L7.766,9.341a12.953,12.953,0,0,1,4.14-2.39V4.41a1.8,1.8,0,0,1,1.478-1.772,17.2,17.2,0,0,1,5.731-.008,1.812,1.812,0,0,1,1.508,1.78V6.943a13.1,13.1,0,0,1,4.14,2.39l2.194-1.267a1.8,1.8,0,0,1,2.285.4,17.68,17.68,0,0,1,3.175,4.962,1.8,1.8,0,0,1-.754,2.194l-2.541,1.267A13.1,13.1,0,0,1,29.121,21.678Zm-8.868,1.591c4.464-5.806-2.164-12.434-7.97-7.97C7.818,21.1,14.447,27.733,20.253,23.269ZM38.607,37.045l-.618,1.078a.932.932,0,0,1-1.139.407,8.332,8.332,0,0,1-2.421-1.4.936.936,0,0,1-.211-1.184l.618-1.078a6.51,6.51,0,0,1-1.2-2.066H32.393a.931.931,0,0,1-.92-.777,8.5,8.5,0,0,1,0-2.8.938.938,0,0,1,.92-.784h1.244a6.51,6.51,0,0,1,1.2-2.066L34.218,25.3a.927.927,0,0,1,.211-1.184,8.432,8.432,0,0,1,2.421-1.4.932.932,0,0,1,1.139.407l.618,1.078a6.7,6.7,0,0,1,2.39,0l.618-1.078a.932.932,0,0,1,1.139-.407,8.332,8.332,0,0,1,2.421,1.4.937.937,0,0,1,.211,1.184l-.618,1.078a6.51,6.51,0,0,1,1.2,2.066H47.21a.931.931,0,0,1,.92.777,8.5,8.5,0,0,1,0,2.8.938.938,0,0,1-.92.784H45.966a6.51,6.51,0,0,1-1.2,2.066l.618,1.078a.927.927,0,0,1-.211,1.184,8.432,8.432,0,0,1-2.421,1.4.932.932,0,0,1-1.139-.407L41,37.045A6.7,6.7,0,0,1,38.607,37.045ZM37.815,32.6A2.817,2.817,0,0,0,41.8,28.622,2.817,2.817,0,0,0,37.815,32.6Z" transform="translate(0.009 -0.112)" fill="#5cb962"/>
</svg>
