<svg id="contest" xmlns="http://www.w3.org/2000/svg" width="76.645" height="76.598" viewBox="0 0 76.645 76.598">
  <g id="Groupe_3261" data-name="Groupe 3261" transform="translate(53.9 8.942)">
    <g id="Groupe_3260" data-name="Groupe 3260" transform="translate(0 0)">
      <path id="Tracé_4119" data-name="Tracé 4119" d="M181.776,41.54l-8.028.027v3h8.028a.377.377,0,0,1,.378.378v4.383a8.245,8.245,0,0,1-8.235,8.238h-.174a12.422,12.422,0,0,1-.451,3.022h.626a11.271,11.271,0,0,0,11.257-11.26V44.94A3.4,3.4,0,0,0,181.776,41.54Z" transform="translate(-173.294 -41.54)" fill="#ffcd29"/>
    </g>
  </g>
  <g id="Groupe_3263" data-name="Groupe 3263" transform="translate(53.391 8.433)">
    <g id="Groupe_3262" data-name="Groupe 3262" transform="translate(0 0)">
      <path id="Tracé_4120" data-name="Tracé 4120" d="M180.784,40.04h0l-8.028.027a.509.509,0,0,0-.507.509v2.995a.509.509,0,0,0,.509.509h7.9v4.252a7.736,7.736,0,0,1-7.726,7.729h-.174a.509.509,0,0,0-.509.5,11.922,11.922,0,0,1-.433,2.9.509.509,0,0,0,.49.646h.626a11.78,11.78,0,0,0,11.766-11.768V43.949A3.914,3.914,0,0,0,180.784,40.04Zm2.892,8.292a10.762,10.762,0,0,1-10.722,10.751,12.958,12.958,0,0,0,.286-2.011,8.755,8.755,0,0,0,8.431-8.74V43.949a.888.888,0,0,0-.887-.887h-7.519V41.083l7.521-.025a2.9,2.9,0,0,1,2.89,2.891v4.383Z" transform="translate(-171.794 -40.04)" fill="#3a312a"/>
    </g>
  </g>
  <g id="Groupe_3265" data-name="Groupe 3265" transform="translate(10.863 8.942)">
    <g id="Groupe_3264" data-name="Groupe 3264" transform="translate(0 0)">
      <path id="Tracé_4121" data-name="Tracé 4121" d="M57.822,57.561h-.174a8.245,8.245,0,0,1-8.235-8.238V44.94a.377.377,0,0,1,.378-.378H57.82V41.567l-8.028-.027a3.4,3.4,0,0,0-3.4,3.4v4.383a11.271,11.271,0,0,0,11.257,11.26h.626A12.439,12.439,0,0,1,57.822,57.561Z" transform="translate(-46.391 -41.54)" fill="#ffcd29"/>
    </g>
  </g>
  <g id="Groupe_3267" data-name="Groupe 3267" transform="translate(10.354 8.433)">
    <g id="Groupe_3266" data-name="Groupe 3266">
      <path id="Tracé_4122" data-name="Tracé 4122" d="M57.772,59.454a11.914,11.914,0,0,1-.433-2.9.509.509,0,0,0-.509-.5h-.174a7.736,7.736,0,0,1-7.726-7.729V44.079h7.9a.509.509,0,0,0,.509-.509V40.576a.509.509,0,0,0-.507-.509L48.8,40.04a3.914,3.914,0,0,0-3.909,3.909v4.383A11.78,11.78,0,0,0,56.657,60.1h.626a.509.509,0,0,0,.49-.646ZM45.909,48.332V43.949a2.9,2.9,0,0,1,2.89-2.891l7.521.025v1.979H48.8a.888.888,0,0,0-.887.887v4.383a8.755,8.755,0,0,0,8.431,8.74,12.974,12.974,0,0,0,.286,2.011A10.762,10.762,0,0,1,45.909,48.332Z" transform="translate(-44.891 -40.04)" fill="#3a312a"/>
    </g>
  </g>
  <g id="Groupe_3269" data-name="Groupe 3269" transform="translate(35.066 36.951)">
    <g id="Groupe_3268" data-name="Groupe 3268">
      <rect id="Rectangle_892" data-name="Rectangle 892" width="6.513" height="11.913" fill="#ffcd29"/>
    </g>
  </g>
  <g id="Groupe_3271" data-name="Groupe 3271" transform="translate(34.558 36.443)">
    <g id="Groupe_3270" data-name="Groupe 3270">
      <path id="Tracé_4123" data-name="Tracé 4123" d="M123.281,122.63h-6.512a.509.509,0,0,0-.509.509v11.913a.509.509,0,0,0,.509.509h6.513a.509.509,0,0,0,.509-.509V123.139A.509.509,0,0,0,123.281,122.63Zm-.509,11.913h-5.5v-10.9h5.5v10.9Z" transform="translate(-116.26 -122.63)" fill="#3a312a"/>
    </g>
  </g>
  <g id="Groupe_3273" data-name="Groupe 3273" transform="translate(19.763 0.509)">
    <g id="Groupe_3272" data-name="Groupe 3272" transform="translate(0 0)">
      <path id="Tracé_4124" data-name="Tracé 4124" d="M106.777,16.673H75.613a2.978,2.978,0,0,0-2.978,2.977v2.506a2.977,2.977,0,0,0,2.978,2.978h31.165a2.978,2.978,0,0,0,2.978-2.978V19.65A2.978,2.978,0,0,0,106.777,16.673Z" transform="translate(-72.635 -16.673)" fill="#ffcd29"/>
    </g>
  </g>
  <g id="Groupe_3275" data-name="Groupe 3275" transform="translate(19.254)">
    <g id="Groupe_3274" data-name="Groupe 3274">
      <path id="Tracé_4125" data-name="Tracé 4125" d="M105.786,15.173H88.24a.509.509,0,0,0,0,1.017h17.546a2.472,2.472,0,0,1,2.469,2.469v2.506a2.472,2.472,0,0,1-2.469,2.469H74.621a2.472,2.472,0,0,1-2.469-2.469V18.659a2.472,2.472,0,0,1,2.469-2.469h8.5a.509.509,0,0,0,0-1.017h-8.5a3.49,3.49,0,0,0-3.486,3.486v2.506a3.49,3.49,0,0,0,3.486,3.486h31.164a3.49,3.49,0,0,0,3.486-3.486V18.659A3.49,3.49,0,0,0,105.786,15.173Z" transform="translate(-71.135 -15.173)" fill="#3a312a"/>
    </g>
  </g>
  <g id="Groupe_3277" data-name="Groupe 3277" transform="translate(22.291 8.97)">
    <g id="Groupe_3276" data-name="Groupe 3276" transform="translate(0 0)">
      <path id="Tracé_4126" data-name="Tracé 4126" d="M80.089,41.622V57.309a12.3,12.3,0,0,0,12.3,12.3h7.473a12.3,12.3,0,0,0,12.3-12.3V41.622Z" transform="translate(-80.089 -41.622)" fill="#ffcd29"/>
    </g>
  </g>
  <g id="Groupe_3279" data-name="Groupe 3279" transform="translate(21.782 8.461)">
    <g id="Groupe_3278" data-name="Groupe 3278" transform="translate(0 0)">
      <path id="Tracé_4127" data-name="Tracé 4127" d="M111.161,40.121H79.1a.509.509,0,0,0-.509.509V56.317a12.819,12.819,0,0,0,12.8,12.8h7.473a12.819,12.819,0,0,0,12.8-12.8V40.63A.509.509,0,0,0,111.161,40.121Zm-.509,16.2A11.8,11.8,0,0,1,98.866,68.1H91.393A11.8,11.8,0,0,1,79.606,56.317V41.138h31.046Z" transform="translate(-78.589 -40.121)" fill="#3a312a"/>
    </g>
  </g>
  <g id="Groupe_3281" data-name="Groupe 3281" transform="translate(29.076 48.864)">
    <g id="Groupe_3280" data-name="Groupe 3280">
      <path id="Tracé_4128" data-name="Tracé 4128" d="M117.219,160.631a4.677,4.677,0,0,0-3.319-1.374h-9.113a4.692,4.692,0,0,0-4.69,4.557H118.59A4.689,4.689,0,0,0,117.219,160.631Z" transform="translate(-100.097 -159.257)" fill="#ffcd29"/>
    </g>
  </g>
  <g id="Groupe_3283" data-name="Groupe 3283" transform="translate(28.567 48.356)">
    <g id="Groupe_3282" data-name="Groupe 3282">
      <path id="Tracé_4129" data-name="Tracé 4129" d="M116.586,159.28a5.166,5.166,0,0,0-3.679-1.523h-9.113a5.172,5.172,0,0,0-5.2,5.051.509.509,0,0,0,.508.523H117.6a.509.509,0,0,0,.509-.523A5.19,5.19,0,0,0,116.586,159.28Zm-16.927,3.034a4.158,4.158,0,0,1,4.135-3.539h9.113a4.18,4.18,0,0,1,4.134,3.539H99.659Z" transform="translate(-98.595 -157.757)" fill="#3a312a"/>
    </g>
  </g>
  <g id="Groupe_3285" data-name="Groupe 3285" transform="translate(24.04 53.421)">
    <g id="Groupe_3284" data-name="Groupe 3284">
      <rect id="Rectangle_893" data-name="Rectangle 893" width="28.565" height="22.669" fill="#ffcd29"/>
    </g>
  </g>
  <g id="Groupe_3287" data-name="Groupe 3287" transform="translate(23.532 52.912)">
    <g id="Groupe_3286" data-name="Groupe 3286">
      <path id="Tracé_4130" data-name="Tracé 4130" d="M112.821,171.192H84.257a.509.509,0,0,0-.509.509V194.37a.509.509,0,0,0,.509.509h28.565a.509.509,0,0,0,.509-.509V171.7A.509.509,0,0,0,112.821,171.192Zm-.509,22.669H84.765V172.209h27.547Z" transform="translate(-83.748 -171.192)" fill="#3a312a"/>
    </g>
  </g>
  <g id="Groupe_3289" data-name="Groupe 3289" transform="translate(52.605 60.027)">
    <g id="Groupe_3288" data-name="Groupe 3288">
      <rect id="Rectangle_894" data-name="Rectangle 894" width="23.532" height="16.062" fill="#dedede"/>
    </g>
  </g>
  <g id="Groupe_3291" data-name="Groupe 3291" transform="translate(52.096 59.519)">
    <g id="Groupe_3290" data-name="Groupe 3290">
      <path id="Tracé_4131" data-name="Tracé 4131" d="M192.014,190.673h-9.839a.509.509,0,0,0,0,1.017h9.331v15.045H168.991V191.69H177.1a.509.509,0,0,0,0-1.017h-8.614a.509.509,0,0,0-.509.509v16.062a.509.509,0,0,0,.509.509h23.532a.509.509,0,0,0,.509-.509V191.182A.509.509,0,0,0,192.014,190.673Z" transform="translate(-167.974 -190.673)" fill="#3a312a"/>
    </g>
  </g>
  <g id="Groupe_3293" data-name="Groupe 3293" transform="translate(0.509 66.471)">
    <g id="Groupe_3292" data-name="Groupe 3292">
      <rect id="Rectangle_895" data-name="Rectangle 895" width="23.532" height="9.619" fill="#d2985e"/>
    </g>
  </g>
  <g id="Groupe_3295" data-name="Groupe 3295" transform="translate(0 65.962)">
    <g id="Groupe_3294" data-name="Groupe 3294" transform="translate(0)">
      <path id="Tracé_4132" data-name="Tracé 4132" d="M38.4,209.673H14.87a.509.509,0,0,0-.509.509V219.8a.509.509,0,0,0,.509.509H38.4a.509.509,0,0,0,.509-.509v-9.619A.509.509,0,0,0,38.4,209.673Zm-.509,9.619H15.378v-8.6H37.893Z" transform="translate(-14.361 -209.673)" fill="#3a312a"/>
    </g>
  </g>
  <g id="Groupe_3297" data-name="Groupe 3297" transform="translate(28.512 12.858)">
    <g id="Groupe_3296" data-name="Groupe 3296" transform="translate(0 0)">
      <path id="Tracé_4133" data-name="Tracé 4133" d="M108.244,53.088a9.81,9.81,0,1,0,9.81,9.81A9.81,9.81,0,0,0,108.244,53.088Z" transform="translate(-98.434 -53.088)" fill="#fce8cb"/>
    </g>
  </g>
  <g id="Groupe_3299" data-name="Groupe 3299" transform="translate(28.004 12.35)">
    <g id="Groupe_3298" data-name="Groupe 3298">
      <path id="Tracé_4134" data-name="Tracé 4134" d="M107.253,51.589a10.319,10.319,0,1,0,10.319,10.319A10.331,10.331,0,0,0,107.253,51.589Zm0,19.62a9.3,9.3,0,1,1,9.3-9.3A9.312,9.312,0,0,1,107.253,71.209Z" transform="translate(-96.934 -51.589)" fill="#3a312a"/>
    </g>
  </g>
  <g id="Groupe_3301" data-name="Groupe 3301" transform="translate(31.276 15.453)">
    <g id="Groupe_3300" data-name="Groupe 3300">
      <path id="Tracé_4135" data-name="Tracé 4135" d="M120.419,66.7a.851.851,0,0,0-.471-1.451l-3.4-.493a.852.852,0,0,1-.641-.465l-1.518-3.077a.851.851,0,0,0-1.526,0L111.35,64.29a.851.851,0,0,1-.641.465l-3.4.493a.851.851,0,0,0-.471,1.451L109.3,69.1a.85.85,0,0,1,.245.753l-.58,3.382a.851.851,0,0,0,1.234.9l3.037-1.6a.851.851,0,0,1,.792,0l3.037,1.6a.851.851,0,0,0,1.234-.9l-.58-3.382a.85.85,0,0,1,.245-.753Z" transform="translate(-106.584 -60.739)" fill="#fff67a"/>
    </g>
  </g>
  <g id="Groupe_3303" data-name="Groupe 3303" transform="translate(30.768 14.945)">
    <g id="Groupe_3302" data-name="Groupe 3302" transform="translate(0 0)">
      <path id="Tracé_4136" data-name="Tracé 4136" d="M119.782,66.075a1.359,1.359,0,0,0-.754-2.319l-3.4-.493a.342.342,0,0,1-.258-.187L113.858,60a1.351,1.351,0,0,0-1.219-.758h0A1.352,1.352,0,0,0,111.42,60L109.9,63.075a.342.342,0,0,1-.257.187l-3.4.493a1.359,1.359,0,0,0-.753,2.319l2.457,2.395a.342.342,0,0,1,.1.3l-.58,3.382a1.36,1.36,0,0,0,1.972,1.434l3.037-1.6a.342.342,0,0,1,.318,0l3.037,1.6a1.36,1.36,0,0,0,1.972-1.434l-.58-3.382a.342.342,0,0,1,.1-.3Zm-3.558,2.87.58,3.382a.342.342,0,0,1-.5.36l-3.037-1.6a1.36,1.36,0,0,0-1.265,0l-3.037,1.6a.342.342,0,0,1-.5-.36l.58-3.382a1.359,1.359,0,0,0-.391-1.2l-2.457-2.395a.342.342,0,0,1,.19-.583l3.4-.493a1.36,1.36,0,0,0,1.024-.743l1.518-3.077a.333.333,0,0,1,.307-.191h0a.333.333,0,0,1,.307.191l1.519,3.077a1.359,1.359,0,0,0,1.023.743l3.4.493a.342.342,0,0,1,.19.583l-2.457,2.395A1.361,1.361,0,0,0,116.225,68.944Z" transform="translate(-105.084 -59.241)" fill="#3a312a"/>
    </g>
  </g>
  <g id="Groupe_3305" data-name="Groupe 3305" transform="translate(11.66 38.793)">
    <g id="Groupe_3304" data-name="Groupe 3304">
      <path id="Tracé_4137" data-name="Tracé 4137" d="M53.159,129.559c-.33,3.921-4.417,4.541-4.417,4.541,3.509.165,4.383,4.768,4.383,4.768.075-3.282,4.518-4.816,4.518-4.816C54.315,133.852,53.159,129.559,53.159,129.559Z" transform="translate(-48.742 -129.559)" fill="#d7e057"/>
    </g>
  </g>
  <g id="Groupe_3307" data-name="Groupe 3307" transform="translate(11.151 38.284)">
    <g id="Groupe_3306" data-name="Groupe 3306">
      <path id="Tracé_4138" data-name="Tracé 4138" d="M56.682,132.552c-2.918-.175-4.013-4.078-4.024-4.117a.509.509,0,0,0-1,.09c-.292,3.464-3.837,4.057-3.986,4.08a.509.509,0,0,0,.052,1.011c3.062.144,3.9,4.313,3.908,4.356a.509.509,0,0,0,.5.413l.043,0a.509.509,0,0,0,.466-.5c.066-2.886,4.135-4.333,4.176-4.347a.509.509,0,0,0-.137-.988Zm-4.6,3.508a5.927,5.927,0,0,0-2.573-3.01,5.462,5.462,0,0,0,2.782-2.806,6.211,6.211,0,0,0,2.826,2.958A7.23,7.23,0,0,0,52.081,136.06Z" transform="translate(-47.242 -128.058)" fill="#3a312a"/>
    </g>
  </g>
  <g id="Groupe_3309" data-name="Groupe 3309" transform="translate(5.594 44.551)">
    <g id="Groupe_3308" data-name="Groupe 3308" transform="translate(0 0)">
      <path id="Tracé_4139" data-name="Tracé 4139" d="M33.979,146.539a3.717,3.717,0,0,1-3.124,3.212c2.482.117,3.1,3.372,3.1,3.372.053-2.321,3.2-3.407,3.2-3.407C34.8,149.576,33.979,146.539,33.979,146.539Z" transform="translate(-30.855 -146.539)" fill="#d7e057"/>
    </g>
  </g>
  <g id="Groupe_3311" data-name="Groupe 3311" transform="translate(5.085 44.042)">
    <g id="Groupe_3310" data-name="Groupe 3310" transform="translate(0 0)">
      <path id="Tracé_4140" data-name="Tracé 4140" d="M36.19,148.217c-1.955-.117-2.7-2.776-2.711-2.8a.509.509,0,0,0-1,.09,3.186,3.186,0,0,1-2.693,2.751.509.509,0,0,0,.052,1.011c2.047.1,2.619,2.932,2.625,2.96a.509.509,0,0,0,.5.414l.042,0a.509.509,0,0,0,.467-.5c.044-1.936,2.826-2.928,2.853-2.938a.509.509,0,0,0-.136-.989Zm-3.25,2.3a4.346,4.346,0,0,0-1.508-1.79,4.059,4.059,0,0,0,1.652-1.668,4.539,4.539,0,0,0,1.676,1.772A5.312,5.312,0,0,0,32.939,150.521Z" transform="translate(-29.355 -145.038)" fill="#3a312a"/>
    </g>
  </g>
  <g id="Groupe_3313" data-name="Groupe 3313" transform="translate(5.594 35.511)">
    <g id="Groupe_3312" data-name="Groupe 3312">
      <path id="Tracé_4141" data-name="Tracé 4141" d="M33.979,119.882a3.716,3.716,0,0,1-3.124,3.212c2.482.117,3.1,3.372,3.1,3.372.053-2.321,3.2-3.407,3.2-3.407C34.8,122.918,33.979,119.882,33.979,119.882Z" transform="translate(-30.855 -119.882)" fill="#d7e057"/>
    </g>
  </g>
  <g id="Groupe_3315" data-name="Groupe 3315" transform="translate(5.085 35.002)">
    <g id="Groupe_3314" data-name="Groupe 3314" transform="translate(0)">
      <path id="Tracé_4142" data-name="Tracé 4142" d="M36.19,121.56c-1.955-.117-2.7-2.776-2.711-2.8a.509.509,0,0,0-1,.09,3.186,3.186,0,0,1-2.693,2.751.509.509,0,0,0,.052,1.011c2.047.1,2.619,2.932,2.625,2.96a.509.509,0,0,0,.5.414l.042,0a.509.509,0,0,0,.467-.5c.044-1.936,2.826-2.928,2.853-2.937a.509.509,0,0,0-.136-.989Zm-3.25,2.3a4.346,4.346,0,0,0-1.508-1.791,4.055,4.055,0,0,0,1.652-1.667,4.54,4.54,0,0,0,1.676,1.772A5.311,5.311,0,0,0,32.939,123.864Z" transform="translate(-29.355 -118.381)" fill="#3a312a"/>
    </g>
  </g>
  <g id="Groupe_3317" data-name="Groupe 3317" transform="translate(11.66 38.793)">
    <g id="Groupe_3316" data-name="Groupe 3316">
      <path id="Tracé_4143" data-name="Tracé 4143" d="M53.159,129.559c-.33,3.921-4.417,4.541-4.417,4.541,3.509.165,4.383,4.768,4.383,4.768.075-3.282,4.518-4.816,4.518-4.816C54.315,133.852,53.159,129.559,53.159,129.559Z" transform="translate(-48.742 -129.559)" fill="#fff67a"/>
    </g>
  </g>
  <g id="Groupe_3319" data-name="Groupe 3319" transform="translate(11.151 38.284)">
    <g id="Groupe_3318" data-name="Groupe 3318">
      <path id="Tracé_4144" data-name="Tracé 4144" d="M56.682,132.552c-2.918-.175-4.013-4.078-4.024-4.117a.509.509,0,0,0-1,.09c-.292,3.464-3.837,4.057-3.986,4.08a.509.509,0,0,0,.052,1.011c3.062.144,3.9,4.313,3.908,4.356a.509.509,0,0,0,.5.413l.043,0a.509.509,0,0,0,.466-.5c.066-2.886,4.135-4.333,4.176-4.347a.509.509,0,0,0-.137-.988Zm-4.6,3.508a5.927,5.927,0,0,0-2.573-3.01,5.462,5.462,0,0,0,2.782-2.806,6.211,6.211,0,0,0,2.826,2.958A7.23,7.23,0,0,0,52.081,136.06Z" transform="translate(-47.242 -128.058)" fill="#3a312a"/>
    </g>
  </g>
  <g id="Groupe_3321" data-name="Groupe 3321" transform="translate(5.594 44.551)">
    <g id="Groupe_3320" data-name="Groupe 3320" transform="translate(0 0)">
      <path id="Tracé_4145" data-name="Tracé 4145" d="M33.979,146.539a3.717,3.717,0,0,1-3.124,3.212c2.482.117,3.1,3.372,3.1,3.372.053-2.321,3.2-3.407,3.2-3.407C34.8,149.576,33.979,146.539,33.979,146.539Z" transform="translate(-30.855 -146.539)" fill="#fff67a"/>
    </g>
  </g>
  <g id="Groupe_3323" data-name="Groupe 3323" transform="translate(5.085 44.042)">
    <g id="Groupe_3322" data-name="Groupe 3322" transform="translate(0 0)">
      <path id="Tracé_4146" data-name="Tracé 4146" d="M36.19,148.217c-1.955-.117-2.7-2.776-2.711-2.8a.509.509,0,0,0-1,.09,3.186,3.186,0,0,1-2.693,2.751.509.509,0,0,0,.052,1.011c2.047.1,2.619,2.932,2.625,2.96a.509.509,0,0,0,.5.414l.042,0a.509.509,0,0,0,.467-.5c.044-1.936,2.826-2.928,2.853-2.938a.509.509,0,0,0-.136-.989Zm-3.25,2.3a4.346,4.346,0,0,0-1.508-1.79,4.059,4.059,0,0,0,1.652-1.668,4.539,4.539,0,0,0,1.676,1.772A5.312,5.312,0,0,0,32.939,150.521Z" transform="translate(-29.355 -145.038)" fill="#3a312a"/>
    </g>
  </g>
  <g id="Groupe_3325" data-name="Groupe 3325" transform="translate(5.594 35.511)">
    <g id="Groupe_3324" data-name="Groupe 3324">
      <path id="Tracé_4147" data-name="Tracé 4147" d="M33.979,119.882a3.716,3.716,0,0,1-3.124,3.212c2.482.117,3.1,3.372,3.1,3.372.053-2.321,3.2-3.407,3.2-3.407C34.8,122.918,33.979,119.882,33.979,119.882Z" transform="translate(-30.855 -119.882)" fill="#fff67a"/>
    </g>
  </g>
  <g id="Groupe_3327" data-name="Groupe 3327" transform="translate(5.085 35.002)">
    <g id="Groupe_3326" data-name="Groupe 3326" transform="translate(0)">
      <path id="Tracé_4148" data-name="Tracé 4148" d="M36.19,121.56c-1.955-.117-2.7-2.776-2.711-2.8a.509.509,0,0,0-1,.09,3.186,3.186,0,0,1-2.693,2.751.509.509,0,0,0,.052,1.011c2.047.1,2.619,2.932,2.625,2.96a.509.509,0,0,0,.5.414l.042,0a.509.509,0,0,0,.467-.5c.044-1.936,2.826-2.928,2.853-2.937a.509.509,0,0,0-.136-.989Zm-3.25,2.3a4.346,4.346,0,0,0-1.508-1.791,4.055,4.055,0,0,0,1.652-1.667,4.54,4.54,0,0,0,1.676,1.772A5.311,5.311,0,0,0,32.939,123.864Z" transform="translate(-29.355 -118.381)" fill="#3a312a"/>
    </g>
  </g>
  <g id="Groupe_3329" data-name="Groupe 3329" transform="translate(48.819 1.017)">
    <g id="Groupe_3328" data-name="Groupe 3328" transform="translate(0 0)">
      <path id="Tracé_4149" data-name="Tracé 4149" d="M163.4,18.173h-5.087a2.473,2.473,0,0,1,2.469,2.469v2.506a2.474,2.474,0,0,1-2.469,2.469H163.4a2.474,2.474,0,0,0,2.469-2.469V20.642A2.473,2.473,0,0,0,163.4,18.173Z" transform="translate(-158.311 -18.173)" fill="#e4b009"/>
    </g>
  </g>
  <g id="Groupe_3331" data-name="Groupe 3331" transform="translate(36.973 9.479)">
    <g id="Groupe_3330" data-name="Groupe 3330">
      <path id="Tracé_4150" data-name="Tracé 4150" d="M135.166,43.123V58.3a11.8,11.8,0,0,1-11.785,11.788h5.087A11.8,11.8,0,0,0,140.253,58.3V43.123Z" transform="translate(-123.381 -43.123)" fill="#e4b009"/>
    </g>
  </g>
</svg>
