<svg xmlns="http://www.w3.org/2000/svg" width="28" height="24.503" viewBox="0 0 28 24.503"><path d="M26.72,43.909l-5.283-1.98V36a1.968,1.968,0,0,0-1.28-1.843L14.689,32.1a1.946,1.946,0,0,0-1.384,0L7.837,34.153A1.968,1.968,0,0,0,6.557,36v5.934l-5.283,1.98A1.971,1.971,0,0,0,0,45.752v6.021a1.971,1.971,0,0,0,1.088,1.761l5.469,2.734a1.958,1.958,0,0,0,1.761,0L14,53.425l5.682,2.844a1.958,1.958,0,0,0,1.761,0l5.469-2.734A1.971,1.971,0,0,0,28,51.773V45.752A1.968,1.968,0,0,0,26.72,43.909Zm-7.142-1.936L14.93,43.718v-3.73l4.648-2.023ZM8.422,35.919,14,33.83l5.578,2.089v.033L14,38.216,8.422,35.952Zm4.594,15.92L8.367,54.163V49.837l4.648-2.122Zm0-6.125L7.438,47.978,1.859,45.714v-.033l5.578-2.089,5.578,2.089Zm13.125,6.125-4.648,2.324V49.837l4.648-2.122Zm0-6.125-5.578,2.264-5.578-2.264v-.033l5.578-2.089,5.578,2.089Z" transform="translate(0 -31.975)" fill="#6E3EC4"/></svg>
