<svg xmlns="http://www.w3.org/2000/svg" width="48.253" height="42.226" viewBox="0 0 48.253 42.226">
  <path id="cubes-solid" d="M46.048,52.542l-9.1-3.412V38.9a3.392,3.392,0,0,0-2.205-3.176l-9.424-3.534a3.353,3.353,0,0,0-2.384,0l-9.424,3.534A3.392,3.392,0,0,0,11.3,38.9V49.13L2.2,52.542A3.4,3.4,0,0,0,0,55.718V66.094a3.4,3.4,0,0,0,1.875,3.035L11.3,73.841a3.373,3.373,0,0,0,3.035,0l9.792-4.9,9.792,4.9a3.374,3.374,0,0,0,3.035,0l9.424-4.712a3.4,3.4,0,0,0,1.875-3.035V55.718A3.392,3.392,0,0,0,46.048,52.542ZM33.74,49.205l-8.011,3.006V45.784L33.74,42.3ZM14.514,38.772l9.613-3.6,9.613,3.6v.057l-9.613,3.9-9.613-3.9ZM22.43,66.207l-8.011,4.005V62.758L22.43,59.1Zm0-10.555-9.613,3.9L3.2,55.652V55.6l9.613-3.6,9.613,3.6ZM45.049,66.207l-8.011,4.005V62.758L45.049,59.1Zm0-10.555-9.613,3.9-9.613-3.9V55.6l9.613-3.6,9.613,3.6Z" transform="translate(0 -31.975)" fill="#5cb962"/>
</svg>
