<?xml version="1.0" encoding="utf-8"?>
<svg viewBox="0 0 500 500" xmlns="http://www.w3.org/2000/svg">
  <path id="star_3_3" data-name="star (3)" d="M 496.554 188.999 C 493.293 178.474 484.354 170.995 473.817 169.996 L 330.41 156.36 L 273.668 17.412 C 265.688 -2.158 240.435 -5.334 228.236 11.67 C 226.966 13.452 225.907 15.39 225.075 17.412 L 168.231 156.36 L 24.717 169.996 C 4.432 172.037 -6.124 196.284 5.702 213.635 C 6.865 215.334 8.215 216.899 9.715 218.268 L 118.183 317.794 L 86.197 465.29 C 81.667 486.012 100.267 504.062 119.68 497.798 C 121.677 497.166 123.588 496.274 125.396 495.145 L 249.165 417.755 L 372.89 495.145 C 390.329 506.082 412.546 493.144 412.858 471.88 C 412.899 469.66 412.671 467.463 412.214 465.29 L 380.227 317.881 L 488.698 218.376 C 496.659 211.093 499.715 199.546 496.451 188.999 L 496.554 188.999 Z M 496.554 188.999" fill="#ffc107" style="" transform="matrix(1, 0, 0, 1, 1.1368683772161603e-13, 5.684341886080802e-14)"/>
</svg>