<?xml version="1.0" encoding="utf-8"?>
<svg viewBox="0 0 500 500" xmlns="http://www.w3.org/2000/svg">
  <path id="star_3_2" data-name="star (3)" d="M 496.018 189.42 C 492.784 178.962 483.851 171.525 473.346 170.533 L 330.34 156.983 L 273.759 18.903 C 265.801 -0.545 240.639 -3.699 228.475 13.2 C 227.209 14.972 226.153 16.873 225.304 18.903 L 168.619 156.983 L 25.512 170.533 C 5.304 172.564 -5.223 196.657 6.569 213.903 C 7.729 215.587 9.076 217.143 10.549 218.504 L 118.713 317.408 L 86.815 463.98 C 82.319 484.573 100.87 502.509 120.226 496.284 C 122.215 495.66 124.123 494.772 125.906 493.65 L 249.325 416.744 L 372.702 493.65 C 390.113 504.518 412.269 491.661 412.579 470.528 C 412.62 468.323 412.392 466.14 411.914 463.98 L 380.018 317.494 L 488.186 218.612 C 496.143 211.372 499.189 199.899 495.913 189.42 L 496.018 189.42 Z M 496.018 189.42" fill="#b0dff6" style="" transform="matrix(1, 0, 0, 1, 1.1368683772161603e-13, 5.684341886080802e-14)"/>
</svg>