<svg xmlns="http://www.w3.org/2000/svg" xmlns:xlink="http://www.w3.org/1999/xlink" width="790.743" height="431.123" viewBox="0 0 790.743 431.123"><defs><style>.a{fill:none;}.b{clip-path:url(#a);}.c{clip-path:url(#b);}.d,.w{fill:#d1efff;}.e,.x{fill:#a3d9f2;}.f,.k,.m,.n,.u,.v{fill:#fff;}.g{fill:#c4e4f2;}.h{fill:#fffffa;}.i{fill:url(#c);}.j{opacity:0.8;}.k{opacity:0.49;}.l{opacity:0.83;}.m{opacity:0.71;}.n{opacity:0.45;}.o{fill:#ffa33a;}.p{fill:#1d405d;}.q{fill:#272363;}.r,.s{fill:#9f4e29;}.ab,.s,.w,.x{mix-blend-mode:multiply;isolation:isolate;}.t{fill:#1b1937;}.u{opacity:0.39;}.v{opacity:0.5;}.y{fill:#f0fbfe;}.z{fill:#52b5cc;}.aa{fill:#daf4fc;}.ab{fill:#42bfc9;}.ac{fill:#c9e5f5;}</style><clipPath id="a"/><clipPath id="b"><path class="a" d="M883.988,262.122c15.522,49.159,12.194,110.8-33.505,148.651C793.088,458.3,702.515,478.728,624.31,485.239c-103.2,8.593-214.156,3.052-306.819-39.535C245,412.389,182.879,354.015,182.879,281.811c0-41.82,21.578-81.018,54.7-111.9,33.648-31.373,82.243-63.25,128.938-78.123,61.708-19.656,127.728-39.718,194.937-32.866,51.934,5.295,113.782,32.411,137.176,73.177,11.708,20.4,16.972,38.275,41.568,50.445,30.717,15.2,73.7,2.5,101.907,21.62C863.6,218.743,876.894,239.658,883.988,262.122Z" transform="translate(-182.879 -57.553)"/></clipPath><linearGradient id="c" x1="0.487" y1="1.31" x2="0.507" y2="0.023" gradientUnits="objectBoundingBox"><stop offset="0" stop-color="#ffe8a4"/><stop offset="0.07" stop-color="#fee6b4"/><stop offset="0.234" stop-color="#fee4d4"/><stop offset="0.372" stop-color="#fee3e8"/><stop offset="0.464" stop-color="#fee3f0"/><stop offset="1" stop-color="#b5f2ff"/></linearGradient></defs><g transform="translate(0 0)"><g class="b" transform="translate(-299.062 -134.694)"><g transform="translate(266.805 82.478)"><g transform="translate(32.257 52.216)"><g transform="translate(0)"><g transform="translate(65.118)"><g class="c"><g transform="translate(-204.082 -116.323)"><rect class="d" width="1391.536" height="521.604" transform="translate(0.035)"/><rect class="e" width="474.78" height="467.499" transform="translate(916.735)"/><g transform="translate(0 465.377)"><rect class="f" width="1391.536" height="52.101" transform="translate(0 4.168)"/><g transform="translate(0 4.168)"><path class="g" d="M941.085,749.55,784.48,867.147,267.136,834.918,496.251,749.55Z" transform="translate(-19.972 -748.946)"/><path class="d" d="M55.43,748.368l-172.131,52.1h-6.956l172.131-52.1Z" transform="translate(171.004 -748.368)"/><path class="d" d="M221.264,748.368l-172.131,52.1H42.176l172.131-52.1Z" transform="translate(89.963 -748.368)"/><path class="d" d="M387.094,748.368l-172.131,52.1h-6.957l172.131-52.1Z" transform="translate(8.924 -748.368)"/><path class="d" d="M-88.921,748.368l-127.335,38.543V748.368Z" transform="translate(216.256 -748.368)"/><g transform="translate(985.42)"><path class="d" d="M2167.087,748.368,2005.245,800.1h-6.957l161.841-51.731Z" transform="translate(-1851.387 -748.368)"/><path class="d" d="M2335.556,748.368,2173.715,800.1h-6.957L2328.6,748.368Z" transform="translate(-1933.716 -748.368)"/><path class="d" d="M1879.782,748.368,1717.941,800.1h-6.957l161.841-51.731Z" transform="translate(-1710.985 -748.368)"/></g></g><rect class="h" width="1391.297" height="5.21" transform="translate(0.119)"/></g><g transform="translate(1208.975)"><rect class="i" width="163.749" height="467.381" transform="translate(11.806 0.325)"/><g class="j" transform="translate(14.19 72.034)"><g transform="translate(0 0)"><path class="k" d="M2179.946-14.785a4.08,4.08,0,0,1,2.927.724,4.715,4.715,0,0,1-.4-1.908,4.646,4.646,0,0,1,.051-.686,5.441,5.441,0,0,1,5.366-4.448,5.155,5.155,0,0,1,2.626.713l.111.067c.127.078.25.163.369.253.014.009.027.02.041.031a5.141,5.141,0,0,1,1.648,2.162c-.021-.269-.031-.542-.031-.818a10.4,10.4,0,0,1,10.431-10.372,10.438,10.438,0,0,1,9.275,5.622,16.164,16.164,0,0,1,1.1,5.8c.008.684-.029,1.1-.029,1.1a5.816,5.816,0,0,1,4.5,0,6.379,6.379,0,0,1,3.061,3.131s7.821,0,9.215,3.245h-54.253S2176.173-14.653,2179.946-14.785Z" transform="translate(-2175.955 29.066)"/></g><g class="l" transform="translate(87.866 47.761)"><path class="m" d="M2347.8,88.021h78.149s1.371-2.354-.752-3.1a3.607,3.607,0,0,0-2.907.161s-1.685-2.664-3.757-2.741a6.084,6.084,0,0,0-4.009,1.118s3.244-9.024-5.192-9.773c-6.9-.612-6.64,6.487-6.64,6.487s2.274-17.461-18.514-15.7c-14.221,1.2-12.766,15.7-12.766,15.7a9.253,9.253,0,0,0-6.336,0,8.323,8.323,0,0,0-4.307,3.856S2349.762,84.027,2347.8,88.021Z" transform="translate(-2347.799 -64.343)"/></g></g><g transform="translate(0 0.325)"><rect class="f" width="182.54" height="4.661" transform="translate(0 9.033)"/><rect class="f" width="182.54" height="4.661"/><rect class="f" width="182.54" height="4.661" transform="translate(0 18.063)"/><g transform="translate(0 54.043)"><g transform="translate(0 0)"><rect class="f" width="182.54" height="4.661"/></g></g><g transform="translate(0 26.875)"><rect class="f" width="182.54" height="4.661" transform="translate(0 9.031)"/><rect class="f" width="182.54" height="4.661"/><rect class="f" width="182.54" height="4.661" transform="translate(0 18.063)"/></g></g><g transform="translate(5.956)"><rect class="h" width="6.958" height="467.705" transform="translate(169.612)"/><rect class="h" width="6.958" height="467.705" transform="translate(84.807)"/><rect class="h" width="6.958" height="467.705"/></g><g transform="translate(13.195 42.676)"><path class="n" d="M2336.513-86.483v31.434L2174.306,106.906l.146-31.58Z" transform="translate(-2174.155 86.483)"/><path class="n" d="M2336.369,13.342v14.7L2174.01,190.152l.3-15Z" transform="translate(-2174.01 37.699)"/></g><g transform="translate(106.473 0.327)"><g transform="translate(11.361)"><path class="o" d="M2424.28-111.861l.087-.035-21.217-53.073a4.645,4.645,0,0,0,2.927-4.339h-1.917a2.678,2.678,0,0,1-2.619,2.727,2.678,2.678,0,0,1-2.621-2.727H2397a4.646,4.646,0,0,0,2.877,4.318L2378.656-111.9l.087.035h-.05c0,10.568,10.229,19.136,22.849,19.136s22.846-8.568,22.846-19.136Zm-43.575,0,20.808-52.043,20.806,52.043Z" transform="translate(-2378.656 169.307)"/></g><g transform="translate(0 19.705)"><g transform="translate(19.883 6.451)"><g transform="translate(9.933)"><g transform="translate(20.792 12.162)"><path class="p" d="M2455.828-93.4a2.323,2.323,0,0,1,3.229-.544,2.3,2.3,0,0,1,.592,3.207,2.324,2.324,0,0,1-3.231.543,2.312,2.312,0,0,1-.917-2.52,2.156,2.156,0,0,1,.151-.393A2.127,2.127,0,0,1,2455.828-93.4Z" transform="translate(-2455.416 94.367)"/></g><g transform="translate(15.186 8.854)"><path class="p" d="M2444.864-99.867a2.324,2.324,0,0,1,3.23-.544,2.3,2.3,0,0,1,.672,3.081,1.293,1.293,0,0,1-.081.125,2.012,2.012,0,0,1-.161.2,2.327,2.327,0,0,1-3.069.341A2.3,2.3,0,0,1,2444.864-99.867Z" transform="translate(-2444.451 100.836)"/></g><g transform="translate(20.324 7.044)"><path class="p" d="M2454.912-103.406a2.324,2.324,0,0,1,3.231-.544,2.3,2.3,0,0,1,.592,3.207,2.322,2.322,0,0,1-3.065.649c-.056-.032-.111-.067-.166-.105s-.122-.089-.179-.138A2.3,2.3,0,0,1,2454.912-103.406Z" transform="translate(-2454.501 104.375)"/></g><g transform="translate(9.464 4.267)"><path class="p" d="M2433.671-108.839a2.325,2.325,0,0,1,3.231-.544,2.3,2.3,0,0,1,.591,3.207,2.324,2.324,0,0,1-3.23.544,2.32,2.32,0,0,1-1-1.787,2.111,2.111,0,0,1,.013-.4A2.245,2.245,0,0,1,2433.671-108.839Z" transform="translate(-2433.26 109.808)"/></g><g transform="translate(3.149 4.857)"><path class="p" d="M2421.322-107.685a2.324,2.324,0,0,1,3.23-.543,2.324,2.324,0,0,1,.965,1.5,2.2,2.2,0,0,1,.039.421,2.259,2.259,0,0,1-.411,1.29,2.274,2.274,0,0,1-1.394.917,2.289,2.289,0,0,1-.348.047,2.351,2.351,0,0,1-1.488-.42A2.3,2.3,0,0,1,2421.322-107.685Z" transform="translate(-2420.91 108.653)"/></g><g transform="translate(4.399 11.851)"><path class="p" d="M2423.767-94.007a2.272,2.272,0,0,1,1.293-.894,2.268,2.268,0,0,1,.4-.067,2.347,2.347,0,0,1,1.535.417,2.3,2.3,0,0,1,.591,3.207,2.323,2.323,0,0,1-3.229.544A2.3,2.3,0,0,1,2423.767-94.007Z" transform="translate(-2423.356 94.975)"/></g><g transform="translate(0 8.851)"><path class="p" d="M2415.163-99.873a2.325,2.325,0,0,1,3.231-.543,2.324,2.324,0,0,1,.848,1.08c.013.032.024.064.035.1s.021.065.031.1c.019.069.036.138.048.208.008.034.013.069.018.1s.01.07.013.1a2.256,2.256,0,0,1-.4,1.514,2.322,2.322,0,0,1-3.23.544A2.3,2.3,0,0,1,2415.163-99.873Z" transform="translate(-2414.751 100.842)"/></g><g transform="translate(5.346)"><path class="p" d="M2425.618-117.184a2.324,2.324,0,0,1,3.23-.544,2.3,2.3,0,0,1,.592,3.207,2.277,2.277,0,0,1-1.552.944,2.231,2.231,0,0,1-.417.023,2.35,2.35,0,0,1-1.261-.423A2.3,2.3,0,0,1,2425.618-117.184Z" transform="translate(-2425.206 118.152)"/></g></g><g transform="translate(14.424 4.576)"><path class="p" d="M2423.534-103.422a.885.885,0,0,1,.035.1c.011.032.021.065.031.1a1.848,1.848,0,0,1,.049.208c.007.034.012.068.017.1s.009.069.013.1c.176.013.639.054,1.3.148l.158.781a.1.1,0,0,0,.007.028,2.285,2.285,0,0,1,.4-.068c0-.012,0-.023,0-.036l-.13-.641a30.529,30.529,0,0,1,4.43,1.035,23.76,23.76,0,0,1,4.706,2.039,15.288,15.288,0,0,1,5.16,4.641,13.846,13.846,0,0,1,2.528,6.355c-1.954-5.135-10.941-7.969-14.148-7.306-4.078.842-7.271,4.463,4.919,4.77,7.651.194,8.884,3.573,9.11,4.99a8.385,8.385,0,0,1-.245.941,9.216,9.216,0,0,1-1.453,2.726h.772a9.669,9.669,0,0,0,1.273-2.528c.037-.113.072-.227.1-.341,7.385-.55,16.014,4.36,14.548,1.781-5.906-10.384-13.171-3.621-14.457-2.132.7-2.931-.119-6.154-2.432-9.593a13.751,13.751,0,0,0-1.37-1.717,4.1,4.1,0,0,1,.321-3.539l.726.506.015.01a2.1,2.1,0,0,1,.151-.393l-.7-.485a10.452,10.452,0,0,1,1.16-1.613c-.055-.033-.112-.067-.165-.106s-.123-.089-.18-.139a11.258,11.258,0,0,0-1.009,1.36q-.081.128-.154.255l-.479-.334s0,0-.005,0c-.024.042-.052.084-.08.124a1.962,1.962,0,0,1-.162.2l.012.009.516.359a4.891,4.891,0,0,0-.6,3.154,16.693,16.693,0,0,0-1.962-1.594c-.446-.311-.921-.612-1.411-.9a23.232,23.232,0,0,0-3.085-1.475h0a12.331,12.331,0,0,1-4.174-5.3l.909-.3a2.186,2.186,0,0,1,.015-.4.2.2,0,0,0-.123,0l-.939.3a7.95,7.95,0,0,1-.39-1.94c0-.015,0-.031,0-.047a2.224,2.224,0,0,1-.417.023,8.46,8.46,0,0,0,.417,2.093l-.271.087a2.3,2.3,0,0,1,.038.422l.37-.121a12.19,12.19,0,0,0,3.417,4.746c-.2-.068-.4-.135-.606-.2a30.979,30.979,0,0,0-4.73-1.086l-.21-1.041a.2.2,0,0,0-.047-.094,2.195,2.195,0,0,1-.348.048.209.209,0,0,0-.011.122l.181.9c-.759-.1-1.214-.129-1.224-.13A.29.29,0,0,0,2423.534-103.422Z" transform="translate(-2423.534 109.203)"/></g><g transform="translate(0 20.294)"><path class="p" d="M2402.484-69.633c5.953-1.431,7.607.925,8.075,1.974a6.781,6.781,0,0,1,0,.778,7.331,7.331,0,0,1-.557,2.407l.6-.161a7.759,7.759,0,0,0,.46-2.217c0-.1.008-.191.008-.285,5.593-1.951,15.164-.9,13.5-2.59-6.719-6.8-12.814.884-13.5,2.3-.069-2.409-1.368-4.73-3.869-6.91a11.121,11.121,0,0,0-1.416-1.044l-.614-.357a13.4,13.4,0,0,0-1.846-.826c-.409-.148-.838-.282-1.276-.4a18.6,18.6,0,0,0-2.689-.5,12.185,12.185,0,0,1-1.91-.995c-.1.063-.208.127-.309.191a12.057,12.057,0,0,0,1.24.716c-.167-.011-.338-.022-.509-.029-.628-.028-1.226-.028-1.779-.012q-.4.267-.768.527a23.875,23.875,0,0,1,2.536-.023,19.035,19.035,0,0,1,4.06.6,12.257,12.257,0,0,1,4.951,2.519,11.091,11.091,0,0,1,3.272,4.389c-2.575-3.564-10.108-3.9-12.449-2.721C2394.717-70.809,2393-67.351,2402.484-69.633Z" transform="translate(-2395.324 78.462)"/></g></g><g transform="translate(2.622)"><g transform="translate(2.398 20.267)"><path class="p" d="M2369.914-90.9a2.58,2.58,0,0,0-3.41,1.268,2.554,2.554,0,0,0,1.216,3.414,2.58,2.58,0,0,0,3.411-1.268,2.572,2.572,0,0,0-.52-2.934,2.465,2.465,0,0,0-.365-.294A2.417,2.417,0,0,0,2369.914-90.9Z" transform="translate(-2366.256 91.131)"/></g><g transform="translate(5.951 13.976)"><path class="p" d="M2376.864-103.2a2.58,2.58,0,0,0-3.411,1.268,2.557,2.557,0,0,0,1.068,3.338c.047.027.1.052.148.075a2.268,2.268,0,0,0,.268.106,2.583,2.583,0,0,0,3.142-1.374A2.554,2.554,0,0,0,2376.864-103.2Z" transform="translate(-2373.205 103.434)"/></g><g transform="translate(0 15.083)"><path class="p" d="M2365.225-101.034a2.581,2.581,0,0,0-3.411,1.268,2.556,2.556,0,0,0,1.216,3.414,2.579,2.579,0,0,0,3.311-1.075c.036-.062.07-.126.1-.193s.068-.154.1-.233A2.553,2.553,0,0,0,2365.225-101.034Z" transform="translate(-2361.566 101.269)"/></g><g transform="translate(8.905 6.389)"><path class="p" d="M2382.64-118.039a2.581,2.581,0,0,0-3.412,1.268,2.556,2.556,0,0,0,1.216,3.414,2.582,2.582,0,0,0,3.411-1.268,2.573,2.573,0,0,0-.034-2.273,2.428,2.428,0,0,0-.235-.378A2.5,2.5,0,0,0,2382.64-118.039Z" transform="translate(-2378.981 118.274)"/></g><g transform="translate(15.309 3.455)"><path class="p" d="M2395.165-123.776a2.58,2.58,0,0,0-3.41,1.268,2.58,2.58,0,0,0-.1,1.975,2.52,2.52,0,0,0,.2.427,2.514,2.514,0,0,0,1.114,1.012,2.529,2.529,0,0,0,1.852.109,2.579,2.579,0,0,0,.361-.147,2.607,2.607,0,0,0,1.2-1.23A2.556,2.556,0,0,0,2395.165-123.776Z" transform="translate(-2391.507 124.011)"/></g><g transform="translate(17.998 10.878)"><path class="p" d="M2400.425-109.259a2.533,2.533,0,0,0-1.742-.143,2.531,2.531,0,0,0-.425.159,2.606,2.606,0,0,0-1.245,1.252,2.557,2.557,0,0,0,1.216,3.415,2.582,2.582,0,0,0,3.411-1.268A2.557,2.557,0,0,0,2400.425-109.259Z" transform="translate(-2396.766 109.494)"/></g><g transform="translate(20.563 5.553)"><path class="p" d="M2405.439-119.674a2.581,2.581,0,0,0-3.411,1.269,2.581,2.581,0,0,0-.215,1.51c.005.038.012.076.021.114s.016.074.025.112a2.245,2.245,0,0,0,.069.226c.012.037.026.074.041.11s.03.072.046.107a2.5,2.5,0,0,0,1.229,1.235,2.581,2.581,0,0,0,3.411-1.268A2.556,2.556,0,0,0,2405.439-119.674Z" transform="translate(-2401.781 119.909)"/></g><g transform="translate(10.492)"><path class="p" d="M2385.743-130.534a2.58,2.58,0,0,0-3.41,1.268,2.554,2.554,0,0,0,1.215,3.414,2.533,2.533,0,0,0,2.02.048,2.484,2.484,0,0,0,.413-.209,2.609,2.609,0,0,0,.979-1.106A2.555,2.555,0,0,0,2385.743-130.534Z" transform="translate(-2382.085 130.769)"/></g></g><g transform="translate(0 4.756)"><path class="p" d="M2359.447-79.976c.851-.815,1.847-1.792,2.941-2.821a50.488,50.488,0,0,1,6.828-5.581h5.208a10.179,10.179,0,0,1-.99-.56,9.464,9.464,0,0,1-1.248-.946,9.451,9.451,0,0,1-.761-.769,2.8,2.8,0,0,1-.132-.467,3.8,3.8,0,0,1,.6-2.64,7.552,7.552,0,0,1,.472-.71c.086-.116.177-.234.276-.355a18.548,18.548,0,0,1,3.677-3.257q.367-.259.768-.527.5-.333,1.048-.675c.1-.064.2-.128.309-.191l.056-.035c11.559-7.055,7.584-8.018,3.164-7.927-.1,0-.194.006-.289.011-4.182.212-7.722,3.109-9.741,6.669a14.91,14.91,0,0,0-.723,1.449,11.655,11.655,0,0,0-.968,6.359,15.369,15.369,0,0,1-1.1-7.517,15.871,15.871,0,0,1,1.355-5.306c.066-.152.136-.3.206-.455q.368-.783.822-1.566a26.413,26.413,0,0,1,3.392-4.57c.592-.646,1.18-1.234,1.74-1.759.2-.19.4-.371.594-.545.493-.44.951-.825,1.353-1.149l.233.688a.289.289,0,0,0,.017.038c.033-.016.065-.031.1-.045a2.621,2.621,0,0,1,.326-.114.165.165,0,0,0-.009-.031l-.038-.115-.244-.724c.588-.46,1.011-.755,1.173-.866-.017-.036-.032-.072-.047-.107s-.028-.073-.04-.11a2.113,2.113,0,0,1-.07-.226c-.009-.038-.018-.075-.024-.112s-.016-.076-.021-.113a.357.357,0,0,0-.1.044c-.01.007-.432.286-1.106.8l-.327-.97a.232.232,0,0,0-.08-.109,2.575,2.575,0,0,1-.361.147.231.231,0,0,0,.008.116l.378,1.117c-.285.225-.6.482-.938.771q-.258.22-.533.464a33.62,33.62,0,0,0-2.479,2.434c-.16.175-.317.351-.471.528a13.51,13.51,0,0,0,.646-6.462l.423-.089a2.621,2.621,0,0,1-.2-.427l-.31.065a9.311,9.311,0,0,0-.764-2.243,2.386,2.386,0,0,1-.413.208c.008.016.017.031.024.047a8.863,8.863,0,0,1,.7,2.082l-1.074.228a.231.231,0,0,0-.119.066,2.4,2.4,0,0,1,.235.377l1.042-.22a13.671,13.671,0,0,1-1.069,7.41h0a25.718,25.718,0,0,0-2.146,3.13c-.276.477-.531.959-.762,1.438-.034.069-.066.138-.1.206s-.071.153-.105.23a18.536,18.536,0,0,0-.9,2.392,5.444,5.444,0,0,0-2.329-2.705l.3-.632s0-.01.006-.016a2.186,2.186,0,0,1-.269-.105c-.051-.024-.1-.048-.148-.075l0,0-.275.587c-.094-.055-.191-.108-.29-.161a12.578,12.578,0,0,0-1.728-.748c-.028.078-.06.155-.1.233s-.064.131-.1.192a11.845,11.845,0,0,1,2.015.908l-.4.854a2.35,2.35,0,0,1,.365.294l.01-.018.417-.889a4.56,4.56,0,0,1,2.278,3.228,15.368,15.368,0,0,0-.362,2.412c-.261,3.838.4,6.952,1.97,9.292a9.882,9.882,0,0,0,1.029,1.287,12.7,12.7,0,0,0-4.664-.718c-3.769.178-8.525,2.454-10.031,12.26C2356.257-77.07,2357.456-78.076,2359.447-79.976Z" transform="translate(-2356.438 121.467)"/></g></g><g transform="translate(35.965 55.504)"><path class="p" d="M2456.921,21.468l.019-1.169a10.854,10.854,0,0,1-8.491-3.768c-7.985-9.184-4.983-32.969-2.791-50.336.881-6.976,1.641-13,1.453-16.479-.194-3.593-1.539-6.314-4-8.087-5.861-4.227-15.913-1.568-16.337-1.453l.307,1.128c.1-.027,9.942-2.627,15.347,1.274,2.155,1.556,3.337,3.979,3.511,7.2.182,3.373-.572,9.35-1.446,16.27-2.219,17.585-5.259,41.669,3.069,51.247A12.115,12.115,0,0,0,2456.921,21.468Z" transform="translate(-2426.777 60.754)"/><g transform="translate(19.453 12.497)"><path class="p" d="M2464.823-36.314s5.5,4.213,9.7,3.474.049,5.172-5.923,3.2C2464.76-30.9,2464.823-36.314,2464.823-36.314Z" transform="translate(-2464.823 36.314)"/></g><g transform="translate(16.217 42.965)"><path class="p" d="M2459.109,23.275s3.578,6.317,7.58,7.771-2.549,4.5-6.733-.184C2457.268,27.851,2459.109,23.275,2459.109,23.275Z" transform="translate(-2458.494 -23.275)"/></g><g transform="translate(17.003 78.271)"><path class="p" d="M2465.326,92.324s-1.2,7.157-4.46,9.89,3.938,3.362,6.265-2.471C2468.624,96,2465.326,92.324,2465.326,92.324Z" transform="translate(-2460.031 -92.324)"/></g><g transform="translate(6.08 62.56)"><path class="p" d="M2448.911,61.6s-4.622,5.6-8.817,6.339,1.727,4.877,6.663.986C2449.929,66.424,2448.911,61.6,2448.911,61.6Z" transform="translate(-2438.668 -61.598)"/></g><g transform="translate(7.405 28.434)"><path class="p" d="M2451.5-5.145s-4.622,5.6-8.817,6.34,1.726,4.877,6.663.986C2452.521-.319,2451.5-5.145,2451.5-5.145Z" transform="translate(-2441.26 5.145)"/></g><g transform="translate(17.078 23.543)"><g transform="translate(5.071 6.685)"><path class="p" d="M2470.129.985a2.236,2.236,0,0,0,4.405-.776,2.236,2.236,0,0,0-4.405.776Z" transform="translate(-2470.095 1.635)"/></g><g transform="translate(4.727 1.673)"><path class="p" d="M2469.456-8.818a2.235,2.235,0,0,0,2.59,1.811,2.233,2.233,0,0,0,1.815-2.586,2.236,2.236,0,0,0-2.591-1.811A2.232,2.232,0,0,0,2469.456-8.818Z" transform="translate(-2469.421 11.438)"/></g><g transform="translate(0 5.527)"><path class="p" d="M2460.211-1.28A2.237,2.237,0,0,0,2462.8.53a2.233,2.233,0,0,0,1.814-2.586,2.237,2.237,0,0,0-2.591-1.811A2.233,2.233,0,0,0,2460.211-1.28Z" transform="translate(-2460.177 3.901)"/></g><g transform="translate(1.366 0)"><path class="p" d="M2466.953-7.157l.739-.424-4.1-7.13-.739.424Z" transform="translate(-2462.849 14.71)"/></g><g transform="translate(3.404 4.386)"><path class="p" d="M2467.339-4.113l1.95-1.207-.5-.813-1.95,1.207Z" transform="translate(-2466.834 6.133)"/></g></g><g transform="translate(3.761 42.505)"><g transform="translate(4.443)"><path class="p" d="M2442.856,24.995a2.236,2.236,0,1,0,1.814-2.586A2.237,2.237,0,0,0,2442.856,24.995Z" transform="translate(-2442.822 -22.375)"/></g><g transform="translate(5.244 6.983)"><path class="p" d="M2444.423,38.652a2.237,2.237,0,1,0,1.814-2.586A2.236,2.236,0,0,0,2444.423,38.652Z" transform="translate(-2444.389 -36.032)"/></g><g transform="translate(0 4.236)"><path class="p" d="M2434.167,33.279a2.236,2.236,0,1,0,1.815-2.586A2.236,2.236,0,0,0,2434.167,33.279Z" transform="translate(-2434.133 -30.659)"/></g><g transform="translate(4.415 1.674)"><path class="p" d="M2443.517,30.5a8.885,8.885,0,0,0,6.088-2.115,6.94,6.94,0,0,0,1.81-2.433l-.8-.305a6.215,6.215,0,0,1-1.613,2.132,8.3,8.3,0,0,1-6.189,1.85l-.05.849C2443.025,30.5,2443.274,30.5,2443.517,30.5Z" transform="translate(-2442.768 -25.649)"/></g><g transform="translate(6.642 4.427)"><rect class="p" width="0.852" height="2.586" transform="translate(0 0.008) rotate(-0.529)"/></g></g><g transform="translate(25.325 74.62)"><g transform="translate(0.341)"><path class="p" d="M2481.413,87.029a2.237,2.237,0,1,1-2.591-1.811A2.233,2.233,0,0,1,2481.413,87.029Z" transform="translate(-2476.973 -85.184)"/></g><g transform="translate(0 8.479)"><path class="p" d="M2480.746,103.612a2.236,2.236,0,1,1-2.59-1.811A2.232,2.232,0,0,1,2480.746,103.612Z" transform="translate(-2476.307 -101.767)"/></g><g transform="translate(3.986 4.108)"><path class="p" d="M2488.541,95.063a2.236,2.236,0,1,1-2.591-1.811A2.232,2.232,0,0,1,2488.541,95.063Z" transform="translate(-2484.102 -93.218)"/></g><g transform="translate(1.426 4.055)"><rect class="p" width="4.439" height="0.852" transform="matrix(0.117, -0.993, 0.993, 0.117, 0, 4.409)"/></g></g></g></g></g><path class="h" d="M2279.059,211.029v-5.21l-236.617,199.7v76.093h5.219V477.96l19.766-16.683h105.715l-18.812,15.877v5.21l24.984-21.087h9.125v-7.7l13.221-11.158h9.593v-8.1l12.753-10.764h9.427V415.6l12.917-10.9,0,0H2256.6v-8.644l12.1-10.215h9.715v-8.2l.644-.543v-5.21l-6.243,5.269H2167.1l12.057-10.177h99.9v-8.684h-89.609l12.055-10.175h77.554v-8.684h-67.265l12.058-10.177h55.207v-8.684H2234.14l13.046-11.009h31.873v-8.683h-21.584l21.584-18.218v-5.21L2251.3,300.883h-8.572v7.233l-9.294,7.845V249.535ZM2060.631,452.594v8.683h.623L2047.66,472.75V406.324l87.2-73.6v63.286h-6.074v8.267l-12.553,10.594h-10.608v8.683h.32l-12.058,10.177h-10.443v8.684h.153l-12.056,10.176Zm122.8,0H2077.715l12.058-10.176h105.713Zm22.346-18.859H2100.063l12.057-10.177h105.715Zm34.4-29.036-12.055,10.176H2122.408l12.056-10.176v0h105.715Zm22.349-18.86-12.058,10.175H2144.754l12.058-10.175Zm-34.311-65.264h-9.107v7.477l-13.49,11.384h-9.672V347.6l-12.672,10.695h-9.509v8.026l-12.838,10.835h-10.322v8.684h.033l-10.559,8.911V328.324l88.136-74.385Z" transform="translate(-887.543 -13.686)"/><g transform="translate(1276.443 162.943)"><g transform="translate(11.924 126.872)"><g transform="translate(0 3.495)"><path class="q" d="M2318.976,565.881h-10.057c-.672-.776-2.082-2.708-3.286-4.149l-.544,4.149h-1.616l.13-6.962.005-.381c0-.043.01-.088.017-.131.279-1.958,2.6-4.815,2.9-5.177l.031-.039a.2.2,0,0,1,.045.008.62.62,0,0,1,.15.067c.326.188,1.04.866,1.99,3.279.826,2.1,2.072,4.405,3.179,4.9a6.018,6.018,0,0,0,2.662.221l.1-.01h.008c.194-.021.331-.041.379-.049l.021,0s4.085,1.772,4.078,2.391C2319.167,564.393,2319.05,565.409,2318.976,565.881Z" transform="translate(-2303.474 -476.753)"/><path class="r" d="M2328.375,403.7c-.9,3.952-2.052,9.731-3.106,14.028l-.432,1.753c-.857,3.468-1.677,6.711-2.345,9.292-.144.4-10.076,37.031-9.458,48.439a35.151,35.151,0,0,0,3.391,11.337l-.021,0-.38.049h-.009l-.1.01a6.024,6.024,0,0,1-2.662-.221c-1.108-.5-2.354-2.8-3.179-4.9-.951-2.413-1.664-3.09-1.991-3.279a.608.608,0,0,0-.151-.067.188.188,0,0,0-.044-.008l-.032.039c.155-.344.311-.681.458-1,.768-1.654-2.913-32.763-1.962-39.976.872-6.632,3.411-13.009,5.56-19.717.038-.118.075-.235.113-.353.029-.09.07-.611.119-1.4.208-3.365.562-11.593.679-11.977Z" transform="translate(-2304.802 -403.697)"/></g><g transform="translate(30.789)"><path class="q" d="M2379.191,531.429h-10.057c-.672-.776-2.082-2.708-3.285-4.149l-.544,4.149h-1.616l.13-6.962.006-.381c0-.043.009-.087.017-.131.279-1.958,2.6-4.815,2.9-5.177l.032-.039a.191.191,0,0,1,.044.008.591.591,0,0,1,.151.067c.326.188,1.04.865,1.99,3.278.825,2.1,2.071,4.406,3.179,4.9a6.019,6.019,0,0,0,2.663.221l.1-.01h.009c.193-.021.331-.041.38-.049l.021,0s4.085,1.772,4.078,2.391C2379.382,529.941,2379.264,530.957,2379.191,531.429Z" transform="translate(-2363.689 -456.422)"/><path class="r" d="M2368.527,458.216c-.147.32-.3.658-.458,1l.032-.039a.23.23,0,0,1,.044.007.63.63,0,0,1,.15.069c.325.188,1.04.865,1.99,3.278.823,2.1,2.071,4.405,3.178,4.9a6.013,6.013,0,0,0,2.662.22l.1-.01h.008l.381-.049.021,0a35.091,35.091,0,0,1-3.39-11.337c-.618-11.409,9.314-48.042,9.458-48.439.667-2.582,2.155-5.759,2.345-9.293a4.274,4.274,0,0,0-.5-1.66v.007l-13.94,1.817c.659.6,1.057,1.068,1.035,1.295-.646,6.937-4.214,11.628-5.087,18.258C2365.613,425.452,2369.295,456.563,2368.527,458.216Z" transform="translate(-2365.017 -396.862)"/></g></g><path class="q" d="M2355.322,310.227l-13.94,1.817-28.549,3.723s-6.086-16.617-6.247-30.528c.4-7.647,2.188-11.19,5.921-20.926.508-1.328,1.054-2.775,1.635-4.362.423-1.148.864-2.37,1.327-3.676,1.411-4-3.581-19.528-3.581-19.528v0a13.905,13.905,0,0,0,2.35-6.787,70.306,70.306,0,0,0-.466-9.809l19.471-.582c1.019,2.57,4.008,13.127,5.148,17.5.163.625.288,1.122.364,1.454.737,3.194-2.214,6.116-2.776,6.686-1.751,1.78-3.118,10.716-3.4,14.272-.015.195,2.975,5.083,6.916,12.553,5.2,9.855,12.052,24.2,15.829,38.188Z" transform="translate(-2293.07 -183.348)"/><g transform="translate(7.837 36.794)"><path class="r" d="M2362.2,277.338c-.185-.877.067-6.567.434-13.024a10.729,10.729,0,0,1-1.816,2.761c-1.753,1.779-3.12,10.715-3.4,14.272-.015.194,2.976,5.083,6.915,12.552C2363.344,285.852,2362.418,278.346,2362.2,277.338Z" transform="translate(-2325.748 -242.009)"/><g transform="translate(11.622 12.361)"><path class="d" d="M2337.795,272.46h-17.181l4.3-24.375h17.18Z" transform="translate(-2319.385 -246.439)"/><path class="h" d="M2335.391,269.24H2318.21l4.3-24.375h17.181Z" transform="translate(-2318.21 -244.866)"/></g><path class="r" d="M2327.728,246.853s.354.393.044,2.708c-.221,1.653-2.972,5.071-5.685,5.835-1.82.513-27,4.027-26.6-3.337.053-.98,3.631-31.943,12.86-31.361,3.43.216,1,9.456.756,10.616a15.963,15.963,0,0,1-2.64,5.979s-2.959,12.46-3.016,12.691,16.91,1.9,16.91,1.9,2.039-3.054,2.732-3.285,2.439-.538,2.439-.538a1.207,1.207,0,0,1-.669,1c-.616.231-1.77,1.306-1.539,1.537S2326.982,248.178,2327.728,246.853Z" transform="translate(-2295.48 -220.69)"/></g><g transform="translate(0 0)"><path class="r" d="M2340.262,182.108a32.42,32.42,0,0,1-4.31.175h0l-.258,3.77-.309,4.542.2.361,4.533,1.782-19.471.582c2.534-.915,4.669-1.914,5.171-3.01.675-2.354.729-7.97.729-7.97a10.492,10.492,0,0,0,3.147-4.854c.361-1.712-1.722-5.658.2-6.308s3.041,2.549,3.041,2.549,1.479-6.919,4.712-8.532c1.929-.964,3.08-.433,3.7.174a22.914,22.914,0,0,1,1.4,6.688C2342.868,174.523,2341.062,181.89,2340.262,182.108Z" transform="translate(-2299.939 -156.518)"/><path class="s" d="M2346.815,195.842l-.258,3.772a9.979,9.979,0,0,1-3.68-7.2S2344.565,195.454,2346.815,195.842Z" transform="translate(-2310.805 -170.078)"/><path class="t" d="M2321.557,157.583c-.623-.608-1.772-1.14-3.7-.176-3.233,1.615-4.713,8.533-4.713,8.533s-1.115-3.2-3.04-2.548.16,4.594-.2,6.3a10.484,10.484,0,0,1-3.146,4.856c-.077-.073-.154-.145-.23-.22l0,0q-.489-.474-.92-.967c-4.371-4.975-4.529-11.157-2.584-14.047.575-.852,1.081-1.571,1.525-2.175,0,0-4.13-.85-5.209,2.524s4.344,10.987-.013,17.425c-2.254,3.331-3.94,6.2-.946,14.586,4.032,11.3-13.155,12.225-13.155,12.225s3.069-6.186-1.964-10.122c-4.493-3.514-4.005-12.044.791-15.058,3.617-2.275,9.06-6.873,5.954-13.62s2.476-15.557,9.01-16.308a7.405,7.405,0,0,1,8.16,5.268c.8-.218,8.545-3.2,13.061,1.322A6.689,6.689,0,0,1,2321.557,157.583Z" transform="translate(-2280.153 -148.731)"/></g></g><g transform="translate(605.991 46.509)"><g transform="translate(0 0)"><path class="f" d="M1000.523-78.986a31.592,31.592,0,0,0-31.609,31.5,31.591,31.591,0,0,0,31.609,31.5,31.589,31.589,0,0,0,31.608-31.5A31.59,31.59,0,0,0,1000.523-78.986Zm1.742,59.473V-27.52h-3.484v8.007A28.114,28.114,0,0,1,972.453-45.75h8.035v-3.472h-8.035a28.112,28.112,0,0,1,26.328-26.236v8.006h3.484v-8.006a28.112,28.112,0,0,1,26.328,26.236h-8.034v3.472h8.034A28.113,28.113,0,0,1,1002.265-19.513Z" transform="translate(-968.914 78.986)"/><path class="f" d="M1041.682-7.565l-1.391,1.421-10.754-10.45v12.22h-1.991V-17.406a2.483,2.483,0,0,1-1.68-2.344,2.487,2.487,0,0,1,2.489-2.48,2.486,2.486,0,0,1,2.489,2.48,2.457,2.457,0,0,1-.369,1.3Z" transform="translate(-996.746 51.25)"/></g></g><g transform="translate(458.662 19.78)"><path class="h" d="M748.192,60.817H681.981a1.2,1.2,0,0,1-.638-2.218l32.7-20.441v-124.9h2.087v124.9L748.83,58.6A1.2,1.2,0,0,1,748.192,60.817Z" transform="translate(-680.775 109.506)"/><path class="h" d="M1222.676,16.3h-66.211a1.2,1.2,0,0,1-.638-2.218l32.7-20.443v-124.9h2.087v124.9l32.7,20.443A1.2,1.2,0,0,1,1222.676,16.3Z" transform="translate(-912.651 131.262)"/></g><g transform="translate(802.767 0.694)"><rect class="u" width="104.817" height="137.253"/><path class="v" d="M1458.576-168.589v.265L1353.759-63.81V-95.2l73.6-73.389Z" transform="translate(-1353.759 168.589)"/><path class="v" d="M1458.576-129.774v14.685L1355.557-12.368h-1.8V-25.26Z" transform="translate(-1353.759 149.621)"/><g transform="translate(0.494 151.944)"><path class="e" d="M1359.77,133.413l1.462.463a3.264,3.264,0,0,1-1.118,1.811,3.527,3.527,0,0,1-4.431-.421,3.872,3.872,0,0,1-.959-2.772,4.066,4.066,0,0,1,.964-2.889,3.308,3.308,0,0,1,2.533-1.029,3.11,3.11,0,0,1,2.227.808,2.931,2.931,0,0,1,.764,1.372l-1.493.356a1.543,1.543,0,0,0-1.574-1.25,1.7,1.7,0,0,0-1.348.595,2.908,2.908,0,0,0-.517,1.926,3.116,3.116,0,0,0,.51,2.012,1.657,1.657,0,0,0,1.325.6,1.515,1.515,0,0,0,1.034-.381A2.209,2.209,0,0,0,1359.77,133.413Z" transform="translate(-1354.725 -128.576)"/><path class="e" d="M1369.386,132.473a4.717,4.717,0,0,1,.342-1.911,3.514,3.514,0,0,1,.7-1.021,2.9,2.9,0,0,1,.966-.671,4.112,4.112,0,0,1,1.61-.295,3.514,3.514,0,0,1,2.643,1.021,4.555,4.555,0,0,1,.008,5.663,3.488,3.488,0,0,1-2.63,1.019,3.523,3.523,0,0,1-2.65-1.013A3.841,3.841,0,0,1,1369.386,132.473Zm1.554-.051a2.786,2.786,0,0,0,.586,1.918,2.019,2.019,0,0,0,2.969.005,2.843,2.843,0,0,0,.577-1.943,2.8,2.8,0,0,0-.562-1.911,2.091,2.091,0,0,0-3,.008A2.81,2.81,0,0,0,1370.94,132.423Z" transform="translate(-1361.889 -128.576)"/><path class="e" d="M1385.89,136.273v-7.449h1.468l3.057,4.975v-4.975h1.4v7.449H1390.3l-3.011-4.858v4.858Z" transform="translate(-1369.955 -128.697)"/><path class="e" d="M1400.621,136.273v-7.449h5.121v1.26h-3.613v1.763h3.119v1.26h-3.119v3.166Z" transform="translate(-1377.154 -128.697)"/><path class="e" d="M1413.069,136.273v-7.449h5.539v1.26h-4.031v1.651h3.751v1.255h-3.751v2.027h4.174v1.255Z" transform="translate(-1383.237 -128.697)"/><path class="e" d="M1426.693,136.273v-7.449h3.175a5.446,5.446,0,0,1,1.741.2,1.715,1.715,0,0,1,.869.714,2.141,2.141,0,0,1,.326,1.174,1.984,1.984,0,0,1-.495,1.385,2.376,2.376,0,0,1-1.478.688,3.551,3.551,0,0,1,.808.625,8.55,8.55,0,0,1,.858,1.21l.912,1.453h-1.8l-1.091-1.621a10.519,10.519,0,0,0-.8-1.1,1.153,1.153,0,0,0-.453-.31,2.5,2.5,0,0,0-.759-.084h-.306v3.11Zm1.508-4.3h1.116a5.8,5.8,0,0,0,1.355-.091.815.815,0,0,0,.423-.315.97.97,0,0,0,.153-.559.891.891,0,0,0-.2-.607.927.927,0,0,0-.569-.293q-.183-.025-1.1-.025H1428.2Z" transform="translate(-1389.895 -128.697)"/><path class="e" d="M1441.423,136.273v-7.449h5.54v1.26h-4.031v1.651h3.751v1.255h-3.751v2.027h4.174v1.255Z" transform="translate(-1397.093 -128.697)"/><path class="e" d="M1455.067,136.273v-7.449h1.468l3.058,4.975v-4.975h1.4v7.449h-1.514l-3.012-4.858v4.858Z" transform="translate(-1403.761 -128.697)"/><path class="e" d="M1474.3,133.413l1.463.463a3.27,3.27,0,0,1-1.118,1.811,3.528,3.528,0,0,1-4.431-.421,3.872,3.872,0,0,1-.958-2.772,4.066,4.066,0,0,1,.963-2.889,3.309,3.309,0,0,1,2.533-1.029,3.111,3.111,0,0,1,2.227.808,2.938,2.938,0,0,1,.764,1.372l-1.493.356a1.542,1.542,0,0,0-1.575-1.25,1.7,1.7,0,0,0-1.348.595,2.908,2.908,0,0,0-.518,1.926,3.116,3.116,0,0,0,.51,2.012,1.656,1.656,0,0,0,1.325.6,1.517,1.517,0,0,0,1.035-.381A2.212,2.212,0,0,0,1474.3,133.413Z" transform="translate(-1410.697 -128.576)"/><path class="e" d="M1484.518,136.273v-7.449h5.54v1.26h-4.031v1.651h3.751v1.255h-3.751v2.027h4.174v1.255Z" transform="translate(-1418.153 -128.697)"/><path class="e" d="M1503.813,136.273v-7.449h1.508v2.932h2.956v-2.932h1.508v7.449h-1.508v-3.257h-2.956v3.257Z" transform="translate(-1427.582 -128.697)"/><path class="e" d="M1524.555,136.273h-1.641l-.652-1.692h-2.986l-.617,1.692h-1.6l2.91-7.449h1.595Zm-2.777-2.947-1.03-2.764-1.009,2.764Z" transform="translate(-1434.056 -128.697)"/><path class="e" d="M1533.364,136.331v-7.388h1.508v6.133h3.75v1.255Z" transform="translate(-1442.024 -128.755)"/><path class="e" d="M1545.832,136.331v-7.388h1.508v6.133h3.75v1.255Z" transform="translate(-1448.117 -128.755)"/></g></g><g transform="translate(969.055 152.831)"><g transform="translate(0 19.84)"><path class="f" d="M1841.01,167.756v292.7h-17V182.319H1695.982V460.46h-17v-292.7Z" transform="translate(-1678.978 -167.756)"/><rect class="w" width="128.024" height="278.141" transform="translate(17.003 14.563)"/><rect class="f" width="109.521" height="278.141" transform="translate(35.507 14.563)"/><rect class="d" width="3.751" height="277.558" transform="translate(86.517 14.563)"/><rect class="x" width="3.751" height="292.468" transform="translate(162.031 0)"/><path class="w" d="M1857.943,196.238H1748.422V321.69l109.521-99.765Z" transform="translate(-1712.915 -181.675)"/><g transform="translate(4.814 130.129)"><path class="p" d="M1690.418,422.256l-2.025,5.362h4.238Z" transform="translate(-1688.393 -422.256)"/><path class="p" d="M1690.418,443.933l-2.025-5.362h4.238Z" transform="translate(-1688.393 -430.228)"/></g></g><g transform="translate(63.554 0)"><rect class="x" width="2.592" height="16.456" transform="translate(36.082)"/><rect class="f" width="36.082" height="16.456"/><g transform="translate(8.982 2.704)"><rect class="p" width="18.238" height="11.048"/><g transform="translate(5.453 1.671)"><path class="e" d="M1831.5,145.216v-1.03l2-3.724a1.343,1.343,0,0,0,.173-.488,5.2,5.2,0,0,0,.022-.521c0-.093,0-.191-.005-.3a.708.708,0,0,0-.06-.274.513.513,0,0,0-.163-.2.523.523,0,0,0-.315-.08.55.55,0,0,0-.4.14.539.539,0,0,0-.146.408v.623H1831.5v-.6a1.613,1.613,0,0,1,.13-.644,1.669,1.669,0,0,1,.359-.526,1.629,1.629,0,0,1,.521-.359,1.591,1.591,0,0,1,.651-.134,1.641,1.641,0,0,1,.743.155,1.488,1.488,0,0,1,.515.424,1.831,1.831,0,0,1,.288.612,2.8,2.8,0,0,1,.093.73c0,.186,0,.342-.011.467a2.861,2.861,0,0,1-.043.359,1.621,1.621,0,0,1-.108.344c-.051.115-.12.254-.207.419l-1.627,3.1h2v1.095Z" transform="translate(-1831.505 -137.511)"/><path class="e" d="M1839.4,145.216v-1.03l2-3.724a1.352,1.352,0,0,0,.173-.488q.021-.209.021-.521c0-.093,0-.191-.005-.3a.717.717,0,0,0-.06-.274.514.514,0,0,0-.162-.2.523.523,0,0,0-.315-.08.551.551,0,0,0-.4.14.536.536,0,0,0-.146.408v.623H1839.4v-.6a1.613,1.613,0,0,1,.13-.644,1.667,1.667,0,0,1,.359-.526,1.623,1.623,0,0,1,.521-.359,1.592,1.592,0,0,1,.651-.134,1.643,1.643,0,0,1,.743.155,1.489,1.489,0,0,1,.516.424,1.837,1.837,0,0,1,.287.612,2.806,2.806,0,0,1,.092.73c0,.186,0,.342-.01.467a2.711,2.711,0,0,1-.043.359,1.593,1.593,0,0,1-.108.344c-.051.115-.119.254-.206.419l-1.627,3.1h2v1.095Z" transform="translate(-1835.362 -137.511)"/></g><path class="n" d="M1831.039,145.291H1828.6l-6.389-11.047h2.438Z" transform="translate(-1821.511 -134.243)"/><path class="n" d="M1848.184,134.243v11.048h-2.321l-6.389-11.048Z" transform="translate(-1829.947 -134.243)"/></g></g></g></g></g></g><g transform="translate(472.154 49.889)"><g transform="translate(2.249 2.246)"><path class="y" d="M1202.967,171.965v114.86a12.459,12.459,0,0,1-12.469,12.449H995.81a12.46,12.46,0,0,1-12.47-12.449V171.965a12.46,12.46,0,0,1,12.47-12.449H1190.5A12.459,12.459,0,0,1,1202.967,171.965Z" transform="translate(-983.34 -159.516)"/></g><path class="f" d="M1188.575,299.364H993.887a14.486,14.486,0,0,1-14.482-14.458V170.046a14.486,14.486,0,0,1,14.482-14.458h194.687a14.485,14.485,0,0,1,14.481,14.458V284.906A14.485,14.485,0,0,1,1188.575,299.364ZM993.887,159.6a10.461,10.461,0,0,0-10.458,10.441V284.906a10.461,10.461,0,0,0,10.458,10.441h194.687a10.461,10.461,0,0,0,10.458-10.441V170.046a10.461,10.461,0,0,0-10.458-10.441Z" transform="translate(-979.169 -155.351)"/><path class="z" d="M1188.348,299.375H993.66a14.723,14.723,0,0,1-14.718-14.7V169.819a14.723,14.723,0,0,1,14.718-14.7h194.687a14.723,14.723,0,0,1,14.718,14.7V284.68A14.723,14.723,0,0,1,1188.348,299.375ZM993.66,155.6a14.249,14.249,0,0,0-14.244,14.221V284.68A14.248,14.248,0,0,0,993.66,298.9h194.687a14.248,14.248,0,0,0,14.244-14.221V169.819a14.248,14.248,0,0,0-14.244-14.221Zm194.687,139.76H993.66a10.7,10.7,0,0,1-10.7-10.678V169.819a10.7,10.7,0,0,1,10.7-10.678h194.687a10.7,10.7,0,0,1,10.7,10.678V284.68A10.7,10.7,0,0,1,1188.348,295.358ZM993.66,159.615a10.224,10.224,0,0,0-10.221,10.2V284.68a10.224,10.224,0,0,0,10.221,10.2h194.687a10.224,10.224,0,0,0,10.221-10.2V169.819a10.224,10.224,0,0,0-10.221-10.2Z" transform="translate(-978.942 -155.124)"/><g transform="translate(68.779 99.428)"><path class="o" d="M1146.18,365.916c0,.254-.005.507-.017.759,0,.027,0,.054,0,.08a16.361,16.361,0,1,1-16.49-17.173h.15a16.3,16.3,0,0,1,9.452,3c.09.064.18.13.27.2a16.444,16.444,0,0,1,3.282,3.226l.01.012A16.238,16.238,0,0,1,1146.18,365.916Z" transform="translate(-1113.457 -349.581)"/><g transform="translate(16.211)"><path class="p" d="M1155.034,352.777l-9.743,13.236-.129-16.43h.15A16.3,16.3,0,0,1,1155.034,352.777Z" transform="translate(-1145.162 -349.581)"/></g><g transform="translate(16.34 3)"><path class="e" d="M1158.448,358.882l-13.034,10,9.473-13.431c.09.064.18.13.269.2a16.444,16.444,0,0,1,3.282,3.226Z" transform="translate(-1145.414 -355.449)"/></g><g transform="translate(16.34 6.422)"><path class="e" d="M1161.8,372.054c0,.254-.005.507-.017.759,0,.027,0,.054,0,.08l-16.361-.743,13.025-10.01A16.238,16.238,0,0,1,1161.8,372.054Z" transform="translate(-1145.414 -362.14)"/></g><g transform="translate(8.67 16.432)"><path class="d" d="M1154.449,382.38c0,.027,0,.054,0,.08a16.372,16.372,0,0,1-24.031,13.581l7.67-14.324Z" transform="translate(-1130.414 -381.717)"/></g></g><g transform="translate(146.475 40.132)"><g transform="translate(9.33 1.753)"><g transform="translate(0 24.369)"><rect class="e" width="4.426" height="8.035"/></g><g transform="translate(7.242 14.996)"><rect class="e" width="4.426" height="17.408"/></g><g transform="translate(14.35 12.318)"><rect class="e" width="4.426" height="20.086"/></g><g transform="translate(28.7 3.617)"><rect class="e" width="4.426" height="28.788"/></g><g transform="translate(21.458)"><rect class="e" width="4.426" height="32.404"/></g></g><g transform="translate(2.901 1.509)"><path class="o" d="M1316.676,274.771h-45.59V236.563h1.341v36.868h44.249Z" transform="translate(-1271.086 -236.563)"/></g><path class="o" d="M1271.677,238.2l-2.695-2.69-2.624,2.62-.948-.947,3.572-3.566,3.643,3.637Z" transform="translate(-1265.411 -233.612)"/><g transform="translate(45.765 35.34)"><path class="o" d="M1355.935,309.931l-.948-.947,2.623-2.62-2.694-2.69.948-.947,3.642,3.637Z" transform="translate(-1354.916 -302.728)"/></g></g><g transform="translate(27.653 39.084)"><g transform="translate(0 10.643)"><rect class="f" width="37.205" height="52.237"/><g transform="translate(6.976 11.608)"><rect class="e" width="23.253" height="3.482"/></g><g transform="translate(6.976 19.153)"><rect class="e" width="23.253" height="3.483"/></g><g transform="translate(6.976 26.505)"><rect class="e" width="23.253" height="3.482"/></g><g transform="translate(6.976 33.664)"><rect class="e" width="23.253" height="3.483"/></g><g transform="translate(16.955 3.094)"><path class="o" d="M1069.479,260.074a1.648,1.648,0,1,1-1.648-1.645A1.647,1.647,0,0,1,1069.479,260.074Z" transform="translate(-1066.184 -258.429)"/></g></g><g transform="translate(27.258)"><rect class="e" width="37.205" height="52.237"/><g transform="translate(6.976 11.608)"><rect class="aa" width="23.253" height="3.482"/></g><g transform="translate(6.976 19.153)"><rect class="aa" width="23.253" height="3.483"/></g><g transform="translate(6.976 26.505)"><rect class="aa" width="23.253" height="3.482"/></g><g transform="translate(6.976 33.664)"><rect class="aa" width="23.253" height="3.483"/></g><g transform="translate(16.955 3.094)"><path class="o" d="M1122.79,239.258a1.648,1.648,0,1,1-1.648-1.645A1.646,1.646,0,0,1,1122.79,239.258Z" transform="translate(-1119.494 -237.613)"/></g></g><g transform="translate(71.827)"><rect class="o" width="15.115" height="15.091"/></g><g transform="translate(71.827 20.314)"><rect class="o" width="15.115" height="15.091"/></g></g><g transform="translate(49.34 143.699)"><rect class="f" width="6.483" height="181.55"/><rect class="f" width="6.483" height="181.55" transform="translate(118.961)"/></g></g><g transform="translate(179.15 233.078)"><path class="e" d="M494.384,589.281v.659a5.507,5.507,0,0,1-5.513,5.5H457.524l0,56.243h13.164a22.733,22.733,0,0,1,13.145,3.931,15.771,15.771,0,0,1,3.623,3.533,4.4,4.4,0,1,1-5.478,2.751c-2.313-2.515-6.558-4.239-11.29-4.239H433.157c-4.742,0-9,1.731-11.315,4.252a4.341,4.341,0,0,1,.238,1.43,4.4,4.4,0,0,1-7.734,2.87,4.543,4.543,0,0,1-.332-.435v0a4.347,4.347,0,0,1-.738-2.432,4.4,4.4,0,0,1,3.1-4.2v0a15.8,15.8,0,0,1,3.614-3.52,22.778,22.778,0,0,1,13.166-3.937h13.132l0-56.243H417.91a5.506,5.506,0,0,1-5.512-5.5v-.659a5.5,5.5,0,0,1,5.512-5.5h18.264V553.383H423.269a16.82,16.82,0,0,1-16.434-15.071l-.876-9.845A13.575,13.575,0,0,1,419.711,513.4h33.813a16.82,16.82,0,0,1,16.434,15.071l.876,9.845a13.575,13.575,0,0,1-13.752,15.071H446.291v30.394h42.581A5.506,5.506,0,0,1,494.384,589.281Z" transform="translate(-405.899 -513.397)"/><path class="ab" d="M468.608,549.023a14.174,14.174,0,0,0,1.3-7.436l-.877-9.845A16.822,16.822,0,0,0,452.6,516.673h-33.81a13.752,13.752,0,0,0-10.236,4.367,13.563,13.563,0,0,1,12.455-7.641h33.813a16.821,16.821,0,0,1,16.434,15.071l.876,9.845A13.807,13.807,0,0,1,468.608,549.023Z" transform="translate(-407.195 -513.397)"/><path class="ab" d="M561.012,656.55v.659a5.508,5.508,0,0,1-5.512,5.5H543.848a5.47,5.47,0,0,1-1.608-.238,5.505,5.505,0,0,0,3.9-5.266v-.659a5.5,5.5,0,0,0-3.9-5.265,5.47,5.47,0,0,1,1.608-.238H555.5A5.506,5.506,0,0,1,561.012,656.55Z" transform="translate(-472.527 -580.664)"/><rect class="ab" width="10.116" height="2.77" transform="translate(30.275 39.987)"/><rect class="ab" width="11.233" height="2.77" transform="translate(40.391 81.983)"/></g><ellipse class="g" cx="53.603" cy="3.665" rx="53.603" ry="3.665" transform="translate(0 385.352)"/><g transform="translate(102.005 258.241)"><path class="f" d="M421.851,568.462H523.087v-5.853H255.021v5.853Z" transform="translate(-255.021 -562.609)"/></g><path class="ac" d="M1262.258,796.747c0,1.858-17.524,3.364-39.141,3.364s-39.142-1.506-39.142-3.364,17.525-3.364,39.142-3.364S1262.258,794.889,1262.258,796.747Z" transform="translate(-606.985 -417.145)"/><g transform="translate(292.611 238.341)"><path class="e" d="M712.829,596.61v.633a5.292,5.292,0,0,1-5.3,5.288H677.408v54.046h12.65a21.85,21.85,0,0,1,12.631,3.777,15.123,15.123,0,0,1,3.479,3.4,4.221,4.221,0,0,1,2.255,6.367,3.935,3.935,0,0,1-.3.4,4.23,4.23,0,0,1-7.453-2.733,4.128,4.128,0,0,1,.236-1.386c-2.224-2.417-6.3-4.074-10.848-4.074H654c-4.557,0-8.645,1.663-10.873,4.086a4.23,4.23,0,0,1-7.205,4.131,4.358,4.358,0,0,1-.318-.418v0a4.219,4.219,0,0,1,2.272-6.371v0a15.126,15.126,0,0,1,3.473-3.382A21.886,21.886,0,0,1,654,656.578h12.619V602.531H639.342a5.291,5.291,0,0,1-5.3-5.288v-.633a5.29,5.29,0,0,1,5.3-5.288h17.551V562.115h-12.4A16.164,16.164,0,0,1,628.7,547.633l-.842-9.46a13.046,13.046,0,0,1,13.215-14.483h32.492a16.164,16.164,0,0,1,15.791,14.483l.842,9.46a13.045,13.045,0,0,1-13.215,14.482H666.614v29.207h40.917A5.291,5.291,0,0,1,712.829,596.61Z" transform="translate(-627.799 -523.69)"/><path class="ab" d="M688.063,557.924a13.614,13.614,0,0,0,1.251-7.145l-.842-9.46a16.166,16.166,0,0,0-15.793-14.481h-32.49a13.213,13.213,0,0,0-9.835,4.2,13.032,13.032,0,0,1,11.968-7.344h32.492A16.164,16.164,0,0,1,690.6,538.174l.842,9.46A13.267,13.267,0,0,1,688.063,557.924Z" transform="translate(-629.047 -523.691)"/><path class="ab" d="M776.856,661.251v.633a5.293,5.293,0,0,1-5.3,5.289h-11.2a5.255,5.255,0,0,1-1.545-.229,5.291,5.291,0,0,0,3.753-5.06v-.633a5.287,5.287,0,0,0-3.753-5.06,5.251,5.251,0,0,1,1.545-.229h11.2A5.291,5.291,0,0,1,776.856,661.251Z" transform="translate(-691.827 -588.33)"/><rect class="ab" width="9.721" height="2.662" transform="translate(29.094 38.426)"/><rect class="ab" width="10.794" height="2.662" transform="translate(38.815 78.78)"/></g><path class="g" d="M1520.418,801.879c0,1.8-19.114,3.254-42.692,3.254s-42.692-1.457-42.692-3.254,19.114-3.254,42.692-3.254S1520.418,800.082,1520.418,801.879Z" transform="translate(-729.675 -419.706)"/><g transform="translate(0 220.241)"><path class="ab" d="M55.589,504.822l.943,10.8A18.4,18.4,0,0,0,74.5,532.15h5.322a18.4,18.4,0,0,1-17.969-16.531l-.944-10.8a14.9,14.9,0,0,1,15.078-16.531H70.666A14.9,14.9,0,0,0,55.589,504.822Z" transform="translate(-55.524 -488.291)"/><path class="e" d="M66,504.822l.943,10.8a18.4,18.4,0,0,0,17.97,16.531h8.836v33.337h-20a6.032,6.032,0,0,0-6.035,6.036v.724a6.034,6.034,0,0,0,6.035,6.037h31.071v61.688H90.446a24.9,24.9,0,0,0-14.415,4.318,17.292,17.292,0,0,0-3.956,3.861v0a4.822,4.822,0,0,0-2.588,7.273v0a4.82,4.82,0,0,0,8.833-2.67,4.784,4.784,0,0,0-.262-1.569c2.539-2.766,7.2-4.663,12.389-4.663h41.088c5.179,0,9.827,1.891,12.359,4.647a4.761,4.761,0,0,0-.267,1.584,4.819,4.819,0,1,0,6.264-4.6,17.269,17.269,0,0,0-3.965-3.874,24.846,24.846,0,0,0-14.39-4.311H117.122V578.284h34.321a6.036,6.036,0,0,0,6.035-6.037v-.724a6.034,6.034,0,0,0-6.035-6.036H104.824V532.15h11.784a14.9,14.9,0,0,0,15.078-16.531l-.945-10.8a18.4,18.4,0,0,0-17.97-16.53H81.077A14.9,14.9,0,0,0,66,504.822Z" transform="translate(-60.612 -488.291)"/><path class="ab" d="M225.328,645.3v.722a6.035,6.035,0,0,1-6.035,6.037H206.536a5.965,5.965,0,0,1-1.76-.261,6.037,6.037,0,0,0,4.275-5.775V645.3a6.033,6.033,0,0,0-4.275-5.776,5.983,5.983,0,0,1,1.76-.261h12.757A6.034,6.034,0,0,1,225.328,645.3Z" transform="translate(-128.462 -562.071)"/><rect class="ab" width="11.075" height="3.039" transform="translate(33.137 43.859)"/><rect class="ab" width="12.298" height="3.039" transform="translate(44.212 89.921)"/></g></g></g></g></g></g></svg>