<svg xmlns="http://www.w3.org/2000/svg" xmlns:xlink="http://www.w3.org/1999/xlink" width="505" height="698.982" viewBox="0 0 505 698.982"><defs><style>.a,.am,.bc,.m,.o,.p,.w,.x{fill:#fff;}.b{fill:none;}.c{fill:#078098;}.d{clip-path:url(#a);}.e{clip-path:url(#b);}.f{fill:#aedbe1;}.g,.z{fill:#a3d9f2;}.h{fill:#c4e4f2;}.i,.y{fill:#d1efff;}.j{fill:#fffffa;}.k{fill:url(#c);}.l{opacity:0.8;}.m{opacity:0.49;}.n{opacity:0.83;}.o{opacity:0.71;}.p{opacity:0.45;}.q{fill:#ffa33a;}.r{fill:#1d405d;}.s{fill:#272363;}.t,.u{fill:#9f4e29;}.ad,.u,.y,.z{mix-blend-mode:multiply;isolation:isolate;}.v{fill:#1b1937;}.w{opacity:0.39;}.x{opacity:0.5;}.aa{fill:#f0fbfe;}.ab{fill:#52b5cc;}.ac{fill:#daf4fc;}.ad{fill:#42bfc9;}.ae{fill:#c9e5f5;}.af{fill:#e6e6e6;}.ag{fill:#e0e0e0;}.ah{fill:#fdc6a8;}.ai{fill:#37474f;}.aj{fill:#263238;}.ak{fill:#455a64;}.al{fill:#ba68c8;}.am{opacity:0.6;}.an{fill:#ebebeb;}.ao{fill:#fafafa;}.ap{fill:#f5f5f5;}.aq{fill:#f0f0f0;}.ar{opacity:0.35;}.as{opacity:0.25;}.at,.be{opacity:0.2;}.au{opacity:0.1;}.av{fill:#f8af89;}.aw{fill:#ffbf9e;}.ax{fill:#ffd8c5;}.ay{fill:#9a4a4d;}.az{fill:#ff725e;}.ba{fill:#b16668;}.bb,.bd{fill:#a5200d;}.bc{opacity:0.7;}.bd{opacity:0.3;}</style><clipPath id="a"><rect class="a" width="505" height="693"/></clipPath><clipPath id="b"><path class="b" d="M705.181,209.95c11.563,36.622,9.084,82.545-24.96,110.74C637.464,356.1,569.99,371.314,511.73,376.165c-76.879,6.4-159.539,2.274-228.57-29.452-54-24.819-100.282-68.305-100.282-122.095,0-31.154,16.075-60.356,40.747-83.36,25.066-23.371,61.269-47.119,96.054-58.2C365.651,68.416,414.833,53.47,464.9,58.575c38.689,3.944,84.763,24.145,102.192,54.514,8.722,15.2,12.644,28.513,30.966,37.58,22.883,11.324,54.9,1.86,75.918,16.106C689.995,177.634,699.9,193.215,705.181,209.95Z" transform="translate(-182.879 -57.553)"/></clipPath><linearGradient id="c" x1="0.487" y1="1.31" x2="0.507" y2="0.023" gradientUnits="objectBoundingBox"><stop offset="0" stop-color="#ffe8a4"/><stop offset="0.07" stop-color="#fee6b4"/><stop offset="0.234" stop-color="#fee4d4"/><stop offset="0.372" stop-color="#fee3e8"/><stop offset="0.464" stop-color="#fee3f0"/><stop offset="1" stop-color="#b5f2ff"/></linearGradient></defs><path class="c" d="M0,0H505V693H0Z"/><g class="d"><g transform="translate(-40 346.43)"><g transform="translate(13 32.255)"><g transform="translate(19.257 19.961)"><g transform="translate(48.511)"><g class="e"><g transform="translate(-152.034 -86.657)"><rect class="f" width="1036.646" height="388.577" transform="translate(0.026)"/><rect class="g" width="353.695" height="348.271" transform="translate(682.936)"/><g transform="translate(0 346.69)"><rect class="a" width="1036.646" height="38.813" transform="translate(0 3.105)"/><g transform="translate(0 3.105)"><path class="h" d="M769.205,749.55,652.539,837.156l-385.4-24.01,170.683-63.6Z" transform="translate(-83.007 -749.1)"/><path class="i" d="M9.757,748.368l-128.232,38.814h-5.182L4.575,748.368Z" transform="translate(158.929 -748.368)"/><path class="i" d="M175.59,748.368,47.359,787.182H42.176l128.232-38.814Z" transform="translate(56.263 -748.368)"/><path class="i" d="M341.421,748.368,213.189,787.182h-5.182l128.232-38.814Z" transform="translate(-46.401 -748.368)"/><path class="i" d="M-121.4,748.368l-94.86,28.713V748.368Z" transform="translate(216.256 -748.368)"/><g transform="translate(734.104)"><path class="i" d="M2124.038,748.368l-120.566,38.538h-5.182l120.566-38.538Z" transform="translate(-1888.852 -748.368)"/><path class="i" d="M2292.507,748.368l-120.566,38.538h-5.182l120.566-38.538Z" transform="translate(-1993.15 -748.368)"/><path class="i" d="M1836.733,748.368l-120.566,38.538h-5.182l120.566-38.538Z" transform="translate(-1710.985 -748.368)"/></g></g><rect class="j" width="1036.469" height="3.881" transform="translate(0.089)"/></g><g transform="translate(900.645)"><rect class="k" width="121.987" height="348.183" transform="translate(8.795 0.242)"/><g class="l" transform="translate(10.571 53.663)"><g transform="translate(0 0)"><path class="m" d="M2178.928-18.427a3.04,3.04,0,0,1,2.181.539,3.514,3.514,0,0,1-.3-1.421,3.463,3.463,0,0,1,.038-.511,4.053,4.053,0,0,1,4-3.314,3.841,3.841,0,0,1,1.956.531l.083.05c.095.058.186.121.275.188l.031.023a3.83,3.83,0,0,1,1.228,1.611c-.016-.2-.023-.4-.023-.609a7.749,7.749,0,0,1,7.771-7.727,7.776,7.776,0,0,1,6.909,4.188,12.045,12.045,0,0,1,.822,4.32c.006.51-.021.82-.021.82a4.332,4.332,0,0,1,3.354,0,4.752,4.752,0,0,1,2.28,2.332s5.826,0,6.865,2.417h-40.417S2176.118-18.329,2178.928-18.427Z" transform="translate(-2175.955 29.066)"/></g><g class="n" transform="translate(65.457 35.58)"><path class="o" d="M2347.8,81.982h58.219s1.021-1.754-.56-2.311a2.687,2.687,0,0,0-2.166.12s-1.255-1.985-2.8-2.042a4.534,4.534,0,0,0-2.987.833s2.417-6.723-3.867-7.28c-5.14-.456-4.947,4.833-4.947,4.833s1.694-13.008-13.792-11.7c-10.594.9-9.51,11.7-9.51,11.7a6.893,6.893,0,0,0-4.72,0,6.2,6.2,0,0,0-3.209,2.873S2349.261,79.007,2347.8,81.982Z" transform="translate(-2347.799 -64.343)"/></g></g><g transform="translate(0 0.242)"><rect class="a" width="135.986" height="3.473" transform="translate(0 6.729)"/><rect class="a" width="135.986" height="3.472"/><rect class="a" width="135.986" height="3.472" transform="translate(0 13.457)"/><g transform="translate(0 40.26)"><g transform="translate(0 0)"><rect class="a" width="135.986" height="3.473"/></g></g><g transform="translate(0 20.021)"><rect class="a" width="135.986" height="3.473" transform="translate(0 6.728)"/><rect class="a" width="135.986" height="3.473"/><rect class="a" width="135.986" height="3.472" transform="translate(0 13.457)"/></g></g><g transform="translate(4.437)"><rect class="j" width="5.183" height="348.424" transform="translate(126.355)"/><rect class="j" width="5.183" height="348.424" transform="translate(63.178)"/><rect class="j" width="5.183" height="348.424"/></g><g transform="translate(9.83 31.792)"><path class="p" d="M2295.145-86.483v23.417L2174.306,57.585l.109-23.526Z" transform="translate(-2174.194 86.483)"/><path class="p" d="M2294.962,13.342V24.3L2174.01,145.06l.222-11.176Z" transform="translate(-2174.01 24.682)"/></g><g transform="translate(79.319 0.243)"><g transform="translate(8.463)"><path class="q" d="M2412.644-126.511l.065-.026L2396.9-166.075a3.46,3.46,0,0,0,2.181-3.232h-1.428a2,2,0,0,1-1.95,2.031,2,2,0,0,1-1.953-2.031h-1.428a3.461,3.461,0,0,0,2.144,3.216l-15.812,39.553.065.026h-.037c0,7.873,7.621,14.256,17.022,14.256s17.02-6.383,17.02-14.256Zm-32.462,0,15.5-38.77,15.5,38.77Z" transform="translate(-2378.656 169.307)"/></g><g transform="translate(0 14.68)"><g transform="translate(14.812 4.806)"><g transform="translate(7.4)"><g transform="translate(15.49 9.06)"><path class="r" d="M2455.723-93.646a1.731,1.731,0,0,1,2.406-.4,1.713,1.713,0,0,1,.441,2.389,1.732,1.732,0,0,1-2.407.4,1.723,1.723,0,0,1-.683-1.878,1.622,1.622,0,0,1,.113-.293A1.638,1.638,0,0,1,2455.723-93.646Z" transform="translate(-2455.416 94.367)"/></g><g transform="translate(11.313 6.596)"><path class="r" d="M2444.759-100.114a1.731,1.731,0,0,1,2.406-.405,1.713,1.713,0,0,1,.5,2.3,1.06,1.06,0,0,1-.061.093,1.547,1.547,0,0,1-.12.151,1.733,1.733,0,0,1-2.286.254A1.711,1.711,0,0,1,2444.759-100.114Z" transform="translate(-2444.452 100.836)"/></g><g transform="translate(15.141 5.248)"><path class="r" d="M2454.807-103.653a1.731,1.731,0,0,1,2.407-.405,1.713,1.713,0,0,1,.441,2.389,1.729,1.729,0,0,1-2.283.484c-.042-.024-.083-.05-.124-.078s-.091-.067-.133-.1A1.711,1.711,0,0,1,2454.807-103.653Z" transform="translate(-2454.501 104.375)"/></g><g transform="translate(7.05 3.179)"><path class="r" d="M2433.566-109.086a1.732,1.732,0,0,1,2.407-.405,1.713,1.713,0,0,1,.44,2.389,1.731,1.731,0,0,1-2.406.4,1.728,1.728,0,0,1-.744-1.331,1.582,1.582,0,0,1,.01-.3A1.673,1.673,0,0,1,2433.566-109.086Z" transform="translate(-2433.26 109.808)"/></g><g transform="translate(2.346 3.618)"><path class="r" d="M2421.217-107.932a1.731,1.731,0,0,1,2.406-.4,1.731,1.731,0,0,1,.719,1.115,1.671,1.671,0,0,1,.029.314,1.682,1.682,0,0,1-.307.961,1.693,1.693,0,0,1-1.038.683,1.7,1.7,0,0,1-.26.035,1.751,1.751,0,0,1-1.109-.313A1.713,1.713,0,0,1,2421.217-107.932Z" transform="translate(-2420.91 108.653)"/></g><g transform="translate(3.277 8.829)"><path class="r" d="M2423.662-94.254a1.693,1.693,0,0,1,.963-.666,1.687,1.687,0,0,1,.3-.05,1.749,1.749,0,0,1,1.144.31,1.713,1.713,0,0,1,.44,2.389,1.731,1.731,0,0,1-2.406.4A1.713,1.713,0,0,1,2423.662-94.254Z" transform="translate(-2423.355 94.975)"/></g><g transform="translate(0 6.594)"><path class="r" d="M2415.058-100.12a1.732,1.732,0,0,1,2.407-.4,1.733,1.733,0,0,1,.632.8c.01.024.018.048.026.073s.016.049.023.073c.014.051.027.1.036.155.005.026.01.051.013.077s.007.052.01.078a1.678,1.678,0,0,1-.3,1.128,1.73,1.73,0,0,1-2.406.4A1.712,1.712,0,0,1,2415.058-100.12Z" transform="translate(-2414.751 100.842)"/></g><g transform="translate(3.982)"><path class="r" d="M2425.513-117.431a1.732,1.732,0,0,1,2.406-.405,1.714,1.714,0,0,1,.441,2.389,1.7,1.7,0,0,1-1.156.7,1.659,1.659,0,0,1-.31.017,1.751,1.751,0,0,1-.94-.315A1.712,1.712,0,0,1,2425.513-117.431Z" transform="translate(-2425.206 118.152)"/></g></g><g transform="translate(10.745 3.409)"><path class="r" d="M2423.534-104.9a.7.7,0,0,1,.026.072c.008.024.016.049.023.073a1.452,1.452,0,0,1,.036.155c0,.026.009.051.013.077s.007.051.009.078c.131.01.476.04.971.11l.118.582a.078.078,0,0,0,.006.021,1.7,1.7,0,0,1,.3-.051c0-.009,0-.017,0-.027l-.1-.477a22.763,22.763,0,0,1,3.3.771,17.708,17.708,0,0,1,3.506,1.519,11.388,11.388,0,0,1,3.844,3.457,10.316,10.316,0,0,1,1.883,4.734c-1.456-3.825-8.15-5.936-10.54-5.442-3.038.627-5.416,3.325,3.665,3.553,5.7.145,6.618,2.662,6.787,3.718a6.273,6.273,0,0,1-.183.7,6.862,6.862,0,0,1-1.083,2.031h.575a7.21,7.21,0,0,0,.948-1.883c.027-.084.053-.169.077-.254,5.5-.41,11.93,3.248,10.838,1.327-4.4-7.736-9.812-2.7-10.77-1.588.519-2.183-.089-4.585-1.812-7.147a10.242,10.242,0,0,0-1.021-1.279,3.054,3.054,0,0,1,.239-2.637l.541.377.011.007a1.554,1.554,0,0,1,.113-.293l-.52-.361a7.82,7.82,0,0,1,.865-1.2c-.041-.024-.083-.05-.123-.079s-.092-.067-.134-.1a8.4,8.4,0,0,0-.752,1.013q-.06.1-.115.19l-.357-.249s0,0,0,0a1.094,1.094,0,0,1-.06.093,1.49,1.49,0,0,1-.121.152l.009.007.385.268a3.643,3.643,0,0,0-.444,2.35,12.432,12.432,0,0,0-1.461-1.187c-.332-.232-.687-.456-1.051-.667a17.31,17.31,0,0,0-2.3-1.1h0a9.187,9.187,0,0,1-3.11-3.945l.677-.221a1.618,1.618,0,0,1,.011-.3.15.15,0,0,0-.092,0l-.7.227a5.938,5.938,0,0,1-.291-1.445c0-.011,0-.023,0-.035a1.655,1.655,0,0,1-.31.017,6.282,6.282,0,0,0,.31,1.559l-.2.065a1.689,1.689,0,0,1,.029.314l.276-.09a9.079,9.079,0,0,0,2.545,3.536c-.149-.051-.3-.1-.451-.149a23.082,23.082,0,0,0-3.524-.809l-.157-.775a.153.153,0,0,0-.034-.07,1.642,1.642,0,0,1-.259.035.154.154,0,0,0-.009.091l.135.672c-.565-.075-.9-.1-.912-.1A.216.216,0,0,0,2423.534-104.9Z" transform="translate(-2423.534 109.203)"/></g><g transform="translate(0 15.118)"><path class="r" d="M2400.658-71.885c4.434-1.066,5.667.689,6.016,1.47a5.159,5.159,0,0,1,0,.58,5.459,5.459,0,0,1-.415,1.793l.445-.12a5.772,5.772,0,0,0,.343-1.651c0-.071.006-.142.006-.213,4.167-1.454,11.3-.67,10.054-1.929-5-5.069-9.546.659-10.056,1.713-.051-1.794-1.019-3.524-2.882-5.148a8.275,8.275,0,0,0-1.054-.778l-.457-.266a9.991,9.991,0,0,0-1.375-.615c-.3-.11-.625-.21-.951-.3a13.853,13.853,0,0,0-2-.374,9.083,9.083,0,0,1-1.423-.741c-.078.047-.155.095-.23.142a9.04,9.04,0,0,0,.924.533c-.124-.008-.252-.016-.379-.021-.468-.021-.914-.021-1.325-.009q-.3.2-.572.392a17.786,17.786,0,0,1,1.889-.017,14.178,14.178,0,0,1,3.024.449,9.131,9.131,0,0,1,3.688,1.877,8.261,8.261,0,0,1,2.438,3.27c-1.918-2.655-7.53-2.9-9.274-2.027C2394.872-72.761,2393.594-70.184,2400.658-71.885Z" transform="translate(-2395.324 78.462)"/></g></g><g transform="translate(1.953)"><g transform="translate(1.786 15.098)"><path class="r" d="M2368.981-90.956a1.922,1.922,0,0,0-2.541.945,1.9,1.9,0,0,0,.906,2.543,1.922,1.922,0,0,0,2.541-.945,1.916,1.916,0,0,0-.387-2.186,1.842,1.842,0,0,0-.272-.219A1.829,1.829,0,0,0,2368.981-90.956Z" transform="translate(-2366.256 91.131)"/></g><g transform="translate(4.433 10.412)"><path class="r" d="M2375.931-103.259a1.922,1.922,0,0,0-2.541.944,1.905,1.905,0,0,0,.8,2.487c.035.02.072.038.11.056a1.687,1.687,0,0,0,.2.079,1.924,1.924,0,0,0,2.341-1.023A1.9,1.9,0,0,0,2375.931-103.259Z" transform="translate(-2373.205 103.434)"/></g><g transform="translate(0 11.237)"><path class="r" d="M2364.292-101.094a1.923,1.923,0,0,0-2.542.945,1.9,1.9,0,0,0,.906,2.543,1.922,1.922,0,0,0,2.467-.8c.027-.046.052-.094.075-.144s.051-.115.072-.173A1.9,1.9,0,0,0,2364.292-101.094Z" transform="translate(-2361.566 101.269)"/></g><g transform="translate(6.634 4.759)"><path class="r" d="M2381.707-118.1a1.923,1.923,0,0,0-2.542.944,1.9,1.9,0,0,0,.906,2.543,1.923,1.923,0,0,0,2.541-.945,1.918,1.918,0,0,0-.025-1.693,1.824,1.824,0,0,0-.175-.281A1.861,1.861,0,0,0,2381.707-118.1Z" transform="translate(-2378.981 118.274)"/></g><g transform="translate(11.405 2.574)"><path class="r" d="M2394.232-123.836a1.922,1.922,0,0,0-2.541.945,1.922,1.922,0,0,0-.072,1.471,1.891,1.891,0,0,0,.147.318,1.873,1.873,0,0,0,.83.754,1.884,1.884,0,0,0,1.38.082,1.918,1.918,0,0,0,.269-.11,1.944,1.944,0,0,0,.893-.916A1.9,1.9,0,0,0,2394.232-123.836Z" transform="translate(-2391.507 124.011)"/></g><g transform="translate(13.408 8.104)"><path class="r" d="M2399.492-109.319a1.887,1.887,0,0,0-1.3-.106,1.885,1.885,0,0,0-.317.118,1.942,1.942,0,0,0-.927.932,1.9,1.9,0,0,0,.906,2.544,1.923,1.923,0,0,0,2.541-.945A1.9,1.9,0,0,0,2399.492-109.319Z" transform="translate(-2396.766 109.494)"/></g><g transform="translate(15.318 4.137)"><path class="r" d="M2404.507-119.734a1.923,1.923,0,0,0-2.541.945,1.924,1.924,0,0,0-.16,1.125c0,.028.009.056.016.085s.012.055.019.083a1.617,1.617,0,0,0,.051.168c.009.028.02.055.03.082s.023.054.035.08a1.865,1.865,0,0,0,.916.92,1.922,1.922,0,0,0,2.541-.945A1.9,1.9,0,0,0,2404.507-119.734Z" transform="translate(-2401.781 119.909)"/></g><g transform="translate(7.816)"><path class="r" d="M2384.81-130.594a1.922,1.922,0,0,0-2.541.945,1.9,1.9,0,0,0,.905,2.543,1.888,1.888,0,0,0,1.5.036,1.843,1.843,0,0,0,.307-.156,1.941,1.941,0,0,0,.729-.824A1.9,1.9,0,0,0,2384.81-130.594Z" transform="translate(-2382.085 130.769)"/></g></g><g transform="translate(0 3.543)"><path class="r" d="M2358.679-90.558c.634-.607,1.376-1.335,2.191-2.1a37.619,37.619,0,0,1,5.086-4.158h3.879a7.542,7.542,0,0,1-.737-.417,7.035,7.035,0,0,1-.929-.705,7,7,0,0,1-.567-.573,2.03,2.03,0,0,1-.1-.348,2.828,2.828,0,0,1,.449-1.967,5.654,5.654,0,0,1,.351-.529q.1-.13.206-.264a13.815,13.815,0,0,1,2.739-2.426q.273-.193.572-.392.37-.248.781-.5l.23-.142.042-.026c8.611-5.256,5.649-5.973,2.357-5.905-.072,0-.145,0-.216.008a9.243,9.243,0,0,0-7.257,4.968,11.123,11.123,0,0,0-.539,1.079,8.681,8.681,0,0,0-.721,4.737,11.448,11.448,0,0,1-.823-5.6,11.826,11.826,0,0,1,1.01-3.953c.049-.113.1-.226.154-.339q.274-.583.612-1.167a19.659,19.659,0,0,1,2.527-3.4c.44-.481.879-.92,1.3-1.31q.227-.212.443-.406c.367-.328.708-.614,1.008-.856l.173.513a.222.222,0,0,0,.012.028l.073-.034a1.938,1.938,0,0,1,.243-.085.138.138,0,0,0-.007-.023l-.028-.086-.182-.539c.438-.342.753-.563.874-.645-.013-.027-.024-.054-.035-.08s-.021-.054-.03-.082a1.594,1.594,0,0,1-.052-.168c-.007-.028-.013-.056-.018-.084s-.012-.056-.016-.084a.265.265,0,0,0-.072.033c-.007,0-.322.213-.824.6l-.244-.723a.174.174,0,0,0-.06-.082,1.913,1.913,0,0,1-.269.109.169.169,0,0,0,.006.086l.281.832c-.212.168-.447.359-.7.574q-.192.164-.4.345a25.063,25.063,0,0,0-1.847,1.813q-.179.2-.351.393a10.07,10.07,0,0,0,.481-4.814l.315-.066a1.951,1.951,0,0,1-.147-.318l-.23.049a6.933,6.933,0,0,0-.569-1.671,1.78,1.78,0,0,1-.308.155c.006.012.013.023.018.035a6.608,6.608,0,0,1,.525,1.551l-.8.17a.172.172,0,0,0-.088.05,1.776,1.776,0,0,1,.175.281l.776-.164a10.188,10.188,0,0,1-.8,5.521h0a19.147,19.147,0,0,0-1.6,2.332c-.205.355-.4.714-.568,1.071-.025.051-.05.1-.073.154s-.053.114-.078.171a13.824,13.824,0,0,0-.667,1.782,4.054,4.054,0,0,0-1.735-2.015l.221-.471,0-.012a1.64,1.64,0,0,1-.2-.078c-.038-.018-.074-.036-.11-.056l0,0-.2.437c-.07-.041-.142-.08-.216-.12a9.37,9.37,0,0,0-1.287-.557c-.021.058-.045.116-.072.174s-.048.1-.075.143a8.809,8.809,0,0,1,1.5.676l-.3.637a1.743,1.743,0,0,1,.271.219l.007-.013.311-.662a3.4,3.4,0,0,1,1.7,2.4,11.442,11.442,0,0,0-.27,1.8,10.884,10.884,0,0,0,1.468,6.922,7.368,7.368,0,0,0,.766.959,9.458,9.458,0,0,0-3.474-.535c-2.808.133-6.351,1.828-7.472,9.133C2356.3-88.393,2357.2-89.142,2358.679-90.558Z" transform="translate(-2356.437 121.467)"/></g></g><g transform="translate(26.793 41.349)"><path class="r" d="M2449.233.5l.014-.871a8.085,8.085,0,0,1-6.325-2.807c-5.948-6.842-3.712-24.561-2.079-37.5.656-5.2,1.222-9.686,1.082-12.276a7.5,7.5,0,0,0-2.977-6.024c-4.366-3.149-11.854-1.168-12.171-1.082l.229.841c.074-.02,7.407-1.957,11.433.949a6.678,6.678,0,0,1,2.615,5.364c.136,2.512-.426,6.965-1.077,12.121-1.653,13.1-3.918,31.042,2.286,38.177A9.026,9.026,0,0,0,2449.233.5Z" transform="translate(-2426.777 60.754)"/><g transform="translate(14.492 9.31)"><path class="r" d="M2464.823-36.314s4.1,3.139,7.225,2.588.036,3.853-4.413,2.385C2464.776-32.284,2464.823-36.314,2464.823-36.314Z" transform="translate(-2464.823 36.314)"/></g><g transform="translate(12.081 32.008)"><path class="r" d="M2458.953,23.275s2.665,4.706,5.647,5.789-1.9,3.355-5.016-.137C2457.581,26.684,2458.953,23.275,2458.953,23.275Z" transform="translate(-2458.494 -23.275)"/></g><g transform="translate(12.667 58.309)"><path class="r" d="M2463.975,92.324s-.892,5.332-3.323,7.368,2.934,2.5,4.667-1.841C2466.433,95.059,2463.975,92.324,2463.975,92.324Z" transform="translate(-2460.031 -92.324)"/></g><g transform="translate(4.53 46.605)"><path class="r" d="M2446.3,61.6s-3.443,4.172-6.568,4.723,1.287,3.633,4.964.735C2447.057,65.193,2446.3,61.6,2446.3,61.6Z" transform="translate(-2438.668 -61.598)"/></g><g transform="translate(5.517 21.182)"><path class="r" d="M2448.891-5.145s-3.443,4.173-6.568,4.723,1.286,3.633,4.963.735C2449.649-1.55,2448.891-5.145,2448.891-5.145Z" transform="translate(-2441.26 5.145)"/></g><g transform="translate(12.722 17.539)"><g transform="translate(3.778 4.98)"><path class="r" d="M2470.121.317a1.666,1.666,0,0,0,1.93,1.349A1.663,1.663,0,0,0,2473.4-.261a1.666,1.666,0,0,0-1.93-1.349A1.663,1.663,0,0,0,2470.121.317Z" transform="translate(-2470.095 1.635)"/></g><g transform="translate(3.521 1.246)"><path class="r" d="M2469.446-9.486a1.666,1.666,0,0,0,1.93,1.349,1.664,1.664,0,0,0,1.352-1.927,1.666,1.666,0,0,0-1.93-1.349A1.663,1.663,0,0,0,2469.446-9.486Z" transform="translate(-2469.421 11.438)"/></g><g transform="translate(0 4.117)"><path class="r" d="M2460.2-1.949A1.666,1.666,0,0,0,2462.133-.6a1.663,1.663,0,0,0,1.351-1.926,1.666,1.666,0,0,0-1.93-1.349A1.663,1.663,0,0,0,2460.2-1.949Z" transform="translate(-2460.177 3.901)"/></g><g transform="translate(1.018 0)"><path class="r" d="M2465.906-9.083l.55-.316L2463.4-14.71l-.55.316Z" transform="translate(-2462.848 14.71)"/></g><g transform="translate(2.536 3.267)"><path class="r" d="M2467.21-4.629l1.452-.9-.376-.606-1.452.9Z" transform="translate(-2466.834 6.133)"/></g></g><g transform="translate(2.802 31.665)"><g transform="translate(3.31)"><path class="r" d="M2442.847,24.327A1.666,1.666,0,1,0,2444.2,22.4,1.666,1.666,0,0,0,2442.847,24.327Z" transform="translate(-2442.822 -22.375)"/></g><g transform="translate(3.906 5.202)"><path class="r" d="M2444.414,37.984a1.666,1.666,0,1,0,1.352-1.927A1.666,1.666,0,0,0,2444.414,37.984Z" transform="translate(-2444.389 -36.032)"/></g><g transform="translate(0 3.155)"><path class="r" d="M2434.159,32.611a1.666,1.666,0,1,0,1.352-1.927A1.666,1.666,0,0,0,2434.159,32.611Z" transform="translate(-2434.134 -30.659)"/></g><g transform="translate(3.289 1.247)"><path class="r" d="M2443.326,29.265a6.619,6.619,0,0,0,4.535-1.575,5.17,5.17,0,0,0,1.348-1.813l-.593-.227a4.632,4.632,0,0,1-1.2,1.588,6.185,6.185,0,0,1-4.611,1.379l-.037.633C2442.959,29.259,2443.145,29.265,2443.326,29.265Z" transform="translate(-2442.768 -25.649)"/></g><g transform="translate(4.948 3.298)"><rect class="r" width="0.635" height="1.927" transform="translate(0 0.006) rotate(-0.529)"/></g></g><g transform="translate(18.866 55.589)"><g transform="translate(0.254)"><path class="r" d="M2480.281,86.558a1.666,1.666,0,1,1-1.93-1.349A1.664,1.664,0,0,1,2480.281,86.558Z" transform="translate(-2476.973 -85.184)"/></g><g transform="translate(0 6.317)"><path class="r" d="M2479.614,103.141a1.666,1.666,0,1,1-1.93-1.349A1.663,1.663,0,0,1,2479.614,103.141Z" transform="translate(-2476.307 -101.767)"/></g><g transform="translate(2.969 3.06)"><path class="r" d="M2487.409,94.592a1.666,1.666,0,1,1-1.93-1.349A1.663,1.663,0,0,1,2487.409,94.592Z" transform="translate(-2484.103 -93.218)"/></g><g transform="translate(1.062 3.021)"><rect class="r" width="3.307" height="0.635" transform="matrix(0.117, -0.993, 0.993, 0.117, 0, 3.285)"/></g></g></g></g></g><path class="j" d="M2218.713,209.7v-3.881l-176.271,148.77v56.687h3.888v-2.721l14.725-12.428h78.754L2125.8,407.954v3.881l18.613-15.709h6.8V390.39l9.849-8.313h7.147v-6.032l9.5-8.019h7.023V362.1l9.623-8.123h7.632v-6.439l9.016-7.61h7.237v-6.108l.479-.4v-3.881l-4.65,3.925h-78.754l8.982-7.582h74.422v-6.469h-66.756l8.981-7.58h57.775v-6.469H2168.6l8.983-7.582h41.127v-6.469H2185.25l9.719-8.2h23.744v-6.469h-16.08l16.08-13.572v-3.881l-20.678,17.453h-6.385v5.388l-6.924,5.844V238.386ZM2055.992,389.658v6.469h.464l-10.127,8.547V355.188l64.963-54.827v47.146h-4.525v6.159l-9.351,7.892h-7.9v6.469h.238l-8.982,7.582h-7.78v6.469h.115l-8.981,7.58Zm91.481,0H2068.72l8.982-7.58h78.753Zm16.647-14.049h-78.754l8.982-7.582H2173.1Zm25.628-21.631-8.981,7.581h-78.754l8.981-7.581h78.754Zm16.649-14.05-8.983,7.58h-78.754l8.983-7.58Zm-25.56-48.619h-6.785v5.57L2164,305.359H2156.8v6.082l-9.44,7.967h-7.084v5.979l-9.564,8.072h-7.689v6.469h.025l-7.866,6.638V297.081l65.659-55.414Z" transform="translate(-1182.082 -62.687)"/><g transform="translate(950.906 121.387)"><g transform="translate(8.883 94.516)"><g transform="translate(0 2.604)"><path class="s" d="M2315.023,562.644h-7.492c-.5-.578-1.551-2.018-2.448-3.091l-.405,3.091h-1.2l.1-5.186,0-.284c0-.032.007-.065.013-.1.208-1.459,1.937-3.587,2.16-3.856l.023-.029a.146.146,0,0,1,.033.006.464.464,0,0,1,.112.05c.243.14.775.645,1.483,2.442.615,1.562,1.543,3.282,2.368,3.651a4.484,4.484,0,0,0,1.983.164l.077-.008h.006c.144-.016.246-.031.283-.037l.016,0s3.043,1.32,3.038,1.781C2315.165,561.536,2315.077,562.293,2315.023,562.644Z" transform="translate(-2303.474 -496.247)"/><path class="t" d="M2322.717,403.7c-.672,2.944-1.529,7.249-2.314,10.451l-.322,1.306c-.639,2.584-1.249,5-1.747,6.922-.107.3-7.507,27.587-7.046,36.085a26.183,26.183,0,0,0,2.526,8.446l-.016,0-.283.037h-.006l-.077.008a4.486,4.486,0,0,1-1.983-.165c-.825-.369-1.753-2.089-2.368-3.651-.708-1.8-1.24-2.3-1.483-2.442a.449.449,0,0,0-.112-.05.139.139,0,0,0-.033-.006l-.024.029c.115-.256.231-.507.342-.747.572-1.232-2.17-24.408-1.462-29.781.65-4.94,2.541-9.691,4.142-14.688.028-.088.056-.175.084-.263.021-.067.052-.455.089-1.043.155-2.507.418-8.636.506-8.922Z" transform="translate(-2305.156 -403.697)"/></g><g transform="translate(22.936)"><path class="s" d="M2375.238,528.192h-7.492c-.5-.578-1.551-2.018-2.448-3.091l-.405,3.091h-1.2l.1-5.187,0-.284c0-.032.007-.065.012-.1.208-1.459,1.937-3.587,2.16-3.856l.024-.029a.143.143,0,0,1,.033.006.444.444,0,0,1,.112.05c.243.14.775.645,1.483,2.442.614,1.562,1.542,3.282,2.368,3.651a4.483,4.483,0,0,0,1.983.165l.076-.008h.006c.144-.016.246-.031.283-.037l.015,0s3.043,1.32,3.038,1.781C2375.38,527.084,2375.292,527.841,2375.238,528.192Z" transform="translate(-2363.689 -472.315)"/><path class="t" d="M2367.986,442.569c-.11.238-.226.49-.341.747l.024-.029a.172.172,0,0,1,.033,0,.469.469,0,0,1,.112.051c.242.14.775.644,1.482,2.442.614,1.561,1.543,3.282,2.367,3.651a4.48,4.48,0,0,0,1.983.164l.077-.007h.006l.284-.037.015,0a26.15,26.15,0,0,1-2.526-8.445c-.46-8.5,6.939-35.79,7.046-36.085.5-1.924,1.605-4.29,1.747-6.923a3.188,3.188,0,0,0-.37-1.237v0l-10.385,1.353c.491.45.787.8.771.964-.481,5.168-3.139,8.662-3.789,13.6C2365.815,418.161,2368.558,441.337,2367.986,442.569Z" transform="translate(-2365.371 -396.862)"/></g></g><path class="s" d="M2342.892,287.106l-10.385,1.353-21.268,2.774s-4.534-12.379-4.654-22.742c.3-5.7,1.63-8.336,4.411-15.589.378-.99.785-2.067,1.218-3.25.315-.855.644-1.766.989-2.739,1.051-2.977-2.668-14.547-2.668-14.547v0a10.359,10.359,0,0,0,1.751-5.056,52.371,52.371,0,0,0-.347-7.307l14.505-.433c.759,1.915,2.986,9.779,3.835,13.036.121.465.214.836.271,1.083.549,2.379-1.649,4.556-2.068,4.981-1.3,1.326-2.323,7.983-2.535,10.632-.011.145,2.217,3.787,5.152,9.352,3.874,7.342,8.978,18.031,11.792,28.449Z" transform="translate(-2296.517 -192.585)"/><g transform="translate(5.839 27.41)"><path class="t" d="M2360.983,274.016c-.138-.653.05-4.892.323-9.7a7.99,7.99,0,0,1-1.353,2.057c-1.306,1.326-2.324,7.982-2.536,10.632-.011.145,2.217,3.787,5.151,9.351C2361.832,280.359,2361.143,274.768,2360.983,274.016Z" transform="translate(-2333.824 -247.697)"/><g transform="translate(8.658 9.209)"><path class="i" d="M2333.413,266.243h-12.8l3.207-18.158h12.8Z" transform="translate(-2319.698 -246.859)"/><path class="j" d="M2331.009,263.024h-12.8l3.207-18.158h12.8Z" transform="translate(-2318.21 -244.866)"/></g><path class="t" d="M2319.5,240.18s.263.293.033,2.017c-.165,1.231-2.214,3.777-4.235,4.347-1.356.382-20.115,3-19.817-2.486.04-.73,2.705-23.8,9.58-23.363,2.555.161.746,7.044.563,7.909a11.891,11.891,0,0,1-1.966,4.454s-2.2,9.282-2.247,9.454,12.6,1.417,12.6,1.417,1.519-2.275,2.035-2.447,1.817-.4,1.817-.4a.9.9,0,0,1-.5.744c-.459.172-1.319.973-1.146,1.145S2318.948,241.167,2319.5,240.18Z" transform="translate(-2295.481 -220.69)"/></g><g transform="translate(0 0)"><path class="t" d="M2335.258,177.659a24.151,24.151,0,0,1-3.211.131h0l-.192,2.808-.23,3.384.148.269,3.377,1.327-14.505.434c1.888-.682,3.478-1.426,3.853-2.242a33.036,33.036,0,0,0,.543-5.937,7.815,7.815,0,0,0,2.344-3.616c.269-1.276-1.283-4.215.15-4.7s2.265,1.9,2.265,1.9,1.1-5.154,3.51-6.356c1.437-.718,2.294-.322,2.757.13a17.073,17.073,0,0,1,1.043,4.982C2337.2,172.009,2335.854,177.5,2335.258,177.659Z" transform="translate(-2305.219 -158.596)"/><path class="u" d="M2345.811,194.967l-.192,2.81a7.434,7.434,0,0,1-2.742-5.364S2344.134,194.678,2345.811,194.967Z" transform="translate(-2318.985 -175.774)"/><path class="v" d="M2311,155.326c-.464-.453-1.32-.849-2.757-.131-2.408,1.2-3.511,6.357-3.511,6.357s-.831-2.382-2.265-1.9.119,3.422-.15,4.7a7.811,7.811,0,0,1-2.344,3.618c-.057-.054-.115-.108-.171-.164v0q-.364-.353-.686-.72c-3.256-3.706-3.374-8.311-1.925-10.464.428-.635.8-1.171,1.136-1.62,0,0-3.077-.633-3.881,1.881s3.236,8.185-.009,12.981c-1.679,2.482-2.935,4.619-.705,10.866,3,8.415-9.8,9.108-9.8,9.108s2.286-4.609-1.463-7.541c-3.347-2.618-2.984-8.972.589-11.218,2.695-1.695,6.75-5.12,4.435-10.147s1.844-11.59,6.713-12.149a5.517,5.517,0,0,1,6.079,3.924c.6-.162,6.365-2.384,9.73.985A4.983,4.983,0,0,1,2311,155.326Z" transform="translate(-2280.153 -148.731)"/></g></g><g transform="translate(451.442 34.648)"><g transform="translate(0 0)"><path class="a" d="M992.461-78.986A23.535,23.535,0,0,0,968.914-55.52a23.534,23.534,0,0,0,23.547,23.466,23.533,23.533,0,0,0,23.547-23.466A23.533,23.533,0,0,0,992.461-78.986Zm1.3,44.305v-5.965h-2.6v5.965A20.944,20.944,0,0,1,971.55-54.226h5.986v-2.587H971.55a20.943,20.943,0,0,1,19.614-19.545v5.964h2.6v-5.964a20.942,20.942,0,0,1,19.613,19.545h-5.985v2.587h5.985A20.943,20.943,0,0,1,993.76-34.681Z" transform="translate(-968.914 78.986)"/><path class="a" d="M1037.648-11.3l-1.036,1.059-8.012-7.785v9.1h-1.483v-9.709a1.85,1.85,0,0,1-1.251-1.746,1.853,1.853,0,0,1,1.854-1.848,1.852,1.852,0,0,1,1.854,1.848,1.831,1.831,0,0,1-.275.966Z" transform="translate(-1004.172 43.85)"/></g></g><g transform="translate(341.688 14.735)"><path class="j" d="M731,23.184H681.674a.894.894,0,0,1-.475-1.652L705.558,6.3V-86.743h1.555V6.3l24.361,15.231A.894.894,0,0,1,731,23.184Z" transform="translate(-680.776 103.701)"/><path class="j" d="M1205.483-21.334h-49.325a.894.894,0,0,1-.475-1.652l24.361-15.229v-93.046h1.555v93.046l24.36,15.229A.894.894,0,0,1,1205.483-21.334Z" transform="translate(-974.525 131.262)"/></g><g transform="translate(598.033 0.517)"><rect class="w" width="78.085" height="102.248"/><path class="x" d="M1431.844-168.589v.2l-78.085,77.859v-23.385l54.831-54.672Z" transform="translate(-1353.759 168.589)"/><path class="x" d="M1431.844-129.774v10.94L1355.1-42.311h-1.34v-9.6Z" transform="translate(-1353.759 144.559)"/><g transform="translate(0.368 113.193)"><path class="g" d="M1358.483,132.179l1.089.345a2.432,2.432,0,0,1-.833,1.349,2.628,2.628,0,0,1-3.3-.314,2.884,2.884,0,0,1-.714-2.065,3.029,3.029,0,0,1,.718-2.152,2.464,2.464,0,0,1,1.887-.766,2.317,2.317,0,0,1,1.659.6,2.184,2.184,0,0,1,.569,1.022l-1.112.265a1.149,1.149,0,0,0-1.173-.931,1.266,1.266,0,0,0-1,.443,2.166,2.166,0,0,0-.386,1.434,2.321,2.321,0,0,0,.38,1.5,1.234,1.234,0,0,0,.987.447,1.129,1.129,0,0,0,.77-.284A1.647,1.647,0,0,0,1358.483,132.179Z" transform="translate(-1354.725 -128.576)"/><path class="g" d="M1369.386,131.479a3.515,3.515,0,0,1,.255-1.423,2.619,2.619,0,0,1,.518-.761,2.165,2.165,0,0,1,.719-.5,3.064,3.064,0,0,1,1.2-.219,2.618,2.618,0,0,1,1.969.761,3.394,3.394,0,0,1,.006,4.219,2.6,2.6,0,0,1-1.959.759,2.625,2.625,0,0,1-1.974-.755A2.862,2.862,0,0,1,1369.386,131.479Zm1.158-.038a2.075,2.075,0,0,0,.437,1.429,1.5,1.5,0,0,0,2.212,0,2.118,2.118,0,0,0,.43-1.448A2.084,2.084,0,0,0,1373.2,130a1.558,1.558,0,0,0-2.234.006A2.094,2.094,0,0,0,1370.544,131.442Z" transform="translate(-1363.801 -128.576)"/><path class="g" d="M1385.89,134.373v-5.549h1.094l2.277,3.706v-3.706h1.044v5.549h-1.127l-2.244-3.619v3.619Z" transform="translate(-1374.019 -128.73)"/><path class="g" d="M1400.621,134.373v-5.549h3.815v.939h-2.692v1.313h2.323v.939h-2.323v2.358Z" transform="translate(-1383.139 -128.73)"/><path class="g" d="M1413.069,134.373v-5.549h4.126v.939h-3v1.23h2.794v.935h-2.794v1.51h3.109v.935Z" transform="translate(-1390.845 -128.73)"/><path class="g" d="M1426.693,134.373v-5.549h2.365a4.058,4.058,0,0,1,1.3.15,1.278,1.278,0,0,1,.647.532,1.6,1.6,0,0,1,.243.875,1.477,1.477,0,0,1-.368,1.031,1.77,1.77,0,0,1-1.1.513,2.645,2.645,0,0,1,.6.465,6.378,6.378,0,0,1,.639.9l.68,1.083h-1.344l-.812-1.207a7.84,7.84,0,0,0-.592-.816.858.858,0,0,0-.338-.231,1.862,1.862,0,0,0-.566-.062h-.228v2.317Zm1.124-3.2h.832a4.317,4.317,0,0,0,1.01-.068.607.607,0,0,0,.315-.235.722.722,0,0,0,.114-.416.664.664,0,0,0-.15-.452.691.691,0,0,0-.424-.218q-.137-.019-.82-.019h-.877Z" transform="translate(-1399.28 -128.73)"/><path class="g" d="M1441.423,134.373v-5.549h4.127v.939h-3v1.23h2.794v.935h-2.794v1.51h3.109v.935Z" transform="translate(-1408.399 -128.73)"/><path class="g" d="M1455.067,134.373v-5.549h1.093l2.278,3.706v-3.706h1.044v5.549h-1.128l-2.243-3.619v3.619Z" transform="translate(-1416.846 -128.73)"/><path class="g" d="M1473.018,132.179l1.09.345a2.437,2.437,0,0,1-.833,1.349,2.628,2.628,0,0,1-3.3-.314,2.885,2.885,0,0,1-.714-2.065,3.029,3.029,0,0,1,.717-2.152,2.465,2.465,0,0,1,1.887-.766,2.317,2.317,0,0,1,1.659.6,2.188,2.188,0,0,1,.569,1.022l-1.112.265a1.149,1.149,0,0,0-1.173-.931,1.267,1.267,0,0,0-1,.443,2.166,2.166,0,0,0-.386,1.434,2.322,2.322,0,0,0,.38,1.5,1.234,1.234,0,0,0,.987.447,1.13,1.13,0,0,0,.771-.284A1.649,1.649,0,0,0,1473.018,132.179Z" transform="translate(-1425.632 -128.576)"/><path class="g" d="M1484.518,134.373v-5.549h4.127v.939h-3v1.23h2.794v.935h-2.794v1.51h3.109v.935Z" transform="translate(-1435.079 -128.73)"/><path class="g" d="M1503.813,134.373v-5.549h1.124v2.184h2.2v-2.184h1.124v5.549h-1.124v-2.426h-2.2v2.426Z" transform="translate(-1447.024 -128.73)"/><path class="g" d="M1522.643,134.373h-1.222l-.486-1.261h-2.224l-.459,1.261h-1.192l2.168-5.549h1.188Zm-2.069-2.2-.767-2.059-.752,2.059Z" transform="translate(-1455.224 -128.73)"/><path class="g" d="M1533.364,134.447v-5.5h1.124v4.569h2.794v.935Z" transform="translate(-1465.319 -128.803)"/><path class="g" d="M1545.832,134.447v-5.5h1.124v4.569h2.794v.935Z" transform="translate(-1473.037 -128.803)"/></g></g><g transform="translate(721.913 113.854)"><g transform="translate(0 14.78)"><path class="a" d="M1799.686,167.756V385.811h-12.667V178.605h-95.374V385.811h-12.667V167.756Z" transform="translate(-1678.979 -167.756)"/><rect class="y" width="95.374" height="207.205" transform="translate(12.667 10.849)"/><rect class="a" width="81.589" height="207.205" transform="translate(26.452 10.849)"/><rect class="i" width="2.794" height="206.771" transform="translate(64.452 10.849)"/><rect class="z" width="2.794" height="217.879" transform="translate(120.708 0)"/><path class="y" d="M1830.011,196.238h-81.589V289.7l81.589-74.321Z" transform="translate(-1721.97 -185.389)"/><g transform="translate(3.586 96.941)"><path class="r" d="M1689.9,422.256l-1.508,3.995h3.157Z" transform="translate(-1688.393 -422.256)"/><path class="r" d="M1689.9,442.565l-1.508-3.995h3.157Z" transform="translate(-1688.393 -432.356)"/></g></g><g transform="translate(47.346 0)"><rect class="z" width="1.931" height="12.259" transform="translate(26.88)"/><rect class="a" width="26.88" height="12.259"/><g transform="translate(6.691 2.014)"><rect class="r" width="13.586" height="8.23"/><g transform="translate(4.062 1.245)"><path class="g" d="M1831.5,143.251v-.768l1.487-2.774a1,1,0,0,0,.129-.364c.011-.1.016-.233.016-.388,0-.069,0-.142,0-.22a.527.527,0,0,0-.045-.2.383.383,0,0,0-.121-.148.389.389,0,0,0-.234-.06.41.41,0,0,0-.3.1.4.4,0,0,0-.109.3v.464h-.824v-.448a1.2,1.2,0,0,1,.1-.48,1.241,1.241,0,0,1,.267-.392,1.212,1.212,0,0,1,.388-.267,1.186,1.186,0,0,1,.485-.1,1.222,1.222,0,0,1,.553.116,1.107,1.107,0,0,1,.384.316,1.36,1.36,0,0,1,.214.456,2.079,2.079,0,0,1,.069.544c0,.139,0,.255-.008.348a2.146,2.146,0,0,1-.032.268,1.2,1.2,0,0,1-.081.256c-.038.085-.089.189-.154.312l-1.212,2.31h1.487v.816Z" transform="translate(-1831.505 -137.511)"/><path class="g" d="M1839.4,143.251v-.768l1.487-2.774a1,1,0,0,0,.129-.364q.016-.156.016-.388c0-.069,0-.142,0-.22a.534.534,0,0,0-.044-.2.383.383,0,0,0-.121-.148.389.389,0,0,0-.234-.06.41.41,0,0,0-.3.1.4.4,0,0,0-.109.3v.464h-.824v-.448a1.2,1.2,0,0,1,.1-.48,1.242,1.242,0,0,1,.267-.392,1.213,1.213,0,0,1,.388-.267,1.186,1.186,0,0,1,.485-.1,1.224,1.224,0,0,1,.553.116,1.107,1.107,0,0,1,.384.316,1.366,1.366,0,0,1,.214.456,2.089,2.089,0,0,1,.069.544c0,.139,0,.255-.008.348a2.037,2.037,0,0,1-.032.268,1.175,1.175,0,0,1-.081.256c-.038.085-.089.189-.154.312l-1.212,2.31h1.487v.816Z" transform="translate(-1836.391 -137.511)"/></g><path class="p" d="M1828.788,142.474h-1.816l-4.759-8.23h1.816Z" transform="translate(-1821.69 -134.244)"/><path class="p" d="M1845.963,134.243v8.23h-1.729l-4.759-8.23Z" transform="translate(-1832.376 -134.243)"/></g></g></g></g></g></g><g transform="translate(351.739 37.166)"><g transform="translate(1.675 1.673)"><path class="aa" d="M1146.954,168.79v85.567a9.282,9.282,0,0,1-9.289,9.274H992.629a9.282,9.282,0,0,1-9.29-9.274V168.79a9.282,9.282,0,0,1,9.29-9.274h145.036A9.282,9.282,0,0,1,1146.954,168.79Z" transform="translate(-983.34 -159.516)"/></g><path class="a" d="M1135.229,262.7H990.194a10.791,10.791,0,0,1-10.788-10.771V166.359a10.792,10.792,0,0,1,10.788-10.771h145.035a10.791,10.791,0,0,1,10.788,10.771v85.567A10.791,10.791,0,0,1,1135.229,262.7ZM990.194,158.58a7.793,7.793,0,0,0-7.791,7.778v85.567a7.793,7.793,0,0,0,7.791,7.778h145.035a7.793,7.793,0,0,0,7.791-7.778V166.359a7.793,7.793,0,0,0-7.791-7.778Z" transform="translate(-979.229 -155.411)"/><path class="ab" d="M1134.942,262.586H989.907a10.968,10.968,0,0,1-10.965-10.947V166.071a10.968,10.968,0,0,1,10.965-10.947h145.036a10.968,10.968,0,0,1,10.964,10.947v85.567A10.968,10.968,0,0,1,1134.942,262.586ZM989.907,155.477A10.615,10.615,0,0,0,979.3,166.071v85.567a10.615,10.615,0,0,0,10.611,10.594h145.036a10.614,10.614,0,0,0,10.611-10.594V166.071a10.615,10.615,0,0,0-10.611-10.594Zm145.036,104.116H989.907a7.971,7.971,0,0,1-7.968-7.955V166.071a7.971,7.971,0,0,1,7.968-7.955h145.036a7.97,7.97,0,0,1,7.968,7.955v85.567A7.97,7.97,0,0,1,1134.942,259.593ZM989.907,158.47a7.616,7.616,0,0,0-7.614,7.6v85.567a7.616,7.616,0,0,0,7.614,7.6h145.036a7.616,7.616,0,0,0,7.615-7.6V166.071a7.616,7.616,0,0,0-7.615-7.6Z" transform="translate(-978.942 -155.124)"/><g transform="translate(51.238 74.071)"><path class="q" d="M1137.834,361.75c0,.189,0,.378-.013.565,0,.02,0,.04,0,.06a12.188,12.188,0,1,1-12.285-12.794h.112a12.147,12.147,0,0,1,7.041,2.235l.2.145a12.252,12.252,0,0,1,2.445,2.4l.007.009A12.1,12.1,0,0,1,1137.834,361.75Z" transform="translate(-1113.457 -349.581)"/><g transform="translate(12.077)"><path class="r" d="M1152.516,351.962l-7.258,9.86-.1-12.24h.112A12.143,12.143,0,0,1,1152.516,351.962Z" transform="translate(-1145.162 -349.581)"/></g><g transform="translate(12.173 2.235)"><path class="g" d="M1155.124,358.006l-9.71,7.448,7.057-10.006.2.146a12.247,12.247,0,0,1,2.445,2.4Z" transform="translate(-1145.414 -355.449)"/></g><g transform="translate(12.173 4.784)"><path class="g" d="M1157.619,369.525c0,.189,0,.378-.013.565,0,.02,0,.04,0,.06l-12.189-.554,9.7-7.457A12.1,12.1,0,0,1,1157.619,369.525Z" transform="translate(-1145.414 -362.14)"/></g><g transform="translate(6.459 12.241)"><path class="i" d="M1148.319,382.211c0,.02,0,.04,0,.06a12.2,12.2,0,0,1-17.9,10.118l5.714-10.671Z" transform="translate(-1130.414 -381.717)"/></g></g><g transform="translate(109.119 29.897)"><g transform="translate(6.951 1.306)"><g transform="translate(0 18.154)"><rect class="g" width="3.297" height="5.986"/></g><g transform="translate(5.395 11.172)"><rect class="g" width="3.297" height="12.968"/></g><g transform="translate(10.69 9.177)"><rect class="g" width="3.297" height="14.963"/></g><g transform="translate(21.38 2.694)"><rect class="g" width="3.297" height="21.446"/></g><g transform="translate(15.985)"><rect class="g" width="3.297" height="24.14"/></g></g><g transform="translate(2.161 1.124)"><path class="q" d="M1305.049,265.027h-33.963V236.563h1v27.466h32.964Z" transform="translate(-1271.086 -236.563)"/></g><path class="q" d="M1270.079,237.026l-2.007-2-1.954,1.952-.707-.705,2.661-2.657,2.714,2.709Z" transform="translate(-1265.411 -233.612)"/><g transform="translate(34.093 26.327)"><path class="q" d="M1355.675,308.094l-.706-.705,1.954-1.952-2.007-2,.706-.705,2.714,2.709Z" transform="translate(-1354.916 -302.728)"/></g></g><g transform="translate(20.6 29.116)"><g transform="translate(0 7.929)"><rect class="a" width="27.717" height="38.915"/><g transform="translate(5.197 8.648)"><rect class="g" width="17.323" height="2.594"/></g><g transform="translate(5.197 14.269)"><rect class="g" width="17.323" height="2.594"/></g><g transform="translate(5.197 19.746)"><rect class="g" width="17.323" height="2.594"/></g><g transform="translate(5.197 25.078)"><rect class="g" width="17.323" height="2.594"/></g><g transform="translate(12.631 2.305)"><path class="q" d="M1068.639,259.655a1.228,1.228,0,1,1-1.228-1.226A1.227,1.227,0,0,1,1068.639,259.655Z" transform="translate(-1066.184 -258.429)"/></g></g><g transform="translate(20.306)"><rect class="g" width="27.717" height="38.915"/><g transform="translate(5.197 8.648)"><rect class="ac" width="17.323" height="2.594"/></g><g transform="translate(5.197 14.269)"><rect class="ac" width="17.323" height="2.594"/></g><g transform="translate(5.197 19.746)"><rect class="ac" width="17.323" height="2.594"/></g><g transform="translate(5.197 25.078)"><rect class="ac" width="17.323" height="2.594"/></g><g transform="translate(12.631 2.305)"><path class="q" d="M1121.949,238.839a1.228,1.228,0,1,1-1.228-1.226A1.227,1.227,0,0,1,1121.949,238.839Z" transform="translate(-1119.494 -237.613)"/></g></g><g transform="translate(53.509)"><rect class="q" width="11.26" height="11.242"/></g><g transform="translate(53.509 15.133)"><rect class="q" width="11.26" height="11.242"/></g></g><g transform="translate(36.757 107.051)"><rect class="a" width="4.829" height="135.249"/><rect class="a" width="4.829" height="135.249" transform="translate(88.622)"/></g></g><g transform="translate(133.461 173.635)"><path class="g" d="M471.817,569.928v.491a4.1,4.1,0,0,1-4.107,4.1H444.358l0,41.9h9.807a16.935,16.935,0,0,1,9.792,2.929,11.748,11.748,0,0,1,2.7,2.632,3.279,3.279,0,1,1-4.081,2.049c-1.723-1.874-4.886-3.158-8.41-3.158H426.2c-3.533,0-6.7,1.289-8.43,3.168a3.234,3.234,0,0,1,.178,1.065,3.279,3.279,0,0,1-5.761,2.138,3.39,3.39,0,0,1-.247-.324v0a3.238,3.238,0,0,1-.55-1.812,3.277,3.277,0,0,1,2.309-3.127v0a11.772,11.772,0,0,1,2.692-2.622,16.969,16.969,0,0,1,9.808-2.933h9.783l0-41.9H414.847a4.1,4.1,0,0,1-4.107-4.1v-.491a4.1,4.1,0,0,1,4.107-4.1h13.606V543.186h-9.614A12.53,12.53,0,0,1,406.6,531.958l-.653-7.334A10.113,10.113,0,0,1,416.188,513.4h25.189a12.531,12.531,0,0,1,12.242,11.227l.653,7.334a10.113,10.113,0,0,1-10.245,11.227h-8.039v22.642h31.721A4.1,4.1,0,0,1,471.817,569.928Z" transform="translate(-405.898 -513.397)"/><path class="ad" d="M453.292,539.937a10.559,10.559,0,0,0,.97-5.54l-.653-7.334a12.532,12.532,0,0,0-12.244-11.226H416.177a10.244,10.244,0,0,0-7.625,3.253,10.1,10.1,0,0,1,9.278-5.693h25.189a12.531,12.531,0,0,1,12.242,11.227l.653,7.334A10.286,10.286,0,0,1,453.292,539.937Z" transform="translate(-407.541 -513.398)"/><path class="ad" d="M556.224,655.146v.491a4.1,4.1,0,0,1-4.107,4.1h-8.68a4.074,4.074,0,0,1-1.2-.177,4.1,4.1,0,0,0,2.909-3.923v-.491a4.1,4.1,0,0,0-2.909-3.923,4.074,4.074,0,0,1,1.2-.177h8.68A4.1,4.1,0,0,1,556.224,655.146Z" transform="translate(-490.306 -598.614)"/><rect class="ad" width="7.536" height="2.064" transform="translate(22.554 29.789)"/><rect class="ad" width="8.368" height="2.064" transform="translate(30.09 61.074)"/></g><ellipse class="h" cx="39.932" cy="2.73" rx="39.932" ry="2.73" transform="translate(0 287.074)"/><g transform="translate(75.99 192.38)"><path class="a" d="M379.3,566.969h75.417v-4.36h-199.7v4.36Z" transform="translate(-255.021 -562.609)"/></g><path class="ae" d="M1242.293,795.889c0,1.384-13.055,2.506-29.159,2.506s-29.159-1.122-29.159-2.506,13.055-2.506,29.159-2.506S1242.293,794.5,1242.293,795.889Z" transform="translate(-754.137 -513.099)"/><g transform="translate(217.985 177.556)"><path class="g" d="M691.143,578.013v.472a3.943,3.943,0,0,1-3.946,3.94H664.756v40.263h9.424a16.277,16.277,0,0,1,9.41,2.814,11.268,11.268,0,0,1,2.592,2.529,3.144,3.144,0,0,1,1.68,4.743,2.931,2.931,0,0,1-.224.295,3.151,3.151,0,0,1-5.552-2.036,3.074,3.074,0,0,1,.176-1.033,11.186,11.186,0,0,0-8.082-3.035H647.314a11.211,11.211,0,0,0-8.1,3.044,3.151,3.151,0,0,1-5.367,3.078,3.245,3.245,0,0,1-.237-.312v0a3.143,3.143,0,0,1,1.693-4.746v0a11.27,11.27,0,0,1,2.587-2.519,16.305,16.305,0,0,1,9.425-2.819h9.4V582.424H636.4a3.942,3.942,0,0,1-3.946-3.94v-.472a3.941,3.941,0,0,1,3.946-3.94h13.075V552.315h-9.239a12.041,12.041,0,0,1-11.764-10.789l-.627-7.047a9.719,9.719,0,0,1,9.845-10.789h24.205a12.041,12.041,0,0,1,11.764,10.789l.628,7.047a9.718,9.718,0,0,1-9.845,10.789h-7.724v21.758H687.2A3.942,3.942,0,0,1,691.143,578.013Z" transform="translate(-627.799 -523.69)"/><path class="ad" d="M673.345,549.194a10.144,10.144,0,0,0,.932-5.323l-.627-7.047a12.043,12.043,0,0,0-11.766-10.788h-24.2a9.843,9.843,0,0,0-7.327,3.126,9.709,9.709,0,0,1,8.915-5.471h24.205a12.041,12.041,0,0,1,11.764,10.789l.627,7.047A9.884,9.884,0,0,1,673.345,549.194Z" transform="translate(-629.38 -523.691)"/><path class="ad" d="M772.256,659.9v.472a3.943,3.943,0,0,1-3.946,3.94h-8.341a3.913,3.913,0,0,1-1.151-.17,3.941,3.941,0,0,0,2.8-3.769V659.9a3.939,3.939,0,0,0-2.8-3.769,3.913,3.913,0,0,1,1.151-.17h8.341A3.942,3.942,0,0,1,772.256,659.9Z" transform="translate(-708.912 -605.579)"/><rect class="ad" width="7.242" height="1.983" transform="translate(21.674 28.626)"/><rect class="ad" width="8.041" height="1.983" transform="translate(28.916 58.689)"/></g><path class="h" d="M1498.642,801.049c0,1.339-14.239,2.424-31.8,2.424s-31.8-1.085-31.8-2.424,14.239-2.424,31.8-2.424S1498.642,799.71,1498.642,801.049Z" transform="translate(-909.566 -516.344)"/><g transform="translate(0 164.072)"><path class="ad" d="M55.572,500.606l.7,8.044a13.707,13.707,0,0,0,13.388,12.315h3.965a13.7,13.7,0,0,1-13.386-12.315l-.7-8.044A11.1,11.1,0,0,1,70.77,488.291H66.8A11.1,11.1,0,0,0,55.572,500.606Z" transform="translate(-55.524 -488.291)"/><path class="g" d="M65.983,500.606l.7,8.043a13.705,13.705,0,0,0,13.387,12.315h6.583V545.8h-14.9a4.493,4.493,0,0,0-4.5,4.5v.539a4.5,4.5,0,0,0,4.5,4.5H94.906v45.956H84.2a18.553,18.553,0,0,0-10.739,3.216,12.88,12.88,0,0,0-2.947,2.877h0a3.592,3.592,0,0,0-1.928,5.418v0a3.591,3.591,0,0,0,6.385-3.157c1.891-2.061,5.362-3.474,9.229-3.474H114.8c3.858,0,7.321,1.409,9.207,3.462a3.547,3.547,0,0,0-.2,1.18,3.59,3.59,0,1,0,4.666-3.427,12.862,12.862,0,0,0-2.954-2.886,18.509,18.509,0,0,0-10.72-3.212H104.068V555.333h25.568a4.5,4.5,0,0,0,4.5-4.5V550.3a4.5,4.5,0,0,0-4.5-4.5H94.906V520.964h8.779a11.1,11.1,0,0,0,11.233-12.315l-.7-8.043a13.7,13.7,0,0,0-13.387-12.314H77.215A11.1,11.1,0,0,0,65.983,500.606Z" transform="translate(-61.97 -488.292)"/><path class="ad" d="M220.086,643.764v.538a4.5,4.5,0,0,1-4.5,4.5h-9.5a4.444,4.444,0,0,1-1.311-.195,4.5,4.5,0,0,0,3.185-4.3v-.538a4.5,4.5,0,0,0-3.185-4.3,4.456,4.456,0,0,1,1.311-.195h9.5A4.5,4.5,0,0,1,220.086,643.764Z" transform="translate(-147.925 -581.759)"/><rect class="ad" width="8.251" height="2.264" transform="translate(24.686 32.673)"/><rect class="ad" width="9.162" height="2.264" transform="translate(32.936 66.988)"/></g></g></g></g></g><g transform="translate(48.361 417.912)"><path class="af" d="M154.9,692.162c5.5.159,7.077,2.512,10.364,7.536s14.587,24.131,14.587,24.131l15.971,6.531-2.139,9.93s-13.51-2.863-20.445-4.371a5.693,5.693,0,0,1-2.517-1.032,6.153,6.153,0,0,1-1.824-2.116c-.889-1.432-9.766-16.3-9.766-16.3Z" transform="translate(-106.799 -642.924)"/><path class="ag" d="M530.527,689.96c5.2-1.382,7.494,1.675,9.224,5.091,2.768,5.409,4.435,16.461,4.671,36.657.149,12.987,4.4,28.686,5.151,41.028,1.148,18.487,1.683,32.864,1.683,32.864a209.061,209.061,0,0,0-31.014-1.943Z" transform="translate(-486.646 -640.563)"/><path class="ah" d="M345.406,1510.06s-3.145-22.733-1.816-36.054c1.117-11.429,2.7-16.21,2.917-18.814,0,0,1.809-26.794,1.313-49.56-.228-10.776.283-22.658,7.486-35.36l.259-.5c.637,4.187,6.668,6.866,12.047,7.536q7.769.922,19.344-3.274c1.722,10.777,3.672,31.315,5.67,53.7.967,10.944.786,20.154.975,27.187.228,9.545-.59,46.939-.59,46.939v1.583c.055,1.742.448,2.955,1.573,5.719a34.083,34.083,0,0,0,5.913,9.679c.786.837,6.079,5.451,6.794,6.456,2.3,2.679-2.241,4.387-5.67,4.027-3.617-.385-9.247-1.675-10.907-3.927-1.109-1.515-2.068-6.933-3.2-8.473-3.83-5.183-5.4-7.419-5.5-9.11-.142-3.073.786-4.321,1.109-6.062-.4-3.609-7.289-22.5-7.745-33.04a119.838,119.838,0,0,1,.786-13.933l-5.953-36.665c-1.345,10.3-3.932,33.492-4.82,40.9-1.282,10.173-6,27.38-8.972,40.894a75.381,75.381,0,0,0-1.942,10.658l-.071,1.189c0,1.5-.142,17.517-.6,20.933-.944,7.092-6.849,6.414-7.974.745-.952-4.822-.417-19.869-.448-21.719Z" transform="translate(-331.485 -1272.328)"/><path class="ai" d="M1126.721,3340.46c-1.659.092-.354,6.89-.645,11.312-.315,4.731-1.659,8.231-1.95,12.108a16.535,16.535,0,0,0,1.691,9.854c1.242,2.789,7.179,6.456,9.263,2.336a24.146,24.146,0,0,0,2.021-13.145c-.4-4.539-.786-7.855-.959-11.313-.165-3.047,1.817-10.281-.354-10.642l-.063,1.189c-.724,1.674-8.052,3.065-9.027-.067Z" transform="translate(-1112.972 -3102.829)"/><path class="aj" d="M652.211,3360.821c-.44,2.219.275,8.247.275,8.247a7.769,7.769,0,0,0,4.2,3.349l1.172-8.456Z" transform="translate(-602.055 -3121.741)"/><path d="M543.077,3400.378l6.967-2.712,1.486-6.716-7.777,4.546Z" transform="translate(-488.446 -3149.728)"/><path class="ai" d="M330.1,3224.717v-1.583c.967.461,3.326,8.591,6.354,14.117,2.752,5.024,8,7.72,9.735,9.9,2.359,2.914-1.9,6.925-8.925,5.576-3.484-.661-8.807-2.838-10.3-5.275s-2.123-6.991-3.342-8.783-4.05-3.793-4.718-5.861a12.162,12.162,0,0,1-.165-5.752c.488-1.917.9-4.186,1.51-4.035l.086,1.44c.5,1,2.217,2.119,5.748,2.194C327.772,3226.693,329.384,3226.366,330.1,3224.717Z" transform="translate(-268.753 -2993.734)"/><path class="ak" d="M554.031,1472.169a82.772,82.772,0,0,1,.59-17.282l-5.08-36s-3.46,34.329-4.042,39.621-9.861,62.663-9.861,62.663c-4.718,3-10.844,2.043-14.807-.193,0-23.193.676-46.436,1.462-52.859a116.639,116.639,0,0,1,2.823-12.995s.5-33.835.48-46.679.88-21.435,3.145-27.213a84.025,84.025,0,0,1,6.291-12.049s1.761,6.338,15.727,6.355,15.507-3.76,15.507-3.76,4.089,15.214,5.449,38.189c1.1,18.513,1.352,26.936,1.683,35.167.283,7.033.456,15.155.605,29.364.118,10.717,1.573,34.329,1.573,34.329s-6.818,3.8-18.086-.536C557.538,1508.256,554.73,1481.412,554.031,1472.169Z" transform="translate(-511.006 -1271.78)"/><path class="ai" d="M709.271,1711.636l2.76-21.769a17.1,17.1,0,0,0,10.687-5.476s-1.573,5.275-8.115,8.239l-3.7,19.115,2.681,30.646Z" transform="translate(-670.737 -1564.567)"/><path class="al" d="M609.377,715.7l-6.574.745c-4.372,1.139-6.338,3.19-6.786,7.31a34.254,34.254,0,0,0,.228,13.4c1.384,5.794,5.064,19.987,5.064,19.987s-4.774,12.768-7.03,19.258c15.515,10.777,34.67,6.523,41.1,0-.543-6.17-2.595-11.906-3.051-17.407,0,0,.338-8.591.975-12.317,4.907-5.7,4.286-11.161,2.076-15.565-4.065-8.122-10.223-15.264-12.188-15.255Z" transform="translate(-577.376 -664.789)"/><path class="am" d="M609.377,715.7l-6.574.745c-4.372,1.139-6.338,3.19-6.786,7.31a34.254,34.254,0,0,0,.228,13.4c1.384,5.794,5.064,19.987,5.064,19.987s-4.774,12.768-7.03,19.258c15.515,10.777,34.67,6.523,41.1,0-.543-6.17-2.595-11.906-3.051-17.407,0,0,.338-8.591.975-12.317,4.907-5.7,4.286-11.161,2.076-15.565-4.065-8.122-10.223-15.264-12.188-15.255Z" transform="translate(-577.376 -664.789)"/><path class="an" d="M662.434,646.494c1.95,0,2.17.352,3.853,2.738,1,1.424,7.305,12.5,7.305,12.5s-5.025-7.025-8.807-9.152a8.085,8.085,0,0,0-2.359-1Z" transform="translate(-618.482 -600.504)"/><path class="ao" d="M933.153,715.638s5.418,15.172,6.652,25.47-3,41.4-3.656,59.842c-.48,13.4-1.675,32.755-1.675,32.755a42.184,42.184,0,0,1-11.536-.386c-6.37-1.281-8.343-2.395-11.984-4.924,0,0,3.145-33.718,4.719-46.821,1.454-12.334,7.682-24.5,7.682-24.5l-7.486-33s.37-5.56,5.292-7.117C925.824,715.479,933.153,715.638,933.153,715.638Z" transform="translate(-901.522 -664.725)"/><path class="ap" d="M1112.655,833.785s1.014-3.927,2.414-10.634,1.18-10.592.7-13.522l-8.139,12.677,4.8,22.071a87.432,87.432,0,0,0-7.163,21.075h0c4.9-14.762,10.27-19.191,10.27-19.191Z" transform="translate(-1090.611 -752.034)"/><path class="ah" d="M1257.476,1769.746c-1.046-2.119-1.03-3.642-2.658-5.56a6.239,6.239,0,0,1-1.415-2.814,21.234,21.234,0,0,1-.386-5.182l-9.326.151c-.07,3.3-.487,8.038.095,11.554,1.486,8.9,3.146,12.694,6.652,13.733,5.606,1.674,7.116-.838,5.324-5.343a22.829,22.829,0,0,1-1.573-5.861,10.777,10.777,0,0,0,2.028,2.119,1.921,1.921,0,0,0,1.385.475,1.949,1.949,0,0,0,1.32-.651C1259.2,1772.015,1258.285,1771.4,1257.476,1769.746Z" transform="translate(-1242.681 -1631.26)"/><path class="aq" d="M1133.127,721.6s-6.023-.4-9.554,2.671-5.717,11.664-8.3,20.254-4.907,16.947-5.756,22.967c-.716,5.024.213,31.675.213,31.675a19.526,19.526,0,0,0,10.781-2.026l2.484-28.418,10.1-29.18a29.56,29.56,0,0,0,.039-17.943Z" transform="translate(-1109.242 -670.249)"/><path class="al" d="M38.107,1010.66,8.225,1021.888,0,1059.751l.668.753,28.411-11.3,9.7-37.8Z" transform="translate(60.591 -938.765)"/><path class="ar" d="M456.161,1169.254l-8.225,37.862-.668-.753,8.225-37.863Z" transform="translate(-386.675 -1085.376)"/><path class="as" d="M38.106,1021.26,8.225,1032.488,0,1070.351l28.411-11.3Z" transform="translate(61.26 -948.61)"/><g class="at" transform="translate(85.228 102.649)"><path d="M115.23,1443.081c.275.737,2.564,2.378,5.882,2.085l.558-2.185Z" transform="translate(-115.23 -1442.98)"/></g><g class="au" transform="translate(76.428 78.782)"><path d="M144.837,1109.1l.244-1.273c.134-.7-1.62-.335-3.932.837l-5.394,1.741c-2.3,1.155-4.474,2.018-4.608,2.713l-.252,1.273Z" transform="translate(-130.895 -1107.47)"/></g><path class="ai" d="M123.446,1042.888c.087-.444-.59-.352-1.573-.083l-1.722.627s.708-1.842-3.366-.67c-4.482,1.3-4.577,3.676-4.577,3.676a18.789,18.789,0,0,1-2.155.837c-1.486.52-1.651.837-1.777,1.273l-.22.837,15.255-5.719S123.36,1043.323,123.446,1042.888Z" transform="translate(-31.307 -968.221)"/><path class="ai" d="M137.565,1063.666c-1.415.678-2,1.013-2.21,2.093-.236,1.231-.291,1.75-.291,1.75l-7.934,3.349s.432-1.817.535-2.428-.944-.611-2.312.067l.322-1.515,12.338-4.882Z" transform="translate(-47.022 -986.545)"/><path class="ai" d="M138.238,1110.031l.244-1.264c.134-.7-1.62-.335-3.932.837l-5.394,1.733c-2.3,1.155-4.474,2.018-4.608,2.721l-.244,1.273Z" transform="translate(-47.427 -1029.561)"/><path class="ah" d="M28.163,1193.7s-1.062,4.187-1.337,5.208-5.174,3.449-7.628,3.777c-4.718.627-5.213,1.674-4.089,5.249,1.038,3.266,4.089,4.5,8.32,3.969A7.5,7.5,0,0,0,27,1210.034a8.222,8.222,0,0,0,2.214-3.524c1.376-4.186.637-8.632,1.18-11.077S29.351,1192.251,28.163,1193.7Z" transform="translate(67.884 -1108.097)"/><path class="ak" d="M1107.333,181.026l4.183,3.659a2.76,2.76,0,0,0,.507-.954,2.873,2.873,0,0,0-.192-2.138,2.843,2.843,0,0,0-2.633-1.512,2.727,2.727,0,0,0-1.865.946Z" transform="translate(-1086.758 -167.264)"/><path class="aj" d="M614.221,46.542c0-2.8-6.142-7.008-9.31-12.92s-1.573-15.6,2.752-17.089c0,0,.086-8.825,11.268-11.17S633.62.39,635.6.014s2.359,7.125-.244,9.093a15.327,15.327,0,0,0,5.032-3.433c1.628-1.675,2.273,7.05-1.242,10.115,0,0,2.909,1.817,2.556,6.405a7.952,7.952,0,0,1-1.654,4.559,7.145,7.145,0,0,1-3.906,2.567Z" transform="translate(-582.669)"/><path class="ah" d="M677.73,189.575c2.7,1.248,5.261,5.635,5.221,17.918,0,10.408-3.027,13.045-4.545,13.815s-4.466.385-7.344-.092V227.2s2.147,2.252,1.4,3.676-3.554,2.612-7.863,1.164c-4.915-1.675-6.039-5.133-6.039-5.133l-.094-13.1s-1.659,1.85-4.561-.837c-2.406-2.236-3.272-6.079-1.462-8.189s4.12-2.277,6.2.084l1.51-.837c2.666-.335,6.621-.837,9.483-2.361C677.03,197.6,677.816,193.226,677.73,189.575Z" transform="translate(-627.109 -176.089)"/><path class="ak" d="M975.494,379.9v5.786a2.418,2.418,0,0,0,1.023-.187,2.548,2.548,0,0,0,.869-.605,2.74,2.74,0,0,0,.571-.923,2.876,2.876,0,0,0,.179-1.089,3.1,3.1,0,0,0-.766-2.048,2.739,2.739,0,0,0-1.876-.932Z" transform="translate(-943.943 -352.873)"/><path class="aj" d="M685.508,373.213a1.48,1.48,0,0,0,.073.543,1.416,1.416,0,0,0,.264.471,1.323,1.323,0,0,0,.414.327,1.249,1.249,0,0,0,.5.132,1.28,1.28,0,0,0,.767-.189,1.4,1.4,0,0,0,.536-.613,1.514,1.514,0,0,0,.122-.828,1.474,1.474,0,0,0-.333-.759,1.332,1.332,0,0,0-.675-.43,1.267,1.267,0,0,0-.785.046,1.356,1.356,0,0,0-.627.506,1.493,1.493,0,0,0-.254.793Z" transform="translate(-634.627 -345.375)"/><path class="aj" d="M837.347,380.506a1.59,1.59,0,0,0,.075.585,1.521,1.521,0,0,0,.281.509,1.418,1.418,0,0,0,.444.354,1.337,1.337,0,0,0,.537.144,1.376,1.376,0,0,0,.826-.2,1.506,1.506,0,0,0,.581-.657,1.628,1.628,0,0,0,.136-.89,1.587,1.587,0,0,0-.355-.819,1.434,1.434,0,0,0-.725-.467,1.363,1.363,0,0,0-.846.045,1.46,1.46,0,0,0-.677.542,1.607,1.607,0,0,0-.276.852Z" transform="translate(-796.816 -352.057)"/><path class="av" d="M786.446,519.729l4.183,1.39a2.337,2.337,0,0,1-.358.836,2.184,2.184,0,0,1-.639.616,2.047,2.047,0,0,1-.817.3,2.008,2.008,0,0,1-.86-.073,2.459,2.459,0,0,1-1.314-1.22A2.712,2.712,0,0,1,786.446,519.729Z" transform="translate(-743.799 -482.757)"/><path class="aj" d="M675.948,320.26l-3.35-1.415a1.883,1.883,0,0,1,.366-.66,1.746,1.746,0,0,1,.586-.445,1.641,1.641,0,0,1,1.408.008,1.95,1.95,0,0,1,.959,1.049,2.123,2.123,0,0,1,.032,1.463Z" transform="translate(-621.631 -294.993)"/><path class="av" d="M711.437,375.427l-.165,8.532,4.3-1.021Z" transform="translate(-663.726 -348.72)"/><path class="av" d="M839.613,569.613c-3.028-.377-9.271-2.227-10.285-4.923a7.13,7.13,0,0,0,2.233,3.425c1.887,1.725,8.06,3.517,8.06,3.517Z" transform="translate(-795.661 -524.52)"/><path class="an" d="M912.519,646.576c-.786-.167-1.5.193-2.147,1.365s-2.069,3.634-2.069,3.634-.731,8.172,0,10.2c.638,1.767,7.651,8.373,7.651,8.373s-1.832,7.343-1.9,9.746,4.349,11.555,4.844,16.235c0,0,1.384-14.711.739-19.995-1.132-9.21-5.182-21.041-7.077-24.8Z" transform="translate(-881.109 -600.545)"/><g transform="translate(122.893)"><path class="aw" d="M824.459,1184.984a1.29,1.29,0,0,0-1.316.83c-.221-.123-.371-.362-.609-.406s-.53.239-.68.495a5.511,5.511,0,0,0,.883,6.42.956.956,0,0,0,.344.247.992.992,0,0,0,.486,0,11.807,11.807,0,0,0,2.5-.759,2.847,2.847,0,0,0,1.81-1.766,3.143,3.143,0,0,0-.336-1.837,4.861,4.861,0,0,0-1.342-2.058C825.749,1185.8,825.025,1185.046,824.459,1184.984Z" transform="translate(-745.581 -1075.86)"/><path class="ax" d="M634.33,571.453c5.44-8.911,5.193-10.6,2.552-14.924-1.439-2.358-8.045-10.041-15.18-17.75-7.868-8.487-11.48-9.317-15.9-9.714l3.285,18.7,13.141,15.967s-5.731,14.129-6.676,18.086c-1.36,5.651.442,12.5,5.193,15.419s5.855,3.223,9.184,2.022,4.177-1.66,4.327-2.844c.389-2.976.795-3.4-1.183-4.8-1.13-.8-2.1-1.616-2.7-1.951a.517.517,0,0,0-.205-.055.528.528,0,0,0-.21.031.52.52,0,0,0-.18.113.528.528,0,0,0-.12.175c-.724,1.766,1.881,3.824,1.881,3.824a13.941,13.941,0,0,0-3.223,1.589c-.883-2.95-.424-4.76-1.236-6.253-.521-.945-1.466-2.534-.883-3.461C627.407,583.649,630.939,577.017,634.33,571.453Z" transform="translate(-550.021 -480.346)"/><path class="ay" d="M779.82,905.667c2.588,1.766,6.111,1.342,7.763.715a7.825,7.825,0,0,1-8.2.3" transform="translate(-707.617 -822.269)"/><path class="aj" d="M591.037,515.35c6.394.062,8.831.883,15.189,7.948,3.4,3.744,16.655,18.74,18.254,21.857s1.642,4.99-1.06,9.873c-2.844,5.122-4.769,8.116-4.769,8.116s-3.373-2.764-13.247-3.2l3.073-8.46L594.4,538.046Z" transform="translate(-536.611 -467.895)"/><path d="M775.758,907.489c1.589,1.81,7.065,1.607,9.22.883-2.649,2.473-7.7,2.287-9.714.4Z" transform="translate(-703.873 -823.923)"/><path class="aj" d="M14.439,2479.78a10.916,10.916,0,0,0-6.182,3.532C6.014,2486.2.989,2494.794,0,2495.739a7.232,7.232,0,0,0,2.243,2.349l2.649-3.03c.662-.547.945-1.147.883.636s-.291,3.621-.247,6.27c0,2.1-.4,6.084,3.206,10.12,3.373,3.771,6.994,5.572,9.511,5.935,1.5.2,4.142-.141,3.974-3.135-.088-1.581-.812-6.791-1.069-9.714S14.439,2479.78,14.439,2479.78Z" transform="translate(0 -2251.43)"/><path class="ax" d="M114.5,1845.131a14.534,14.534,0,0,0,5.528,11.9c2.835,2.358,4.945,1.845,4.963-.883,0-4.328-.539-12.276,4.416-20.391,1.7-2.773,6.447-8.3,12.363-15.11v.15c5.466-6.358,11.736-13.7,17.441-20.92l.212-.265.141-.177c5.917-7.463,11.215-14.853,14.324-20.965l.45-.883a.279.279,0,0,1,0-.089c1.563-3.214,2.411-5.97,2.27-8.045l-13.953.256-10.6-7.065a102.69,102.69,0,0,1-7.418,16.681c-2.649,4.911-11.154,14.536-16.267,27.589a168.142,168.142,0,0,1-7.948,17.98c-.777,1.254-2.358,3.938-2.861,4.575C114.684,1833.209,113.88,1835.867,114.5,1845.131Z" transform="translate(-103.777 -1600.328)"/><path class="aw" d="M521.429,1837.311l24.241-.451a6.5,6.5,0,0,1,0,.831v.327a2.111,2.111,0,0,1-.062.574,2.555,2.555,0,0,0-.08.433c-.026.141-.062.344-.1.521s-.088.353-.132.53-.08.309-.133.477a.889.889,0,0,1-.044.142c-.1.062-6.129,4.194-17.468,6.128,0,0-.362,18.095-3.356,25.39-1.113,1.368-2.243,2.729-3.365,4.088C520.4,1865.473,521.429,1837.311,521.429,1837.311Z" transform="translate(-472.823 -1667.713)"/><path class="aj" d="M309.116,2690.1a12.085,12.085,0,0,0-3.3,6.8c-.336,3.912.133,14.624-.177,16.063a6.669,6.669,0,0,0,3.153.813l.6-4.3c.265-.884.168-1.59,1.113,0s1.766,3.444,3.206,5.811c1.174,1.881,2.967,5.74,8.186,7.278,4.884,1.439,8.9.953,11.207-.195,1.378-.689,3.4-2.552,1.634-5.158-.936-1.378-4.363-5.67-6.182-8.142S309.116,2690.1,309.116,2690.1Z" transform="translate(-277.492 -2442.383)"/><path class="ax" d="M283.364,1906.246c-.247-10.235,9.387-57.04,6.791-79.029l-27.482-.327a119.325,119.325,0,0,1,2.844,19.428c.45,5.979-1.475,19.667,1.325,34.442a196.108,196.108,0,0,1,3.1,20.9c.035,1.581.168,4.936.1,5.811-.442,5.051.327,7.948,5.881,15.948,1.069,1.546,3.647,6.544,11.1,7.524,3.665.477,5.157-1.227,3.7-3.682C288.4,1923.334,283.6,1916.482,283.364,1906.246Z" transform="translate(-238.485 -1658.661)"/><path class="aw" d="M288.507,2037.78c.053,2.331-.079,4.645-.212,6.959s-.212,4.645-.274,6.967a110.011,110.011,0,0,0,.486,13.962c.247,2.323.627,4.619,1.051,6.906l1.263,6.826c.415,2.278.795,4.566,1.157,6.853s.724,4.574.945,6.888a134.312,134.312,0,0,0-1.572-13.838c-.671-4.61-1.722-9.122-2.137-13.724-.274-2.287-.415-4.6-.53-6.915s-.124-4.654-.177-6.95,0-4.636.079-6.959A59.319,59.319,0,0,0,288.507,2037.78Z" transform="translate(-261.458 -1850.132)"/><path class="aw" d="M290.553,1839.457a87.27,87.27,0,0,0-.4-12.24l-27.482-.327a87.783,87.783,0,0,1,1.766,9.237S275,1841.453,290.553,1839.457Z" transform="translate(-238.485 -1658.661)"/><path class="ak" d="M225.83,1049.194q-.936-13.908-2.979-27.584c-1.1-6.964-2.122-12.968-2.847-18.337-7.957,7.781-27.875,8.52-37.026-.273a166.273,166.273,0,0,0-9.681,24.77c-3.139,10.894-4.42,17.714-4.288,31.254.133,12.4,3.908,48.826,7.347,64.389,9.292,7.561,41.888,5.823,51.118-7.716C227.474,1115.7,226.926,1062.033,225.83,1049.194Z" transform="translate(-153.438 -910.64)"/><path class="aj" d="M105.592,187.286c-.821-1.183-1.192-3.621-.3-4.751a5.758,5.758,0,0,1,3.347-2,3.029,3.029,0,0,0,2.482-3.471c.071-2.649.83-4.124,2.225-5.157,3.762-2.746,13.838-3.082,13.565,3.656,0,1.007-.371,2.1.168,2.95a2.992,2.992,0,0,0,.954.883,24.6,24.6,0,0,1,5,3.806c1.4,1.581,2.261,3.824,1.572,5.811s-2.534,3.2-2.861,5.149c-.442,2.649,2.252,5.3,1.519,7.877-.592,2.093-2.278,2.552-4.115,2.817-2.12.318-2.835,2.932-5.3,2.764a13.246,13.246,0,0,0-3.153.415,8.972,8.972,0,0,1-3.877,0,4.9,4.9,0,0,1-3.082-2.234c-.583-1.042-.689-2.358-1.5-3.241s-1.669-1.166-2.4-1.872a4.415,4.415,0,0,1-1.537-2.649,2.764,2.764,0,0,1,.636-2.243,1.872,1.872,0,0,0-1.3,1.7,5.368,5.368,0,0,0,.4,2.225,4.751,4.751,0,0,1-1.978-6.862c.477-.733,1.175-1.413,1.175-2.278C107.164,189.167,106.387,188.443,105.592,187.286Z" transform="translate(-95.128 -154.402)"/><path class="az" d="M237.737,162.99c-3.753,2.075-3.435,9.361,1.236,12.461S243.38,159.448,237.737,162.99Z" transform="translate(-213.514 -147.582)"/><path class="aj" d="M299.176,9.368c-.733-4.857-6.235-5.034-7.692-4.857a6.941,6.941,0,0,1-3.1-.512,6.941,6.941,0,0,1-2.558-1.828A6.977,6.977,0,0,0,279.068.21c-3.9,1.042-2.994,2.649-6.3,3.815-2.941,1.016-5.131.062-7.807,2.649a7.63,7.63,0,0,0-1.952,6.455c-2.014,1.254-4.663,8.681-.477,16.779,2.155,4.168,4.716,6.1,7.948,9.546h3.082c.989-2.649,3.612-2.146,6.014-2.764,1.528-.7,2.384-2.42,3.912-3.117s3.382-.2,5.06-.512c1.3-.23,2.649-1.016,3.974-.689,3.1,1.236,7.745-1.484,7.365-5.051-.124-1.077-.724-2.119-.521-3.188.265-1.4,1.766-2.19,2.534-3.373a3.727,3.727,0,0,0-.247-4.469C299.4,13.872,299.6,12.132,299.176,9.368Z" transform="translate(-236.344)"/><path class="ax" d="M303.966,153.933l-1.607-.185c-1.369-.159-1.263-1.722-1.4-3.064l-.141-2.093a9.291,9.291,0,0,0,6.835-2.225c2.817-2.49,4.292-7.418,3.974-12.7-.212-3.532-1.13-5.148-1.086-5.934.265-4.707-.115-5.546-1.227-7.948-2-3.859-6.977-5.228-9.078-1.051-6.182-4.733-12.9,1.607-12.584,8.831.883,5.979-.963,6.3-2.128,6.341-1.766-3.718-5.617-3.63-7.224-1.2-1.457,2.19-1.387,5.555,1.475,8.593s5.864,1.016,5.89.415c0,0,.521,8.063.6,9.714s-.088,2.552-2.084,3.232l-2.87.971s.159.2.477.548c.724.83,2.331,2.649,5.034,5.82,6.835,2.5,15.013,5.987,19.835,8.831a87.917,87.917,0,0,0,3.011-10.6A38.252,38.252,0,0,0,303.966,153.933Z" transform="translate(-251.819 -105.479)"/><path class="az" d="M322.69,361.492a1.422,1.422,0,1,0-1.422-1.422A1.422,1.422,0,0,0,322.69,361.492Z" transform="translate(-291.685 -325.622)"/><path class="ba" d="M489.343,357.593l4.583,1.183a2.331,2.331,0,0,1-2.835,1.766,2.49,2.49,0,0,1-1.749-2.95Z" transform="translate(-444.226 -324.664)"/><path class="aw" d="M490.128,368.656a2.649,2.649,0,0,1,2.72,1.881,2.3,2.3,0,0,1-1.316.062,2.438,2.438,0,0,1-1.766-1.881A2.342,2.342,0,0,1,490.128,368.656Z" transform="translate(-444.666 -334.703)"/><path class="aj" d="M586.226,192.225l-3.532-.883a1.766,1.766,0,0,1,2.172-1.36,1.907,1.907,0,0,1,1.36,2.243Z" transform="translate(-529.037 -172.437)"/><path class="aj" d="M435.4,203.069l3.365-1.51a1.766,1.766,0,0,0-2.4-.936,1.925,1.925,0,0,0-.963,2.446Z" transform="translate(-395.187 -181.991)"/><path class="aj" d="M576.267,241.688a1.519,1.519,0,0,0,1.457,1.537,1.439,1.439,0,0,0,1.519-1.4,1.528,1.528,0,0,0-1.457-1.545,1.439,1.439,0,0,0-1.519,1.4Z" transform="translate(-523.202 -218.156)"/><path class="aj" d="M459.366,247.187a1.563,1.563,0,0,0,1.528,1.572,1.475,1.475,0,0,0,1.554-1.431,1.563,1.563,0,0,0-1.554-1.572,1.457,1.457,0,0,0-1.528,1.431Z" transform="translate(-417.065 -223.124)"/><path class="aw" d="M403.8,418.58c-5.793-.256-11.41-1.537-13.008-4.981a5.926,5.926,0,0,0,3.532,4.733,20.867,20.867,0,0,0,9.608,1.934Z" transform="translate(-354.81 -375.513)"/><path class="aw" d="M525.445,232.166l-5.2,2.243-1.227-9.926Z" transform="translate(-471.223 -203.812)"/><path class="bb" d="M263.486,523.406s2.561,5.352.813,8.584c-8.646-.989-15.949-5.007-18.9-7.718l-7.268,1.157s-4.76,9.078-3.285,16.779,7.665,25.38,7.665,25.38c8.231,11.948,36.207,5.634,36.984.185,0,0,.83-6.773,1.519-12.363,0,0,3.921-3.762,4.115-8.831.2-5.3-1.978-8.99-7.312-14.447a65.347,65.347,0,0,0-10.12-8.575Z" transform="translate(-212.965 -475.209)"/><path class="bc" d="M263.486,523.406s2.561,5.352.813,8.584c-8.646-.989-15.949-5.007-18.9-7.718l-7.268,1.157s-4.76,9.078-3.285,16.779,7.665,25.38,7.665,25.38c8.231,11.948,36.207,5.634,36.984.185,0,0,.83-6.773,1.519-12.363,0,0,3.921-3.762,4.115-8.831.2-5.3-1.978-8.99-7.312-14.447a65.347,65.347,0,0,0-10.12-8.575Z" transform="translate(-212.965 -475.209)"/><path class="bd" d="M378.7,859.059a11.127,11.127,0,0,0,9.582,7.374,11.754,11.754,0,0,0,10.8-4.7s-1.51,8.054-11.092,6.641S378.7,859.059,378.7,859.059Z" transform="translate(-343.83 -779.953)"/><path class="ai" d="M178.245,499.334s7.135,16.611,9.538,24.63,1.157,14.421.256,28.93c-.7,11.172-1.916,28.021-1.916,28.021s-21.195-.31-27.694-9.714c1.766-5.556,7.162-18.5,8.566-22.078s.715-6.667-1.554-14.862-5.9-12.673-5.793-18.731a16.9,16.9,0,0,1,5.873-11.993Z" transform="translate(-143.84 -453.354)"/><path class="ai" d="M536.949,514.295a1.237,1.237,0,0,0,.883.821s14.368,13.821,15.375,28.136,1.9,45.674,1.9,45.674,1.563-.724,4.6-4.044c-.645-6.5-2.888-32.18-2.279-35.121s7.612-9.643,1.183-19.2S541.93,514.4,541.93,514.4Z" transform="translate(-487.505 -466.937)"/><path class="aj" d="M584.745,528.493c.883.821,1.819,1.651,2.649,2.508,1.766,1.713,3.532,3.435,5.21,5.219.839.883,1.678,1.766,2.49,2.729.415.468.812.936,1.2,1.422a4.863,4.863,0,0,1,1.016,1.7,5.6,5.6,0,0,1,.115,1.978,11.6,11.6,0,0,1-.353,1.863,23.773,23.773,0,0,1-1.175,3.312,15.012,15.012,0,0,1,2.42,3.974,3.12,3.12,0,0,1,.15.645,3.246,3.246,0,0,1,0,.662,7.826,7.826,0,0,1-.168,1.21c-.133.795-.291,1.572-.459,2.358-.671,3.117-1.475,6.182-2.34,9.264.618-3.126,1.245-6.243,1.766-9.37.141-.786.265-1.563.371-2.349,0-.388.1-.777.115-1.157a2.191,2.191,0,0,0-.124-1.042,15.134,15.134,0,0,0-2.49-3.886l-.15-.185.1-.23a21.8,21.8,0,0,0,1.174-3.4,11.22,11.22,0,0,0,.318-1.766,4.457,4.457,0,0,0-.071-1.687,4,4,0,0,0-.883-1.431c-.371-.477-.76-.945-1.157-1.4-.786-.927-1.616-1.837-2.437-2.747-1.651-1.81-3.312-3.612-5.016-5.378s-3.373-3.532-5.184-5.219A31.974,31.974,0,0,1,584.745,528.493Z" transform="translate(-528.254 -477.646)"/><path class="aj" d="M339.3,547.053v-5.846c.053-5.2.106-10.394.291-15.6.221,5.2.327,10.4.424,15.613v6.341a1.346,1.346,0,0,0,.053.371,2,2,0,0,0,.4.7,8.982,8.982,0,0,0,3.091,2,26.487,26.487,0,0,0,3.612,1.263l.424.115-.15.406a42.86,42.86,0,0,0-1.634,4.813c-.106.406-.2.821-.274,1.219a3.116,3.116,0,0,0,0,1.13v.106l.071.15,1.042,2.04c.759,1.537,1.537,3.064,2.27,4.61l2.226,4.636-2.517-4.486c-.883-1.492-1.643-3-2.464-4.513l-.609-1.13-.309-.565-.23-.424-.062-.2a3.33,3.33,0,0,1,0-1.413,10.1,10.1,0,0,1,.256-1.289,42.464,42.464,0,0,1,1.457-4.539,25.732,25.732,0,0,1-3.347-1.139,9.2,9.2,0,0,1-3.391-2.234,2.791,2.791,0,0,1-.539-1,2.279,2.279,0,0,1-.071-.6Z" transform="translate(-308.054 -477.211)"/><path class="aj" d="M24.989,545.367c-6.932,1.21-9.714,5.449-12.734,14.448-4.168,12.266-7.824,24.409-8.61,30.591L20,585.928l8.752-17.609S32.028,554.136,24.989,545.367Z" transform="translate(-3.31 -495.147)"/><path class="az" d="M193.535,795.933l-35.377-5.44-5.387-45.365,35.386,5.44Z" transform="translate(-138.703 -676.514)"/><path class="be" d="M193.535,795.933l-35.377-5.44-5.387-45.365,35.386,5.44Z" transform="translate(-138.703 -676.514)"/><path class="ao" d="M197.538,806.659l-33.9-5.228-5.016-42.3,33.9,5.219Z" transform="translate(-144.014 -689.226)"/><path class="az" d="M187.874,781.046l-3.391-28.569-31.712-7.445,5.387,45.383,33.558,7.869a.893.893,0,0,0,.421-.009.871.871,0,0,0,.369-.2.882.882,0,0,0,.278-.769l-1.713-14.474a1.607,1.607,0,0,0-1.166-1.316Z" transform="translate(-138.703 -676.427)"/><path class="ax" d="M6.042,941.906c0,4.646.689,5.422,5.793,8.036s17.98,6.641,28.171,7.621c6.65.645,10.067.327,12.646-.689a10.676,10.676,0,0,0,6.659-11.692c1.113-3.205-.574-3.638-1.952-3.992l.247,2.1s-2.985,2.031-5.731,2.066-.194-3.18.3-5.122.389-3.056-1.2-3.974c-.883,0-1.183,1.219-3.956,3.982-2.1,2.093-3.744,5.917-7.012,5.476-2.552-.354-17.733-7.392-17.733-7.392l-.689-5.811Z" transform="translate(-5.486 -846.648)"/><path class="aj" d="M3.252,919.356c-.194,2.9.318,4.415,1.651,5.661s6.853,3.851,10.244,5.034,12.275,3.585,13.971,3.894c-1.766-2.755-1.333-8.186.168-10.6s3.471-1.845,3.471-1.845L19.7,915.629l-.945-7.948Z" transform="translate(-2.917 -824.098)"/></g></g></svg>