<svg id="Group_7930" data-name="Group 7930" xmlns="http://www.w3.org/2000/svg" width="163" height="539.404" viewBox="0 0 163 539.404">
  <path id="Path_12629" data-name="Path 12629" d="M827.5,1184.988a2.274,2.274,0,0,1,1.461.373,2.448,2.448,0,0,1,.95,1.219c.4-.237.68-.694,1.116-.779s.971.458,1.246.949a11.007,11.007,0,0,1,1.1,6.436,10.788,10.788,0,0,1-2.721,5.885,1.755,1.755,0,0,1-.631.474,1.735,1.735,0,0,1-.89,0,20.9,20.9,0,0,1-4.578-1.456,5.18,5.18,0,0,1-2.038-1.288,5.492,5.492,0,0,1-1.279-2.1,6.282,6.282,0,0,1,.615-3.526,9.383,9.383,0,0,1,2.459-3.95C825.142,1186.563,826.468,1185.107,827.5,1184.988Z" transform="translate(-809.009 -975.568)" fill="#ffbf9e"/>
  <path id="Path_12630" data-name="Path 12630" d="M613.81,610.413c-9.966-17.1-9.513-20.337-4.675-28.642,2.637-4.525,14.738-19.27,27.811-34.065,14.415-16.287,21.032-17.88,29.121-18.642l-6.018,35.9L635.975,595.6s10.5,27.116,12.231,34.71c2.491,10.846-.809,24-9.513,29.59s-10.726,6.185-16.826,3.881-7.652-3.186-7.927-5.457c-.712-5.712-1.456-6.524,2.168-9.219,2.071-1.543,3.85-3.1,4.951-3.745a.913.913,0,0,1,.376-.106.928.928,0,0,1,.385.06.948.948,0,0,1,.33.217,1.017,1.017,0,0,1,.22.336c1.327,3.39-3.446,7.339-3.446,7.339a25.092,25.092,0,0,1,5.905,3.05c1.618-5.66.777-9.135,2.265-12,.954-1.813,2.685-4.863,1.618-6.643C626.494,633.818,620.023,621.091,613.81,610.413Z" transform="translate(-605.265 -435.567)" fill="#ffd8c5"/>
  <path id="Path_12631" data-name="Path 12631" d="M793.608,905.667c-4.74,3.39-11.2,2.576-14.221,1.373a13.784,13.784,0,0,0,15.014.576" transform="translate(-762.882 -745.616)" fill="#9a4a4d"/>
  <path id="Path_12632" data-name="Path 12632" d="M654.33,515.35c-11.713.119-16.179,1.695-27.827,15.253-6.228,7.186-30.512,35.963-33.441,41.946S590.053,582.124,595,591.5c5.209,9.831,8.736,15.576,8.736,15.576s6.18-5.305,24.267-6.136l-5.63-16.236,25.788-25.795Z" transform="translate(-591.037 -424.277)" fill="#263238"/>
  <path id="Path_12633" data-name="Path 12633" d="M792.153,907.489c-2.912,3.474-12.943,3.085-16.89,1.695,4.854,4.745,14.107,4.389,17.8.763Z" transform="translate(-760.845 -747.116)"/>
  <path id="Path_12634" data-name="Path 12634" d="M14.267,2479.78s7.216,1.237,11.325,6.779,13.315,22.034,15.127,23.847a13.621,13.621,0,0,1-4.109,4.508l-4.854-5.814c-1.213-1.05-1.731-2.2-1.618,1.221s.534,6.949.453,12.033c0,4.033.728,11.675-5.873,19.421-6.18,7.237-12.813,10.693-17.424,11.39-2.75.389-7.588-.271-7.28-6.017.162-3.035,1.488-13.034,1.958-18.642S14.267,2479.78,14.267,2479.78Z" transform="translate(122.281 -2041.55)" fill="#263238"/>
  <path id="Path_12635" data-name="Path 12635" d="M228.113,1920.949c-.226,3.39.437,13.558-10.128,22.829-5.193,4.524-9.06,3.542-9.092-1.695,0-8.306.987-23.558-8.089-39.133-3.106-5.321-11.81-15.931-22.65-29v.288c-10.014-12.2-21.5-26.286-31.952-40.148l-.388-.509-.259-.34c-10.84-14.322-20.546-28.5-26.241-40.234l-.825-1.695a.56.56,0,0,0,0-.17c-2.864-6.169-4.417-11.457-4.158-15.438l25.562.491,19.414-13.558a201.9,201.9,0,0,0,13.59,32.013c4.854,9.424,20.433,27.9,29.8,52.946,7.28,19.456,13.137,32.1,14.561,34.505s4.32,7.558,5.242,8.78C227.773,1898.069,229.246,1903.171,228.113,1920.949Z" transform="translate(-84.754 -1451.144)" fill="#ffd8c5"/>
  <path id="Path_12636" data-name="Path 12636" d="M565.212,1837.726l-44.41-.866a13.107,13.107,0,0,0,0,1.594v.627a4.235,4.235,0,0,0,.113,1.1,5.114,5.114,0,0,1,.146.831c.048.27.113.661.178,1s.162.677.243,1.016.146.594.243.916a1.733,1.733,0,0,0,.081.272c.178.118,11.228,8.05,32,11.761,0,0,.663,34.726,6.148,48.726,2.039,2.626,4.109,5.236,6.164,7.846C567.105,1891.771,565.212,1837.726,565.212,1837.726Z" transform="translate(-491.258 -1512.247)" fill="#ffbf9e"/>
  <path id="Path_12637" data-name="Path 12637" d="M353.833,2690.1a23.643,23.643,0,0,1,6.051,13.049c.615,7.507-.243,28.065.324,30.827a11.782,11.782,0,0,1-5.776,1.561l-1.1-8.255c-.485-1.695-.307-3.05-2.039,0s-3.236,6.609-5.873,11.151c-2.152,3.61-5.436,11.017-15,13.967-8.947,2.762-16.308,1.829-20.53-.373-2.524-1.322-6.229-4.9-2.993-9.9,1.715-2.644,7.992-10.881,11.325-15.626S353.833,2690.1,353.833,2690.1Z" transform="translate(-248.768 -2214.702)" fill="#263238"/>
  <path id="Path_12638" data-name="Path 12638" d="M277.161,1979.184c.453-19.642-17.2-109.467-12.441-151.666l50.347-.627a239.193,239.193,0,0,0-5.209,37.285c-.825,11.475,2.7,37.742-2.427,66.1-3.98,22.032-5.614,37.082-5.679,40.114s-.307,9.474-.178,11.153c.809,9.694-.6,15.253-10.775,30.607-1.958,2.967-6.682,12.56-20.336,14.44-6.714.916-9.448-2.356-6.779-7.067C267.94,2011.976,276.724,1998.826,277.161,1979.184Z" transform="translate(-196.38 -1504.04)" fill="#ffd8c5"/>
  <path id="Path_12639" data-name="Path 12639" d="M296.065,2037.78c-.1,4.473.146,8.914.388,13.355s.388,8.914.5,13.371a221.106,221.106,0,0,1-.89,26.794c-.453,4.457-1.149,8.864-1.925,13.254l-2.314,13.1c-.76,4.372-1.456,8.762-2.119,13.151s-1.327,8.778-1.731,13.219q.781-13.347,2.88-26.557c1.229-8.847,3.155-17.506,3.915-26.337.5-4.389.76-8.829.971-13.27s.226-8.932.324-13.337,0-8.9-.146-13.355A119.241,119.241,0,0,1,296.065,2037.78Z" transform="translate(-182.619 -1677.661)" fill="#ffbf9e"/>
  <path id="Path_12640" data-name="Path 12640" d="M262.787,1851.008a175.411,175.411,0,0,1,.728-23.49l50.347-.627a175.664,175.664,0,0,0-3.236,17.727S291.277,1854.837,262.787,1851.008Z" transform="translate(-195.174 -1504.04)" fill="#ffbf9e"/>
  <path id="Path_12641" data-name="Path 12641" d="M172.013,1091.651q1.714-26.691,5.458-52.937c2.008-13.364,3.887-24.888,5.215-35.191,14.577,14.933,51.067,16.35,67.83-.523,2.8,6.745,11.127,23.594,17.735,47.536,5.75,20.906,8.1,34,7.855,59.979-.243,23.794-7.159,93.7-13.459,123.569-17.022,14.511-76.738,11.174-93.647-14.808C169,1219.277,170,1116.291,172.013,1091.651Z" transform="translate(-141.634 -825.749)" fill="#455a64"/>
  <path id="Path_12642" data-name="Path 12642" d="M158.364,203.118c1.5-2.271,2.184-6.949.55-9.118a10.473,10.473,0,0,0-6.132-3.847,5.524,5.524,0,0,1-3.582-2.35,6.029,6.029,0,0,1-.964-4.311c-.129-5.084-1.521-7.914-4.077-9.9-6.892-5.271-25.351-5.915-24.85,7.016,0,1.932.679,4.034-.307,5.661a5.59,5.59,0,0,1-1.747,1.695,45.345,45.345,0,0,0-9.157,7.3c-2.556,3.034-4.142,7.339-2.88,11.152s4.643,6.135,5.242,9.881c.809,5.084-4.125,10.169-2.783,15.117,1.084,4.017,4.174,4.9,7.539,5.406,3.883.61,5.193,5.627,9.707,5.3a23.228,23.228,0,0,1,5.776.8,15.709,15.709,0,0,0,7.1,0,8.8,8.8,0,0,0,3.237-1.546,9.255,9.255,0,0,0,2.409-2.741c1.068-2,1.262-4.525,2.75-6.22s3.058-2.237,4.4-3.593a8.568,8.568,0,0,0,2.815-5.084,5.548,5.548,0,0,0-.128-2.287,5.39,5.39,0,0,0-1.037-2.017,3.436,3.436,0,0,1,1.675,1.237,3.7,3.7,0,0,1,.7,2.017,10.737,10.737,0,0,1-.728,4.271,8.763,8.763,0,0,0,2.919-2.336,9.26,9.26,0,0,0,1.739-3.389,9.537,9.537,0,0,0,.25-3.839,9.39,9.39,0,0,0-1.284-3.6c-.874-1.407-2.152-2.712-2.152-4.372C155.484,206.728,156.908,205.338,158.364,203.118Z" transform="translate(-14.535 -140.008)" fill="#263238"/>
  <path id="Path_12643" data-name="Path 12643" d="M243.425,163.394c6.876,3.983,6.293,17.965-2.265,23.913S233.087,156.6,243.425,163.394Z" transform="translate(-124.802 -133.824)" fill="#ff725e"/>
  <path id="Path_12644" data-name="Path 12644" d="M266.463,17.978c1.343-9.321,11.422-9.66,14.091-9.321a12.2,12.2,0,0,0,5.684-.982,12.748,12.748,0,0,0,4.687-3.509,12.694,12.694,0,0,1,5.7-3.635A12.221,12.221,0,0,1,303.3.4c7.151,2,5.485,5.084,11.535,7.321,5.387,1.949,9.4.119,14.3,5.084a14.824,14.824,0,0,1,3.165,5.758,15.311,15.311,0,0,1,.41,6.631c3.689,2.407,8.542,16.66.874,32.2-3.948,8-8.639,11.711-14.561,18.321H313.38c-1.812-5.084-6.617-4.118-11.018-5.3-2.8-1.339-4.368-4.644-7.167-5.983s-6.2-.39-9.27-.983c-2.378-.441-4.853-1.949-7.28-1.322-5.679,2.373-14.188-2.847-13.493-9.694.227-2.068,1.327-4.067.955-6.118-.485-2.695-3.236-4.2-4.643-6.474a7.422,7.422,0,0,1,.453-8.576C266.059,26.621,265.687,23.282,266.463,17.978Z" transform="translate(-218.572)" fill="#263238"/>
  <path id="Path_12645" data-name="Path 12645" d="M291.464,188.635l2.944-.356c2.508-.305,2.314-3.3,2.572-5.881l.259-4.017a16.293,16.293,0,0,1-6.671-.815,16.827,16.827,0,0,1-5.851-3.455c-5.161-4.779-7.863-14.236-7.28-24.371.388-6.779,2.071-9.881,1.99-11.389-.485-9.033.21-10.643,2.249-15.253,3.673-7.406,12.781-10.033,16.631-2.017,11.325-9.084,23.637,3.085,23.054,16.948-1.618,11.474,1.763,12.084,3.9,12.169,3.236-7.135,10.289-6.966,13.234-2.3,2.669,4.2,2.54,10.66-2.7,16.49s-10.742,1.949-10.791.8c0,0-.954,15.473-1.1,18.643s.162,4.9,3.818,6.2l5.258,1.864s-.291.39-.874,1.051c-1.327,1.593-4.271,5.084-9.222,11.168-12.522,4.8-27.5,11.491-36.337,16.948a174.975,174.975,0,0,1-5.517-20.337A72.338,72.338,0,0,1,291.464,188.635Z" transform="translate(-223.997 -95.646)" fill="#ffd8c5"/>
  <path id="Path_12646" data-name="Path 12646" d="M323.873,364.105a2.732,2.732,0,1,1,2.6-2.729A2.669,2.669,0,0,1,323.873,364.105Z" transform="translate(-217.675 -295.267)" fill="#ff725e"/>
  <path id="Path_12647" data-name="Path 12647" d="M497.677,357.593l-8.4,2.271a4.585,4.585,0,0,0,.682,1.624,4.362,4.362,0,0,0,1.232,1.218,4.154,4.154,0,0,0,1.587.621,4.081,4.081,0,0,0,1.692-.074,4.6,4.6,0,0,0,2.68-2.161A4.976,4.976,0,0,0,497.677,357.593Z" transform="translate(-417.332 -294.399)" fill="#b16668"/>
  <path id="Path_12648" data-name="Path 12648" d="M494.749,368.662a4.692,4.692,0,0,0-3.1.89,5.078,5.078,0,0,0-1.888,2.719,4.025,4.025,0,0,0,2.411.119,4.429,4.429,0,0,0,2.111-1.32,4.76,4.76,0,0,0,1.125-2.29A4.111,4.111,0,0,0,494.749,368.662Z" transform="translate(-415.035 -303.501)" fill="#ffbf9e"/>
  <path id="Path_12649" data-name="Path 12649" d="M582.773,194.338l6.471-1.695a3.476,3.476,0,0,0-.511-1.257,3.31,3.31,0,0,0-.943-.944,3.143,3.143,0,0,0-1.223-.477,3.091,3.091,0,0,0-1.3.068,3.518,3.518,0,0,0-2.064,1.632A3.808,3.808,0,0,0,582.773,194.338Z" transform="translate(-524.544 -156.362)" fill="#263238"/>
  <path id="Path_12650" data-name="Path 12650" d="M441.432,205.476l-6.164-2.9a3.4,3.4,0,0,1,.726-1.147,3.223,3.223,0,0,1,1.1-.75,3.1,3.1,0,0,1,2.572.1,3.632,3.632,0,0,1,1.766,1.983A3.858,3.858,0,0,1,441.432,205.476Z" transform="translate(-352.108 -165.026)" fill="#263238"/>
  <path id="Path_12651" data-name="Path 12651" d="M581.719,242.981a2.992,2.992,0,0,1-.763,2.042,2.728,2.728,0,0,1-1.906.907,2.526,2.526,0,0,1-1.035-.157,2.62,2.62,0,0,1-.9-.566,2.766,2.766,0,0,1-.615-.887,2.871,2.871,0,0,1-.237-1.067,3.01,3.01,0,0,1,.762-2.048,2.747,2.747,0,0,1,1.907-.918,2.529,2.529,0,0,1,1.039.159,2.617,2.617,0,0,1,.9.571,2.765,2.765,0,0,1,.614.892A2.878,2.878,0,0,1,581.719,242.981Z" transform="translate(-515.935 -197.819)" fill="#263238"/>
  <path id="Path_12652" data-name="Path 12652" d="M465.012,248.5a3.076,3.076,0,0,1-.81,2.108,2.8,2.8,0,0,1-1.989.908,2.594,2.594,0,0,1-1.06-.162,2.684,2.684,0,0,1-.916-.581,2.828,2.828,0,0,1-.629-.909,2.94,2.94,0,0,1-.242-1.093,3.123,3.123,0,0,1,.212-1.149,3.019,3.019,0,0,1,.616-.977,2.861,2.861,0,0,1,.925-.656,2.753,2.753,0,0,1,1.095-.235,2.558,2.558,0,0,1,1.05.168,2.655,2.655,0,0,1,.9.584,2.8,2.8,0,0,1,.615.907A2.907,2.907,0,0,1,465.012,248.5Z" transform="translate(-379.506 -202.324)" fill="#263238"/>
  <path id="Path_12653" data-name="Path 12653" d="M391.039,423.158c10.613-.491,20.9-2.949,23.831-9.558a11.682,11.682,0,0,1-2.078,5.447,10.952,10.952,0,0,1-4.393,3.637,36.745,36.745,0,0,1-17.6,3.711Z" transform="translate(-317.796 -340.507)" fill="#ffbf9e"/>
  <path id="Path_12654" data-name="Path 12654" d="M519.016,239.227l9.529,4.3,2.249-19.049Z" transform="translate(-455.351 -184.812)" fill="#ffbf9e"/>
  <path id="Path_12655" data-name="Path 12655" d="M274.241,523.406s-4.692,10.27-1.488,16.473c15.839-1.9,29.218-9.609,34.622-14.812l13.315,2.22s8.72,17.422,6.018,32.2S312.664,608.2,312.664,608.2c-15.078,22.93-66.331,10.812-67.755.355,0,0-1.521-13-2.783-23.727,0,0-7.183-7.22-7.539-16.948-.372-10.169,3.624-17.253,13.4-27.726a121.338,121.338,0,0,1,18.54-16.456Z" transform="translate(-203.797 -430.909)" fill="#a5200d"/>
  <path id="Path_12656" data-name="Path 12656" d="M274.241,523.406s-4.692,10.27-1.488,16.473c15.839-1.9,29.218-9.609,34.622-14.812l13.315,2.22s8.72,17.422,6.018,32.2S312.664,608.2,312.664,608.2c-15.078,22.93-66.331,10.812-67.755.355,0,0-1.521-13-2.783-23.727,0,0-7.183-7.22-7.539-16.948-.372-10.169,3.624-17.253,13.4-27.726a121.338,121.338,0,0,1,18.54-16.456Z" transform="translate(-203.797 -430.909)" fill="#fff" opacity="0.7"/>
  <path id="Path_12657" data-name="Path 12657" d="M416.042,859.059a21.334,21.334,0,0,1-6.782,9.791,19.859,19.859,0,0,1-10.772,4.36,20.655,20.655,0,0,1-11.049-1.725,21.739,21.739,0,0,1-8.737-7.292s2.766,15.457,20.32,12.745S416.042,859.059,416.042,859.059Z" transform="translate(-316.931 -707.245)" fill="#a5200d" opacity="0.3"/>
  <path id="Path_12658" data-name="Path 12658" d="M178.452,499.334S165.38,531.213,160.98,546.6s-2.119,27.676-.469,55.52c1.278,21.44,3.511,53.776,3.511,53.776s38.828-.594,50.735-18.642c-3.236-10.662-13.121-35.507-15.693-42.371s-1.31-12.795,2.847-28.522,10.807-24.32,10.613-35.946S204.6,509.4,201.765,507.4Z" transform="translate(-78.483 -411.091)" fill="#37474f"/>
  <path id="Path_12659" data-name="Path 12659" d="M581.576,514.295a2.388,2.388,0,0,1-.613,1.009,2.236,2.236,0,0,1-1,.567s-26.322,26.523-28.167,54-3.478,87.653-3.478,87.653-2.864-1.389-8.429-7.762c1.181-12.473,5.29-61.758,4.174-67.4s-13.946-18.507-2.168-36.844S572.451,514.5,572.451,514.5Z" transform="translate(-509.158 -423.408)" fill="#37474f"/>
  <path id="Path_12660" data-name="Path 12660" d="M607,530.7c-1.618,1.576-3.333,3.169-4.853,4.813-3.236,3.288-6.471,6.593-9.545,10.016-1.537,1.695-3.074,3.39-4.562,5.237-.76.9-1.488,1.8-2.2,2.729a9.435,9.435,0,0,0-1.86,3.271,11.245,11.245,0,0,0-.21,3.8,23.193,23.193,0,0,0,.647,3.576,47.075,47.075,0,0,0,2.152,6.355,29.091,29.091,0,0,0-4.433,7.627,6.228,6.228,0,0,0-.275,1.237,6.534,6.534,0,0,0,0,1.271,15.7,15.7,0,0,0,.307,2.322c.243,1.525.534,3.017.841,4.525,1.23,5.982,2.7,11.863,4.287,17.778-1.132-6-2.281-11.982-3.236-17.982-.259-1.508-.485-3-.68-4.508,0-.746-.178-1.491-.21-2.22a4.389,4.389,0,0,1,.227-2,29.241,29.241,0,0,1,4.562-7.457l.275-.356-.178-.44a43.193,43.193,0,0,1-2.152-6.525,22.449,22.449,0,0,1-.582-3.39,8.951,8.951,0,0,1,.129-3.237,7.746,7.746,0,0,1,1.618-2.746c.68-.915,1.391-1.813,2.119-2.694,1.44-1.779,2.961-3.525,4.465-5.271,3.025-3.474,6.067-6.932,9.189-10.321s6.18-6.779,9.5-10.016A59.249,59.249,0,0,0,607,530.7Z" transform="translate(-547.496 -433.119)" fill="#263238"/>
  <path id="Path_12661" data-name="Path 12661" d="M360.992,566.76v-11.22c-.1-9.982-.194-19.947-.534-29.93-.4,9.982-.6,19.965-.777,29.964v12.169a2.692,2.692,0,0,1-.1.712,3.879,3.879,0,0,1-.728,1.339,16.4,16.4,0,0,1-5.663,3.83,47.078,47.078,0,0,1-6.617,2.423l-.777.22.275.78a84.984,84.984,0,0,1,2.993,9.237c.194.78.372,1.576.5,2.339a6.263,6.263,0,0,1,0,2.169v.2l-.13.288-1.909,3.915c-1.391,2.949-2.815,5.881-4.158,8.847l-4.077,8.9,4.611-8.61c1.618-2.864,3.009-5.762,4.514-8.66l1.116-2.169.566-1.085.421-.814.113-.39a6.687,6.687,0,0,0,0-2.712,20.21,20.21,0,0,0-.469-2.474,84.262,84.262,0,0,0-2.67-8.711,45.719,45.719,0,0,0,6.132-2.186,16.8,16.8,0,0,0,6.213-4.288,5.441,5.441,0,0,0,.987-1.915,4.576,4.576,0,0,0,.129-1.152Z" transform="translate(-255.231 -432.724)" fill="#263238"/>
  <path id="Path_12662" data-name="Path 12662" d="M11.932,545.367c12.7,2.322,17.8,10.457,23.329,27.727,7.636,23.54,14.334,46.844,15.774,58.707l-29.962-8.592L5.04,589.414S-.962,562.2,11.932,545.367Z" transform="translate(111.35 -448.989)" fill="#263238"/>
  <path id="Path_12663" data-name="Path 12663" d="M152.771,842.629l64.81-10.441,9.869-87.06-64.826,10.44Z" transform="translate(-90.222 -613.448)" fill="#ff725e"/>
  <path id="Path_12664" data-name="Path 12664" d="M152.771,842.629l64.81-10.441,9.869-87.06-64.826,10.44Z" transform="translate(-90.222 -613.448)" opacity="0.2"/>
  <path id="Path_12665" data-name="Path 12665" d="M158.62,850.343l62.109-10.033,9.189-81.181-62.109,10.016Z" transform="translate(-93.677 -624.975)" fill="#fafafa"/>
  <path id="Path_12666" data-name="Path 12666" d="M161.781,814.147l6.212-54.827,58.1-14.287-9.869,87.1-61.478,15.1a1.572,1.572,0,0,1-1.448-.406,1.7,1.7,0,0,1-.428-.672,1.775,1.775,0,0,1-.082-.8l3.139-27.777a3.15,3.15,0,0,1,.709-1.6,2.919,2.919,0,0,1,1.427-.93Z" transform="translate(-88.862 -613.37)" fill="#ff725e"/>
  <path id="Path_12667" data-name="Path 12667" d="M104.292,950.534c0,8.916-1.262,10.405-10.613,15.422S60.74,978.7,42.07,980.582c-12.182,1.237-18.443.627-23.167-1.322A19.846,19.846,0,0,1,9,970.308a21.323,21.323,0,0,1-2.3-13.486c-2.039-6.152,1.051-6.982,3.575-7.661L9.826,953.2s5.468,3.9,10.5,3.966.356-6.1-.55-9.829-.712-5.865,2.2-7.627c1.618,0,2.168,2.339,7.248,7.643,3.85,4.017,6.86,11.356,12.846,10.508,4.676-.679,32.486-14.185,32.486-14.185l1.262-11.152Z" transform="translate(57.689 -767.723)" fill="#ffd8c5"/>
  <path id="Path_12668" data-name="Path 12668" d="M57.264,930.086c.356,5.56-.582,8.474-3.025,10.863s-12.554,7.391-18.767,9.661-22.488,6.88-25.594,7.474c3.236-5.287,2.443-15.71-.307-20.337s-6.358-3.542-6.358-3.542L27.14,922.934l1.731-15.253Z" transform="translate(105.121 -747.274)" fill="#263238"/>
</svg>
