<svg xmlns="http://www.w3.org/2000/svg" width="236.322" height="568" viewBox="0 0 236.322 568">
  <g id="Group_7932" data-name="Group 7932" transform="translate(0)">
    <path id="Path_12707" data-name="Path 12707" d="M694.329,2813.619l8.544-3.6-2.822-6.389-5.254,5.454Z" transform="translate(-581.45 -2297.477)"/>
    <path id="Path_12708" data-name="Path 12708" d="M637.449,2764.69s-.312,6.164-.374,8.1,7.437,7.931,9.354,8.917l.468-4.535a35.943,35.943,0,0,1,4.334,7.323c1.45,2.753,3.305,7.981,7.281,11.531,5.909,5.194,15.092,7.913,24.462,8.241s14.7-2.25,17.353-4.5,3.476-4.884,2.806-7.5S637.449,2764.69,637.449,2764.69Z" transform="translate(-533.504 -2265.567)" fill="#263238"/>
    <path id="Path_12709" data-name="Path 12709" d="M661.259,2631.234l.093-3.584c1.731,0,1.949,5.194,4.49,9.644a92.047,92.047,0,0,0,13.252,18.543c9.526,9.487,18.023,15.443,22.264,19.719,5.69,5.73-4.225,14.925-19.489,14.059-7.593-.433-21.063-4.571-24.867-9.505s-6.236-12.621-9.214-16.205-9.573-7.169-11.475-11.514c-1.044-2.388-.514-8,.078-12.742.546-4.38.639-11.063,2.869-10.527l.171,2.233c.92,1.9,3.04,5.056,9.152,6.165C651.624,2638.057,660.744,2638.316,661.259,2631.234Z" transform="translate(-532.368 -2153.267)" fill="#37474f"/>
    <path id="Path_12710" data-name="Path 12710" d="M744.739,2663.2c2.916-.294,6.049-1.366,7.265-4.277v-.1a9.012,9.012,0,0,0,.264,3.723,8.368,8.368,0,0,0,1.732,3.2c2.744,3.463,20.112,28.308,20.112,28.308s-16.152-20.448-19.239-24.239c-4.584-5.7-6.034-6.355-10.2-6.494Z" transform="translate(-623.613 -2178.81)"/>
    <path id="Path_12711" data-name="Path 12711" d="M759.035,2714.384a1.1,1.1,0,0,1-.205.561.929.929,0,0,1-.453.34.833.833,0,0,1-.546,0,.933.933,0,0,1-.453-.337,1.1,1.1,0,0,1-.207-.56,1.138,1.138,0,0,1,.111-.594,1,1,0,0,1,.39-.425.9.9,0,0,1,.885,0,.944.944,0,0,1,.281.255,1.049,1.049,0,0,1,.168.358A1.107,1.107,0,0,1,759.035,2714.384Z" transform="translate(-634.073 -2223.415)"/>
    <path id="Path_12712" data-name="Path 12712" d="M787.312,2744.74a1.089,1.089,0,0,1-.348.69.892.892,0,0,1-.681.229.928.928,0,0,1-.579-.4,1.12,1.12,0,0,1-.183-.728,1.082,1.082,0,0,1,.31-.673.879.879,0,0,1,.639-.26.922.922,0,0,1,.631.378,1.141,1.141,0,0,1,.211.762Z" transform="translate(-657.814 -2248.283)"/>
    <path id="Path_12713" data-name="Path 12713" d="M814.826,2775.1a1.1,1.1,0,0,1-.106.388.992.992,0,0,1-.234.312.9.9,0,0,1-.325.186.8.8,0,0,1-.364.031.9.9,0,0,1-.621-.379,1.107,1.107,0,0,1-.2-.755,1.066,1.066,0,0,1,.341-.69.895.895,0,0,1,1.029-.108.928.928,0,0,1,.281.256,1.035,1.035,0,0,1,.168.356,1.115,1.115,0,0,1,.028.4Z" transform="translate(-680.806 -2273.167)"/>
    <path id="Path_12714" data-name="Path 12714" d="M842.347,2805.368a1.093,1.093,0,0,1-.348.69.954.954,0,0,1-1.051.126.976.976,0,0,1-.3-.258,1.091,1.091,0,0,1-.185-.37,1.149,1.149,0,0,1-.037-.42,1.107,1.107,0,0,1,.118-.4,1.02,1.02,0,0,1,.252-.318.9.9,0,0,1,.345-.179.85.85,0,0,1,.381-.011.913.913,0,0,1,.625.383,1.118,1.118,0,0,1,.2.76Z" transform="translate(-703.79 -2297.951)"/>
    <path id="Path_12715" data-name="Path 12715" d="M870.567,2835.8a1.1,1.1,0,0,1-.2.56.94.94,0,0,1-.45.34.847.847,0,0,1-.544,0,.949.949,0,0,1-.454-.332,1.1,1.1,0,0,1-.211-.558,1.135,1.135,0,0,1,.1-.592.992.992,0,0,1,.383-.43.856.856,0,0,1,.534-.119.909.909,0,0,1,.629.37,1.118,1.118,0,0,1,.212.756Z" transform="translate(-727.473 -2322.916)"/>
    <path id="Path_12716" data-name="Path 12716" d="M760.951,2696.813a.483.483,0,0,1-.25-.121.419.419,0,0,1-.081-.135.456.456,0,0,1,0-.318.412.412,0,0,1,.081-.135,14.6,14.6,0,0,1,10.539-4.674h0a.354.354,0,0,1,.25.139.445.445,0,0,1,.093.293.436.436,0,0,1-.03.16.386.386,0,0,1-.086.134.348.348,0,0,1-.127.085.312.312,0,0,1-.147.02,14.03,14.03,0,0,0-9.963,4.432.44.44,0,0,1-.281.121Z" transform="translate(-636.94 -2205.533)" fill="#263238"/>
    <path id="Path_12717" data-name="Path 12717" d="M789.272,2727.059a.355.355,0,0,1-.249-.121.465.465,0,0,1-.1-.294.459.459,0,0,1,.1-.295,14.61,14.61,0,0,1,10.539-4.657.33.33,0,0,1,.165,0,.35.35,0,0,1,.147.081.41.41,0,0,1,.1.143.459.459,0,0,1,0,.357.413.413,0,0,1-.1.144.368.368,0,0,1-.147.082.345.345,0,0,1-.165,0c-5.55-.312-9.932,4.4-9.978,4.432a.354.354,0,0,1-.142.1.3.3,0,0,1-.17.017Z" transform="translate(-660.663 -2230.324)" fill="#263238"/>
    <path id="Path_12718" data-name="Path 12718" d="M816.714,2757.515a.4.4,0,0,1-.234-.123.377.377,0,0,1-.087-.132.446.446,0,0,1-.03-.163.435.435,0,0,1,.03-.16.406.406,0,0,1,.087-.134,14.613,14.613,0,0,1,10.539-4.674h0a.374.374,0,0,1,.256.139.456.456,0,0,1,.1.294.464.464,0,0,1-.036.163.4.4,0,0,1-.09.131.361.361,0,0,1-.13.085.348.348,0,0,1-.149.018,14.085,14.085,0,0,0-9.963,4.432.42.42,0,0,1-.137.1.4.4,0,0,1-.159.027Z" transform="translate(-683.645 -2255.274)" fill="#263238"/>
    <path id="Path_12719" data-name="Path 12719" d="M844.607,2787.9a.356.356,0,0,1-.249-.121.463.463,0,0,1-.1-.295.457.457,0,0,1,.1-.294,14.62,14.62,0,0,1,10.54-4.658.354.354,0,0,1,.14.038.363.363,0,0,1,.115.1.4.4,0,0,1,.071.139.445.445,0,0,1-.109.437.351.351,0,0,1-.264.1c-5.55-.312-9.932,4.4-9.978,4.433a.343.343,0,0,1-.121.092.315.315,0,0,1-.144.029Z" transform="translate(-707.002 -2280.186)" fill="#263238"/>
    <path id="Path_12720" data-name="Path 12720" d="M872.468,2818.223a.439.439,0,0,1-.234-.121.413.413,0,0,1-.081-.135.455.455,0,0,1,0-.317.41.41,0,0,1,.081-.136,14.6,14.6,0,0,1,10.539-4.674.336.336,0,0,1,.142.038.346.346,0,0,1,.118.1.414.414,0,0,1,.076.139.446.446,0,0,1,.023.158.452.452,0,0,1-.13.291.366.366,0,0,1-.275.109c-5.535-.329-9.916,4.38-9.963,4.432a.4.4,0,0,1-.137.094.335.335,0,0,1-.159.027Z" transform="translate(-730.341 -2305.024)" fill="#263238"/>
    <path id="Path_12721" data-name="Path 12721" d="M91.008,2966.056c-1.294,8.068-3.025,13.3-6.143,17.729s-8.731,4.917-12.894,3.948a17.315,17.315,0,0,1-8.937-5.271,20.456,20.456,0,0,1-4.908-9.826c-1.341-5.557-.421-11.93,1.559-19.3Z" transform="translate(-48.148 -2420.151)" fill="#263238"/>
    <path id="Path_12722" data-name="Path 12722" d="M78.664,2680.487c-2.058-.1-3.851,10.719-6.236,21.487-2.526,11.531-6.47,17.642-8.388,25.4-2.635,10.734-2.479,15.755.281,22.838s17.15,15.737,24.228,7.028c5.784-7.08,6.907-15.581,7.639-26.645q.636-14.017,2.541-27.909c1.278-8.155,2.65-16.033.967-17.193-.265,1.2-.561,2.7-.842,3.86-.2.9-.889,5.317-2.042,5.194a17.4,17.4,0,0,1,.312-3.1,4.037,4.037,0,0,0-.281-2.719,3.844,3.844,0,0,0-2.151-1.418,57.163,57.163,0,0,0-6-1.852,28.675,28.675,0,0,0-3.118-.538,30.263,30.263,0,0,0-5.41-.468,1.746,1.746,0,0,0-.709.34,1.959,1.959,0,0,0-.522.63,4.1,4.1,0,0,0-.25,1.23,9.647,9.647,0,0,1-.5,2.217c-.109.311-.343.691-.639.571a.642.642,0,0,1-.227-.311.728.728,0,0,1-.023-.4c.125-1.316.39-2.267.608-3.791.094-.709.312-1.731.39-2.372S78.555,2681.249,78.664,2680.487Z" transform="translate(-52.05 -2196.565)" fill="#37474f"/>
    <path id="Path_12723" data-name="Path 12723" d="M118.45,2958.139a.879.879,0,0,0-.007.311.841.841,0,0,0,.1.291.762.762,0,0,0,.194.226.682.682,0,0,0,.257.125.67.67,0,0,0,.428-.027.749.749,0,0,0,.341-.291.874.874,0,0,0,.137-.451.887.887,0,0,0-.114-.458.756.756,0,0,0-.326-.309.672.672,0,0,0-.426-.054.716.716,0,0,0-.38.22.843.843,0,0,0-.2.419Z" transform="translate(-99.179 -2423.557)"/>
    <path id="Path_12724" data-name="Path 12724" d="M127.657,2916.831a.887.887,0,0,0-.007.312.839.839,0,0,0,.1.289.756.756,0,0,0,.194.226.665.665,0,0,0,.8.017.836.836,0,0,0,.328-.5.885.885,0,0,0-.106-.6.742.742,0,0,0-.456-.35.67.67,0,0,0-.28-.007.653.653,0,0,0-.262.114.734.734,0,0,0-.2.215.847.847,0,0,0-.113.285Z" transform="translate(-106.889 -2389.728)"/>
    <path id="Path_12725" data-name="Path 12725" d="M136.384,2877.8a.878.878,0,0,0-.007.311.847.847,0,0,0,.1.291.767.767,0,0,0,.194.225.662.662,0,0,0,.8.014.822.822,0,0,0,.328-.494.894.894,0,0,0-.106-.6.739.739,0,0,0-.456-.349.651.651,0,0,0-.28-.007.682.682,0,0,0-.262.112.77.77,0,0,0-.2.217.83.83,0,0,0-.113.285Z" transform="translate(-114.198 -2357.743)"/>
    <path id="Path_12726" data-name="Path 12726" d="M145.015,2839.265a.875.875,0,0,0-.007.31.853.853,0,0,0,.1.291.779.779,0,0,0,.194.225.667.667,0,0,0,.257.125.639.639,0,0,0,.415-.036.74.74,0,0,0,.327-.285.856.856,0,0,0,.129-.439.867.867,0,0,0-.112-.446.743.743,0,0,0-.316-.3.645.645,0,0,0-.413-.056.7.7,0,0,0-.371.208.825.825,0,0,0-.2.4Z" transform="translate(-121.425 -2326.168)"/>
    <path id="Path_12727" data-name="Path 12727" d="M244.445,2857.277a.88.88,0,0,0,.141.55.726.726,0,0,0,.432.311.661.661,0,0,0,.51-.081.8.8,0,0,0,.336-.435.873.873,0,0,0,.007-.311.857.857,0,0,0-.1-.291.769.769,0,0,0-.194-.225.676.676,0,0,0-.805-.022.816.816,0,0,0-.325.5Z" transform="translate(-204.703 -2340.925)"/>
    <path id="Path_12728" data-name="Path 12728" d="M235.548,2896.021a.871.871,0,0,0,.1.6.719.719,0,0,0,.45.35.654.654,0,0,0,.542-.1.806.806,0,0,0,.316-.5.892.892,0,0,0,.006-.313.861.861,0,0,0-.1-.291.761.761,0,0,0-.194-.224.671.671,0,0,0-.257-.126.662.662,0,0,0-.28-.007.686.686,0,0,0-.261.113.771.771,0,0,0-.2.215.844.844,0,0,0-.113.285Z" transform="translate(-197.24 -2372.676)"/>
    <path id="Path_12729" data-name="Path 12729" d="M226.821,2935.149a.873.873,0,0,0,.1.6.722.722,0,0,0,.45.35.655.655,0,0,0,.542-.106.8.8,0,0,0,.316-.5.873.873,0,0,0,.006-.31.857.857,0,0,0-.1-.291.762.762,0,0,0-.194-.224.678.678,0,0,0-.257-.126.632.632,0,0,0-.28-.007.654.654,0,0,0-.261.114.748.748,0,0,0-.2.214.834.834,0,0,0-.113.286Z" transform="translate(-189.932 -2404.739)"/>
    <path id="Path_12730" data-name="Path 12730" d="M217.547,2976.577a.906.906,0,0,0,.111.6.752.752,0,0,0,.45.352.681.681,0,0,0,.539-.11.818.818,0,0,0,.319-.5.875.875,0,0,0,.007-.31.848.848,0,0,0-.1-.291.778.778,0,0,0-.194-.226.686.686,0,0,0-.257-.125.673.673,0,0,0-.549.1.809.809,0,0,0-.324.5Z" transform="translate(-182.171 -2438.688)"/>
    <path id="Path_12731" data-name="Path 12731" d="M178.1,2756.558l11.21-52.06-2.651-.417Z" transform="translate(-149.142 -2215.899)"/>
    <path id="Path_12732" data-name="Path 12732" d="M120.848,2959.98h.109c4.864-.538,12.909,1.056,15.9,3.184a.313.313,0,0,0,.131.065.3.3,0,0,0,.143,0,.306.306,0,0,0,.13-.065.375.375,0,0,0,.095-.119.422.422,0,0,0,.052-.144.447.447,0,0,0,0-.157.424.424,0,0,0-.057-.145.386.386,0,0,0-.1-.109c-3.118-2.249-11.272-3.877-16.355-3.323a.379.379,0,0,0-.251.15.465.465,0,0,0-.092.3.454.454,0,0,0,.1.232A.38.38,0,0,0,120.848,2959.98Z" transform="translate(-100.953 -2424.844)" fill="#263238"/>
    <path id="Path_12733" data-name="Path 12733" d="M130.105,2917.179a.391.391,0,0,0,.2,0c3.82-1.419,12.395.779,15.809,3.22a.345.345,0,0,0,.28.058.377.377,0,0,0,.235-.179.475.475,0,0,0,.045-.309.432.432,0,0,0-.154-.262c-3.57-2.529-12.473-4.8-16.448-3.292a.344.344,0,0,0-.127.073.36.36,0,0,0-.09.123.419.419,0,0,0-.038.152.425.425,0,0,0,.021.157.455.455,0,0,0,.107.161.4.4,0,0,0,.158.1Z" transform="translate(-108.714 -2389.505)" fill="#263238"/>
    <path id="Path_12734" data-name="Path 12734" d="M138.853,2878.007h.2c3.82-1.421,12.395.778,15.809,3.2a.33.33,0,0,0,.131.056.316.316,0,0,0,.141,0,.335.335,0,0,0,.129-.063.417.417,0,0,0,.1-.112.434.434,0,0,0,.051-.146.449.449,0,0,0,0-.157.42.42,0,0,0-.056-.143.392.392,0,0,0-.1-.108c-3.555-2.545-12.395-4.8-16.433-3.307a.391.391,0,0,0-.212.208.455.455,0,0,0-.022.312.4.4,0,0,0,.1.168.351.351,0,0,0,.163.092Z" transform="translate(-116.042 -2357.396)" fill="#263238"/>
    <path id="Path_12735" data-name="Path 12735" d="M147.079,2839.6a.374.374,0,0,0,.187,0c3.835-1.419,12.473.78,15.825,3.221a.331.331,0,0,0,.131.058.294.294,0,0,0,.141,0,.353.353,0,0,0,.129-.061.409.409,0,0,0,.1-.114.456.456,0,0,0,.051-.311.424.424,0,0,0-.16-.262c-3.555-2.527-12.473-4.795-16.433-3.289a.352.352,0,0,0-.127.071.384.384,0,0,0-.09.123.417.417,0,0,0-.017.308.368.368,0,0,0,.1.173.307.307,0,0,0,.167.087Z" transform="translate(-122.928 -2325.931)" fill="#263238"/>
    <path id="Path_12736" data-name="Path 12736" d="M134.928,1201.959c-4.8,67.072-8.778,156.739-8.778,156.739-.421,5.109-4.864,26.837-7.094,51.942-2.339,26.506-4.256,76.179-4.256,76.179s16.791,9.954,30.433,4.968c0,0,14.577-83.624,21.562-114.856,6.595-29.572,16.916-85.615,16.916-85.615l7.031,55.4s-.935,19.044-.421,32.5c.608,15.582,9.588,90.323,9.588,90.323s18.257,11.877,32.382,0c0,0,2.448-103.118,2.838-121.834.67-31.286-4.288-100.7-5.535-149.745Z" transform="translate(-96.137 -981.686)" fill="#455a64"/>
    <path id="Path_12737" data-name="Path 12737" d="M248.045,1638.43q-1.918,24.136-4.256,48.185c-.748,8.032-1.559,16.049-2.385,24.065l-1.232,12.032-.639,6.009c-.2,2.007-.561,3.981-.842,5.972-2.4,15.912-6.08,44.825-8.7,60.7s-5.394,31.718-8.357,47.526q2.822-24.015,6.236-47.907c2.261-15.929,5.784-44.842,8.248-60.736.281-1.991.67-3.965.873-5.974l.67-5.99,1.372-12q1.388-12,2.838-23.979Q244.74,1662.357,248.045,1638.43Z" transform="translate(-185.602 -1342.636)" fill="#37474f"/>
    <path id="Path_12738" data-name="Path 12738" d="M797.807,1613.21c1.559,15.011,2.323,30.092,2.915,45.154s1.107,30.194.592,45.258-.67,40.357-1.185,55.4-1.138,30.142-1.949,45.206q-.327-22.631-.125-45.24c.094-15.064.328-40.34.608-55.4l.265-11.305V1681.01l-.25-22.594-.405-22.594C798.275,1628.29,798.025,1620.758,797.807,1613.21Z" transform="translate(-668.106 -1321.969)" fill="#37474f"/>
    <path id="Path_12739" data-name="Path 12739" d="M538.4,1498.238l5.924-36.739s16.5-2.65,24.945-11.029c0,0-5.457,11.079-21,15.427l-5.893,32.462,3.118,55.4Z" transform="translate(-450.867 -1188.609)" fill="#37474f"/>
    <path id="Path_12740" data-name="Path 12740" d="M745.972,466.266c5.285,7.2,25.2,32.047,25.2,32.047,4.583-7.151,9.977-15.946,14.561-23.546,6.033-9.973,8.574-12.206,10.914-27.009a48.068,48.068,0,0,1,3.741-10.388,34.363,34.363,0,0,0,2.526-11.029c0-1.887,4.334-1.731,5.628,4.086.795,3.03.14,6.164.4,9.211.078.935-.2,2.943.827,2.666,6.236-1.731,10.258-10.2,17.367-16.69,2.572-2.32,9.354-5.194,11.273-.918.218,1.056-.406,1.87-.593,2.857a1.818,1.818,0,0,0,0,.4,9.43,9.43,0,0,0,.234,1.316c.265.866.67,1.731.9,2.545a7.091,7.091,0,0,1-.078,4.069,17.09,17.09,0,0,0-1.013,2.978,11.329,11.329,0,0,1-.2,5.592A22.489,22.489,0,0,1,835.619,449a16.617,16.617,0,0,0-1.029,3.134,18.546,18.546,0,0,1-2.7,4.9,68.352,68.352,0,0,1-12.738,14.284,77.159,77.159,0,0,0-6.657,5.315,21.975,21.975,0,0,0-3.991,5.073,53.189,53.189,0,0,0-3.368,7.67v.156c-8.512,20.776-8.792,28.031-18.179,44.685-7.982,13.4-14.749,8.779-29.622-4.4-18.335-16.189-28.219-25.59-28.219-25.59l-9.183-59.177C730.163,447.689,740.686,459.081,745.972,466.266Z" transform="translate(-602.894 -346.22)" fill="#fdc6a8"/>
    <path id="Path_12741" data-name="Path 12741" d="M1254.052,561.083a22.408,22.408,0,0,1,.3,9.331,21.325,21.325,0,0,1-3.51,8.485C1256.484,576.44,1258.122,567.887,1254.052,561.083Z" transform="translate(-1047.488 -459.788)" fill="#f8af89"/>
    <path id="Path_12742" data-name="Path 12742" d="M687.233,540.176c9.479.762,17.15,4.086,30.293,20.084S743.7,593.831,743.7,593.831l8.449-12.466c-2.821,2.234-1.06,16.881,4.334,23.01a19.724,19.724,0,0,0,12.583,6.475,155.8,155.8,0,0,1-7.8,17.78c-4.18,7.792-7.109,9.991-11.211,10.388s-8.855-1.731-20.548-11.912-30.293-26.471-30.293-26.471Z" transform="translate(-575.508 -442.655)" fill="#fff"/>
    <path id="Path_12743" data-name="Path 12743" d="M687.233,540.176c9.479.762,17.15,4.086,30.293,20.084S743.7,593.831,743.7,593.831l8.449-12.466c-2.821,2.234-1.06,16.881,4.334,23.01a19.724,19.724,0,0,0,12.583,6.475,155.8,155.8,0,0,1-7.8,17.78c-4.18,7.792-7.109,9.991-11.211,10.388s-8.855-1.731-20.548-11.912-30.293-26.471-30.293-26.471Z" transform="translate(-575.508 -442.655)" fill="#fff" opacity="0.55"/>
    <path id="Path_12744" data-name="Path 12744" d="M992.885,821.741c-5.66,8.657-6.8,19.789-4.148,25.97-.826-5.471,1.778-16.534,6.237-23.183Zm24.041,28.117a18.723,18.723,0,0,1-10.026-4.588,24.193,24.193,0,0,1-7.391-12.881c0-.26-.3-.156-.265,0a22.439,22.439,0,0,0,7.438,14.111,20.607,20.607,0,0,0,6.844,3.792,18.251,18.251,0,0,0,3.118.693l.514-1.194Z" transform="translate(-826.856 -673.388)" fill="#fff" opacity="0.35"/>
    <path id="Path_12745" data-name="Path 12745" d="M241.145,516.009c-14.827,3.671-19.27,5.194-26.271,7.064,0,0-11.677,38.09-5.394,66.57,1.45,6.544,2.869,29.988,2.853,42,0,11.479-.234,14.492-1.341,30.783,0,0,20.44,16.344,61.9,11.652,32.538-3.687,35.22-12.758,35.22-12.758s1.169-50.591-.405-77.115c-1.933-32.5-6-56.944-18.288-63.315-1.169-.744-20.923-3.809-20.923-3.809Z" transform="translate(-173.87 -422.851)" fill="#37474f"/>
    <path id="Path_12746" data-name="Path 12746" d="M356.5,36.7l.187-.294a28.6,28.6,0,0,0,2.541-5.644c1.419-3.844,4.443-15.444-2.167-15.894,1.4-1.731,3.43-5.194,1.029-6.925-2-1.489-4.942-.087-7.172-.1a11.521,11.521,0,0,0,2.323-3.463,9.852,9.852,0,0,0,.764-3.982c-1.185.277-2.276.866-3.461,1.16a27.7,27.7,0,0,1-9.027.329C338.135,1.656,334.907.409,331.54.15a56.492,56.492,0,0,0-9.978.156c-11.007,1.039-21.734,6.389-23.527,19.045-8.793,3.151-7.452,19.27-5.114,26.334,4.771,14.336,13.813,26.7,14.125,34.09.9-.8,1.824-1.576,2.744-2.355l13.767-11.842,17.82-15.288,7.717-6.631C351.589,41.425,354.6,39.486,356.5,36.7Z" transform="translate(-243.84 0)" fill="#babdbf"/>
    <path id="Path_12747" data-name="Path 12747" d="M359.549,152.867c-1.559,7.029-5.145,12.223-10.914,13.383a44.21,44.21,0,0,1-8.341.519l.249,9.367c4.1,6.146,1.777,18.7-.109,21.607a4.8,4.8,0,0,1-2.947.173c-7.406-11.34-23.386-13.314-28.625-21.209l-.468-28.688s-3.477,4.571-9.355.485a14.269,14.269,0,0,1-4.948-7.8,15.656,15.656,0,0,1,.613-9.515c2.76-6.925,8.637-4.207,10.461-2.181s4.007,5.852,5.488,5.194a5.4,5.4,0,0,0,2.236-1.592,6.238,6.238,0,0,0,1.287-2.58,40.921,40.921,0,0,0,1.559-13.245,13.537,13.537,0,0,0,4.038-3.67c2.448-3.151,2.573-6.925,2.6-10.215,12.473-4.692,28.516-3.307,33.832,1.039,3.118,5.8,3.508,19.46,4.163,27.3a71.624,71.624,0,0,1-.826,21.624Z" transform="translate(-245.89 -81.922)" fill="#fdc6a8"/>
    <path id="Path_12748" data-name="Path 12748" d="M431.536,382.038c-6.439-.242-20.268-3.463-23.776-7.376s-5.161-12-5.161-12,.733,10.267,3.477,14.751,9.526,6.285,13.626,7.306a107.159,107.159,0,0,0,11.958,1.731Z" transform="translate(-337.148 -297.191)" fill="#f8af89"/>
    <path id="Path_12749" data-name="Path 12749" d="M518.074,247.492a3.241,3.241,0,0,1-.178,1.132,3,3,0,0,1-.555.97,2.666,2.666,0,0,1-.846.661,2.41,2.41,0,0,1-2.028.053,2.633,2.633,0,0,1-.873-.616,2.973,2.973,0,0,1-.595-.94,3.222,3.222,0,0,1-.226-1.121,3.283,3.283,0,0,1,.157-1.154,3.052,3.052,0,0,1,.545-1,2.716,2.716,0,0,1,.849-.689,2.468,2.468,0,0,1,1.022-.274,2.578,2.578,0,0,1,1.917.864A3.183,3.183,0,0,1,518.074,247.492Z" transform="translate(-429.408 -200.37)" fill="#263238"/>
    <path id="Path_12750" data-name="Path 12750" d="M641.724,199.472l-6.47-1a3.758,3.758,0,0,1,.36-1.348,3.4,3.4,0,0,1,.814-1.078,3.009,3.009,0,0,1,1.132-.63,2.819,2.819,0,0,1,1.265-.078,3.38,3.38,0,0,1,2.193,1.427,4.112,4.112,0,0,1,.707,2.711Z" transform="translate(-531.979 -160.038)" fill="#bec1c3"/>
    <path id="Path_12751" data-name="Path 12751" d="M504.379,204.8l-6.236,2.389a3.817,3.817,0,0,1,.043-2.758,3.467,3.467,0,0,1,.749-1.136,3.065,3.065,0,0,1,1.095-.712,3.131,3.131,0,0,1,2.578.133,3.69,3.69,0,0,1,1.772,2.084Z" transform="translate(-416.96 -165.833)" fill="#bec1c3"/>
    <path id="Path_12752" data-name="Path 12752" d="M641.543,241.42a3.281,3.281,0,0,1-.157,1.154,3.057,3.057,0,0,1-.545,1,2.717,2.717,0,0,1-.849.689,2.465,2.465,0,0,1-1.022.274,2.542,2.542,0,0,1-1.576-.409,2.966,2.966,0,0,1-1.1-1.32,3.369,3.369,0,0,1-.243-1.776,3.217,3.217,0,0,1,.7-1.622,2.717,2.717,0,0,1,1.395-.91,2.5,2.5,0,0,1,1.615.115,2.82,2.82,0,0,1,1.279,1.1,3.3,3.3,0,0,1,.5,1.707Z" transform="translate(-532.625 -195.373)" fill="#263238"/>
    <path id="Path_12753" data-name="Path 12753" d="M585.961,222.936l2.354,21.122,10.165-3.688Z" transform="translate(-490.7 -182.688)" fill="#f8af89"/>
    <path id="Path_12754" data-name="Path 12754" d="M538.792,354.128a5.824,5.824,0,0,0,.1,4.042,5.316,5.316,0,0,0,1.073,1.682,4.719,4.719,0,0,0,1.571,1.1,4.323,4.323,0,0,0,3.64-.111,4.8,4.8,0,0,0,1.515-1.192,5.394,5.394,0,0,0,.989-1.745Z" transform="translate(-450.936 -290.195)" fill="#b16668"/>
    <path id="Path_12755" data-name="Path 12755" d="M540.271,369.277a4.392,4.392,0,0,1,3.033,1.164,5.326,5.326,0,0,1,1.644,3.061,4.226,4.226,0,0,1-1.875.074,4.411,4.411,0,0,1-1.75-.75,4.948,4.948,0,0,1-1.344-1.453,5.523,5.523,0,0,1-.722-1.923,4.951,4.951,0,0,1,1.014-.173Z" transform="translate(-451.589 -302.609)" fill="#f8af89"/>
    <path id="Path_12756" data-name="Path 12756" d="M419.784,508.625s10.025,9.661,6.907,19.045-17.337,11.2-28.609,2.545-10.415-18.733-10.415-18.733l-.125-1.524s3.29,3.359,6.689,6.216c2.183,1.818,22.529,11.392,23.028,14.18,0,0,3.118-6.8,3.96-9.349s-1.169-10.821-1.169-10.821Z" transform="translate(-324.538 -416.8)" fill="#fff"/>
    <path id="Path_12757" data-name="Path 12757" d="M419.784,508.625s10.025,9.661,6.907,19.045-17.337,11.2-28.609,2.545-10.415-18.733-10.415-18.733l-.125-1.524s3.29,3.359,6.689,6.216c2.183,1.818,22.529,11.392,23.028,14.18,0,0,3.118-6.8,3.96-9.349s-1.169-10.821-1.169-10.821Z" transform="translate(-324.538 -416.8)" fill="#fff" opacity="0.55"/>
    <path id="Path_12758" data-name="Path 12758" d="M382.274,497.9c-3.212-2.06-9.588-6.631-12.6-2.129s-5.16,9.661-7.484,8.968-10.914-6.925-13.938-13.695a29.623,29.623,0,0,1-2.526-10.682,29.1,29.1,0,0,0,3.118-5.558c1.232-2.874,1.559-5.575,3.57-5.783l.109,7.2s1.746,4.034,8.528,6.752C370.051,486.574,377.877,488.132,382.274,497.9Z" transform="translate(-289.523 -384.344)" fill="#fff"/>
    <path id="Path_12759" data-name="Path 12759" d="M382.274,497.9c-3.212-2.06-9.588-6.631-12.6-2.129s-5.16,9.661-7.484,8.968-10.914-6.925-13.938-13.695a29.623,29.623,0,0,1-2.526-10.682,29.1,29.1,0,0,0,3.118-5.558c1.232-2.874,1.559-5.575,3.57-5.783l.109,7.2s1.746,4.034,8.528,6.752C370.051,486.574,377.877,488.132,382.274,497.9Z" transform="translate(-289.523 -384.344)" fill="#fff" opacity="0.7"/>
    <path id="Path_12760" data-name="Path 12760" d="M570.521,507.543c1.84-1.956,3.118-5.3,6.236-4.415s7.671,8.553,7.718,6.735-2.229-14.786-4.677-18.577-5.394-10.7-7.5-10.492l.187,7.427a26.657,26.657,0,0,1,1.294,8.328C573.343,499.63,570.755,504.547,570.521,507.543Z" transform="translate(-477.77 -393.99)" fill="#fff"/>
    <path id="Path_12761" data-name="Path 12761" d="M570.521,507.543c1.84-1.956,3.118-5.3,6.236-4.415s7.671,8.553,7.718,6.735-2.229-14.786-4.677-18.577-5.394-10.7-7.5-10.492l.187,7.427a26.657,26.657,0,0,1,1.294,8.328C573.343,499.63,570.755,504.547,570.521,507.543Z" transform="translate(-477.77 -393.99)" fill="#fff" opacity="0.7"/>
    <path id="Path_12762" data-name="Path 12762" d="M129.6,1491.32l-.842,4.64v3.791c0,2.078,0,4.156-.109,6.234v1.4a5.667,5.667,0,0,1-.3,1.332,12.805,12.805,0,0,0-.218,2.06v2.148a27.79,27.79,0,0,0,1.45,8.326,9.914,9.914,0,0,0,2.978,4.813c.967.728,2.12,1.092,3.118,1.731a45.027,45.027,0,0,1,4.038,3.325,5.359,5.359,0,0,0,2.209,1.224,5.014,5.014,0,0,0,2.469.04c.468-.155.9-.433,1.372-.572a3.827,3.827,0,0,1,1.888.121,4.138,4.138,0,0,1,1.651,1.022c1,.867,1.793,2.01,2.76,2.908a3.018,3.018,0,0,0,1.731.953,2.3,2.3,0,0,0,1.377-.479,2.709,2.709,0,0,0,.9-1.253,7.232,7.232,0,0,0,.249-3.273c-.748-8.258-4.8-15.582-7.53-23.32a17.544,17.544,0,0,1-.67-2.183c-.078-.381-.125-.778-.187-1.159a4.282,4.282,0,0,1,0-1.334c0-.1.374-1.626.514-1.54Z" transform="translate(-107.3 -1222.085)" opacity="0.2"/>
    <path id="Path_12763" data-name="Path 12763" d="M15.245,715.535c-2.074-11.46-4.225-21.485-5.769-31.511-3.773-24.654-3.851-30.592-2.2-41.016a382.335,382.335,0,0,1,12.878-56.666c5.987-20.43,6.985-20.776,25.429-26.507,8.107,8.847,7.686,35.233,2.495,49.551-5.909,21.33-13.72,53.048-13.72,53.048.327,4.97.514,36.862,3.446,51.2a16.581,16.581,0,0,0,5.831,9.679c4.553,4.017,8.232,13.246,9.432,19.512l-8.076-4.674a5.46,5.46,0,0,0-1.169-1.074c-1.45-.969-1.559.727-1.388,1.957a26.915,26.915,0,0,0,2.011,8.344c.92,2.164,1.715,4.382,2.588,6.562l.14.4c1.824,4.622,3.679,9.366,3.913,14.4a4.171,4.171,0,0,1-.078,1.686,3.918,3.918,0,0,1-.733,1.482,2.517,2.517,0,0,1-1.361.534,2.474,2.474,0,0,1-1.414-.327,15.85,15.85,0,0,1-2.416-1.836,10.429,10.429,0,0,0-3.945-1.957,12.354,12.354,0,0,1-2.931-.83c-1.45-.762-2.4-2.372-3.789-3.271a16.3,16.3,0,0,0-3.118-1.3,12.369,12.369,0,0,1-4.246-2.749,13.921,13.921,0,0,1-2.973-4.349c-3.321-8.119-6.8-18.7-7.374-27.7C16.383,724.263,15.868,719.9,15.245,715.535Z" transform="translate(-5.234 -458.766)" fill="#fdc6a8"/>
    <path id="Path_12764" data-name="Path 12764" d="M30.466,656.963l15.263-55.974s8.045-33.588-4.428-46.14c-11.179,3.463-17.15,4.086-21.921,11.254s-10.8,34.177-13.533,46c-1.076,4.657-2.292,10.631-3.4,16.379C-.56,643.7-.482,648.428,1,662.365A261.989,261.989,0,0,0,6.3,691.9s8.138-7.03,14.421-7.929S30.076,686,30.076,686Z" transform="translate(0 -454.679)" fill="#fff"/>
    <path id="Path_12765" data-name="Path 12765" d="M30.466,656.963l15.263-55.974s8.045-33.588-4.428-46.14c-11.179,3.463-17.15,4.086-21.921,11.254s-10.8,34.177-13.533,46c-1.076,4.657-2.292,10.631-3.4,16.379C-.56,643.7-.482,648.428,1,662.365A261.989,261.989,0,0,0,6.3,691.9s8.138-7.03,14.421-7.929S30.076,686,30.076,686Z" transform="translate(0 -454.679)" fill="#fff" opacity="0.55"/>
    <path id="Path_12766" data-name="Path 12766" d="M36.984,1210.007a26.08,26.08,0,0,0-13.673,6.927c.156.778.312,1.522.452,2.249.125-.137.234-.311.374-.45a25,25,0,0,1,6.236-4.71,26.677,26.677,0,0,1,7.671-2.751,34.257,34.257,0,0,1,7.39-.659s.109-.155,0-.155a19.743,19.743,0,0,0-8.45-.451Z" transform="translate(-19.521 -991.345)" fill="#fff" opacity="0.35"/>
    <path id="Path_12767" data-name="Path 12767" d="M474.037,261a2.494,2.494,0,0,0,1.217.883,2.185,2.185,0,0,0,1.412.294,4.936,4.936,0,0,0-1.292-.623,4.714,4.714,0,0,0-1.337-.554Z" transform="translate(-396.972 -213.88)" fill="#ffbe9d"/>
    <path id="Path_12768" data-name="Path 12768" d="M466.553,270.043a3.766,3.766,0,0,0,1.683,0,3.874,3.874,0,0,0,1.667-.312,4.288,4.288,0,0,0-1.682,0A4.408,4.408,0,0,0,466.553,270.043Z" transform="translate(-390.704 -220.967)" fill="#ffbe9d"/>
    <path id="Path_12769" data-name="Path 12769" d="M685.553,257.494c0,.1.406.19.931.19s.916,0,.916-.156-.406-.19-.916-.19S685.553,257.407,685.553,257.494Z" transform="translate(-574.101 -210.88)" fill="#ffbe9d"/>
    <path id="Path_12770" data-name="Path 12770" d="M688.208,248.018c0,.087.391,0,.781-.346s.691-.554.646-.641-.406,0-.8.346S688.163,247.931,688.208,248.018Z" transform="translate(-576.321 -202.408)" fill="#ffbe9d"/>
    <path id="Path_12771" data-name="Path 12771" d="M517.7,356.727a3.208,3.208,0,0,1,1.067-1.056,3.258,3.258,0,0,1,1.5,0,.834.834,0,0,0-.406-.294,1.488,1.488,0,0,0-1.132.054,1.8,1.8,0,0,0-.85.864C517.668,356.5,517.653,356.727,517.7,356.727Z" transform="translate(-433.517 -291.148)" fill="#ffbe9d"/>
    <path id="Path_12772" data-name="Path 12772" d="M508.585,352.029a3.658,3.658,0,0,1,.991-1.35,3.244,3.244,0,0,1,1.5-.5.723.723,0,0,0-.466-.173,1.714,1.714,0,0,0-1.172.381,2.187,2.187,0,0,0-.781,1.073C508.525,351.769,508.54,352.029,508.585,352.029Z" transform="translate(-425.876 -286.813)" fill="#ffbe9d"/>
    <path id="Path_12773" data-name="Path 12773" d="M529.491,753.36c-1.232-19.323,3.882-71.747,3.757-78.6l4.3-.208c2.573,8.362,8.326,62.8,8.092,76.023-.109,6.389-6.1,17.434-7.967,17.763S529.709,757.48,529.491,753.36Z" transform="translate(-443.25 -552.769)" fill="#1e1d1d"/>
    <path id="Path_12774" data-name="Path 12774" d="M538.559,615.179a16.189,16.189,0,0,1,4.069,0,10.887,10.887,0,0,1,2.167,3.809,17.575,17.575,0,0,1-1.871,6.752,4.717,4.717,0,0,1-2.131.632,4.663,4.663,0,0,1-2.172-.424,10.062,10.062,0,0,1-2.869-4.761,9.412,9.412,0,0,1,2.806-6.008Z" transform="translate(-448.654 -504.013)" fill="#1e1d1d"/>
    <path id="Path_12775" data-name="Path 12775" d="M561.553,136.684s.541.19,1.4.589,1.968,1.039,3.26,1.731a7.912,7.912,0,0,0,3.515.952,3.327,3.327,0,0,0,1.082-.156,1,1,0,0,0,.391-.156,4.9,4.9,0,0,1-1.5,0,8.943,8.943,0,0,1-3.395-1.039c-1.277-.623-2.434-1.281-3.32-1.593A3.9,3.9,0,0,0,561.553,136.684Z" transform="translate(-470.26 -112.008)" fill="#ffbe9d"/>
    <path id="Path_12776" data-name="Path 12776" d="M575.691,135.009a7.593,7.593,0,0,0,3.44,1.333,7.436,7.436,0,0,0,3.62-.139c0-.121-1.622.121-3.575-.208A33.906,33.906,0,0,1,575.691,135.009Z" transform="translate(-482.1 -110.627)" fill="#ffbe9d"/>
  </g>
</svg>
