<svg xmlns="http://www.w3.org/2000/svg" xmlns:xlink="http://www.w3.org/1999/xlink" width="1375" height="694" viewBox="0 0 1375 694"><defs><style>.a{fill:#fff;}.b{clip-path:url(#a);}.c,.d{fill:#94c6d1;}.d,.u,.v,.x,.y{opacity:0.05;}.aa,.ac,.d,.g,.j,.m,.o,.u,.v,.x,.y{mix-blend-mode:multiply;}.aa,.ac,.d,.f,.g,.j,.m,.o,.u,.v,.x,.y{isolation:isolate;}.e{fill:url(#b);}.f{mix-blend-mode:screen;fill:url(#c);}.aa,.ac,.g,.i,.o{opacity:0.3;}.g{fill:url(#d);}.h{fill:url(#e);}.k,.m{fill:#b5c3d3;}.l{fill:url(#f);}.n{fill:#d6e3f3;}.o{fill:url(#k);}.p{fill:#84a0c2;}.q{fill:#d6e8ff;}.r{fill:#c7dfff;}.s{fill:#6ab1c5;}.t{fill:#a9e4f1;}.u{fill:url(#m);}.v{fill:url(#n);}.w{fill:#77c1ce;}.x{fill:url(#o);}.y{fill:url(#p);}.z{fill:#62aac2;}.aa{fill:url(#q);}.ab{fill:url(#r);}.ac{fill:url(#s);}.ad{fill:#b6cff0;}.ae{fill:#034d59;}.af{fill:#62acc3;}.ag{fill:#edfaff;}.ah{fill:#b0bbd9;}.ai{fill:#c8ddfa;}.aj{fill:#29abe2;}.ak{fill:#6cb5c8;}.al{fill:#a9d7e8;}.am{fill:#409dad;}.an{fill:#c5dcfd;}</style><clipPath id="a"><rect class="a" width="1375" height="694" transform="translate(3)"/></clipPath><linearGradient id="b" x1="0.5" y1="1" x2="0.5" gradientUnits="objectBoundingBox"><stop offset="0" stop-color="#62acc3"/><stop offset="1" stop-color="#d6e8ff"/></linearGradient><radialGradient id="c" cx="0.5" cy="0.5" r="25.388" gradientTransform="translate(0.17 0.079) scale(0.02 0.632)" gradientUnits="objectBoundingBox"><stop offset="0" stop-color="#9ce1ff"/><stop offset="1"/></radialGradient><linearGradient id="d" x1="0.5" y1="0.939" x2="0.5" y2="0.216" gradientUnits="objectBoundingBox"><stop offset="0" stop-color="#fff"/><stop offset="1" stop-color="#003cb0"/></linearGradient><linearGradient id="e" x1="0.5" y1="0.012" x2="0.5" y2="0.994" gradientUnits="objectBoundingBox"><stop offset="0" stop-color="#c9ddf5"/><stop offset="0.286" stop-color="#e7f2ff"/><stop offset="0.645" stop-color="#8299b8"/><stop offset="1" stop-color="#88a2c5"/></linearGradient><linearGradient id="f" x1="0.03" y1="0.5" x2="0.969" y2="0.5" xlink:href="#e"/><linearGradient id="k" x1="9.612" y1="0.939" x2="9.612" y2="0.216" xlink:href="#d"/><linearGradient id="m" x1="1.198" y1="5.266" x2="1.198" y2="4.24" xlink:href="#d"/><linearGradient id="n" x1="1.078" y1="-1.076" x2="1.078" y2="-2.102" gradientUnits="objectBoundingBox"><stop offset="0" stop-color="#fff"/><stop offset="1" stop-color="#409dad"/></linearGradient><linearGradient id="o" x1="-0.498" y1="-34.15" x2="-0.498" y2="-35.176" gradientUnits="objectBoundingBox"><stop offset="0" stop-color="#62acc3"/><stop offset="1" stop-color="#003cb0"/></linearGradient><linearGradient id="p" x1="-0.618" y1="38.341" x2="-0.618" y2="37.314" xlink:href="#n"/><linearGradient id="q" x1="0.5" y1="0.947" x2="0.5" y2="-0.079" gradientUnits="objectBoundingBox"><stop offset="0" stop-color="#fff"/><stop offset="1" stop-color="#62acc3"/></linearGradient><linearGradient id="r" x1="0.5" y1="1.19" x2="0.5" y2="0.366" gradientUnits="objectBoundingBox"><stop offset="0" stop-color="#40abbc"/><stop offset="0.962" stop-color="#69a6b4"/><stop offset="1" stop-color="#3a93a7"/></linearGradient><linearGradient id="s" x1="0.5" y1="0.947" x2="0.5" y2="-0.079" gradientUnits="objectBoundingBox"><stop offset="0" stop-color="#fff"/><stop offset="1" stop-color="#029fb9"/></linearGradient></defs><g class="b" transform="translate(-3)"><path class="c" d="M0,0H1366V680.714H0Z" transform="translate(0 13.286)"/><path class="d" d="M210.764,659.2h4.142V0h-4.142Zm32.425,0h4.143V0h-4.143Zm-48.637,0h4.142V0h-4.142Zm-16.213,0h4.142V0h-4.142Zm81.063,0h4.143V0H259.4Zm64.851,0h4.142V0h-4.142Zm-16.213,0h4.143V0h-4.143Zm-32.425,0h4.143V0h-4.143Zm-113.488,0h4.143V0h-4.143Zm129.7,0h4.143V0h-4.143Zm-64.851,0h4.143V0h-4.143Zm-178.338,0H52.78V0H48.638Zm-16.213,0h4.143V0H32.425ZM0,659.2H4.143V0H0Zm16.213,0h4.143V0H16.213Zm48.638,0h4.142V0H64.851Zm32.425,0h4.143V0H97.275Zm16.213,0h4.143V0h-4.143Zm-32.425,0h4.143V0H81.063Zm48.638,0h4.143V0H129.7Zm16.213,0h4.142V0h-4.142Zm421.527,0h4.142V0h-4.142Zm-16.213,0h4.142V0h-4.142Zm-32.425,0h4.143V0H518.8Zm16.213,0h4.143V0h-4.143Zm97.275,0h4.143V0h-4.143Zm-129.7,0h4.142V0H502.59Zm145.913,0h4.143V0H648.5Zm-64.85,0H587.8V0h-4.142Zm32.425,0h4.143V0h-4.143Zm-16.213,0h4.143V0h-4.143Zm-129.7,0h4.142V0h-4.142Zm-97.276,0h4.143V0h-4.143Zm32.425,0h4.143V0h-4.143Zm-16.213,0h4.143V0H389.1Zm-32.425,0h4.143V0h-4.143Zm64.851,0h4.142V0h-4.142Zm243.189,0h4.143V0h-4.143Zm-210.763,0h4.142V0h-4.142Zm32.425,0h4.142V0h-4.142Zm-48.637,0h4.142V0H437.74Zm-97.276,0h4.143V0h-4.143Zm599.866,0h4.143V0H940.33Zm-48.638,0h4.143V0h-4.143Zm-16.212,0h4.142V0H875.48Zm-32.426,0H847.2V0h-4.143Zm64.85,0h4.143V0H907.9Zm-48.637,0h4.142V0h-4.142Zm145.913,0h4.142V0h-4.142Zm-16.213,0h4.142V0h-4.142Zm-16.213,0H976.9V0h-4.142Zm-16.213,0h4.142V0h-4.142Zm-32.425,0h4.143V0h-4.143Zm-178.338,0h4.142V0h-4.142Zm-16.213,0h4.142V0h-4.142Zm-16.212,0H717.5V0h-4.143Zm-16.213,0h4.142V0h-4.142Zm113.488,0h4.143V0h-4.143Zm16.213,0h4.142V0h-4.142Zm-32.425,0h4.143V0h-4.143Zm-16.213,0h4.143V0H778.2Zm-16.213,0h4.143V0h-4.143Zm-81.063,0h4.143V0h-4.143Zm567.441,0h4.142V0h-4.142Zm16.213,0h4.142V0h-4.142Zm-48.638,0h4.142V0h-4.142Zm-16.213,0h4.142V0h-4.142Zm32.425,0h4.143V0h-4.143Zm48.638,0h4.143V0h-4.143Zm64.851,0h4.142V0h-4.142Zm-48.638,0h4.142V0h-4.142ZM1361.858,0V659.2H1366V0Zm-32.425,659.2h4.143V0h-4.143Zm-16.213,0h4.142V0h-4.142Zm-226.976,0h4.143V0h-4.143Zm-16.213,0h4.143V0h-4.143Zm-32.425,0h4.143V0h-4.143Zm16.213,0h4.143V0h-4.143Zm129.7,0h4.143V0h-4.143Zm-81.063,0h4.142V0h-4.142Zm16.213,0h4.142V0h-4.142Zm32.425,0h4.143V0h-4.143Zm16.213,0h4.143V0h-4.143Zm-32.425,0h4.142V0h-4.142Zm-113.488,0h4.142V0h-4.142Z"/><g transform="translate(0 659.203)"><rect class="e" width="1366" height="34.797"/><rect class="a" width="1366" height="13.314"/><rect class="f" width="1366" height="32.872" transform="translate(0 1.926)"/></g><g transform="translate(75.792 169.671)"><rect class="g" width="416.194" height="34.743" transform="translate(41.101 29.466)"/><g transform="translate(34.552 17.466)"><path class="h" d="M600.138,356.592h-399.1a12,12,0,0,1,0-24h399.1a12,12,0,0,1,0,24Z" transform="translate(-189.218 -332.591)"/><g class="i" transform="translate(11.267 2.18)"><g class="j"><path class="k" d="M214.471,355.97a.222.222,0,0,1-.211-.157l-5.711-19.2a.22.22,0,0,1,.422-.126l5.711,19.2a.219.219,0,0,1-.148.273A.2.2,0,0,1,214.471,355.97Z" transform="translate(-208.539 -336.329)"/></g><g class="j" transform="translate(7.795)"><path class="k" d="M227.839,355.97a.221.221,0,0,1-.211-.157l-5.713-19.2a.22.22,0,0,1,.422-.126l5.712,19.2a.218.218,0,0,1-.148.273A.194.194,0,0,1,227.839,355.97Z" transform="translate(-221.906 -336.329)"/></g><g class="j" transform="translate(15.59)"><path class="k" d="M241.206,355.97a.221.221,0,0,1-.211-.157l-5.713-19.2a.22.22,0,0,1,.422-.126l5.713,19.2a.219.219,0,0,1-.148.273A.2.2,0,0,1,241.206,355.97Z" transform="translate(-235.273 -336.329)"/></g><g class="j" transform="translate(23.385)"><path class="k" d="M254.573,355.97a.221.221,0,0,1-.211-.157l-5.713-19.2a.22.22,0,0,1,.422-.126l5.713,19.2a.219.219,0,0,1-.148.273A.2.2,0,0,1,254.573,355.97Z" transform="translate(-248.64 -336.329)"/></g><g class="j" transform="translate(31.181)"><path class="k" d="M267.94,355.97a.222.222,0,0,1-.211-.157l-5.712-19.2a.22.22,0,0,1,.422-.126l5.713,19.2a.219.219,0,0,1-.148.273A.2.2,0,0,1,267.94,355.97Z" transform="translate(-262.008 -336.329)"/></g><g class="j" transform="translate(38.976)"><path class="k" d="M281.307,355.97a.222.222,0,0,1-.211-.157l-5.712-19.2a.22.22,0,0,1,.422-.126l5.713,19.2a.219.219,0,0,1-.148.273A.2.2,0,0,1,281.307,355.97Z" transform="translate(-275.375 -336.329)"/></g><g class="j" transform="translate(46.771)"><path class="k" d="M294.674,355.97a.222.222,0,0,1-.211-.157l-5.712-19.2a.22.22,0,0,1,.422-.126l5.713,19.2a.219.219,0,0,1-.148.273A.2.2,0,0,1,294.674,355.97Z" transform="translate(-288.742 -336.329)"/></g><g class="j" transform="translate(54.566)"><path class="k" d="M308.041,355.97a.222.222,0,0,1-.211-.157l-5.712-19.2a.22.22,0,0,1,.422-.126l5.713,19.2a.219.219,0,0,1-.148.273A.2.2,0,0,1,308.041,355.97Z" transform="translate(-302.109 -336.329)"/></g><g class="j" transform="translate(62.361)"><path class="k" d="M321.408,355.97a.222.222,0,0,1-.211-.157l-5.712-19.2a.22.22,0,0,1,.422-.126l5.713,19.2a.218.218,0,0,1-.148.273A.2.2,0,0,1,321.408,355.97Z" transform="translate(-315.476 -336.329)"/></g><g class="j" transform="translate(70.156)"><path class="k" d="M334.775,355.97a.222.222,0,0,1-.211-.157l-5.712-19.2a.22.22,0,0,1,.422-.126l5.713,19.2a.218.218,0,0,1-.148.273A.2.2,0,0,1,334.775,355.97Z" transform="translate(-328.843 -336.329)"/></g><g class="j" transform="translate(77.951)"><path class="k" d="M348.142,355.97a.22.22,0,0,1-.211-.157l-5.713-19.2a.22.22,0,0,1,.422-.126l5.713,19.2a.218.218,0,0,1-.148.273A.2.2,0,0,1,348.142,355.97Z" transform="translate(-342.21 -336.329)"/></g><g class="j" transform="translate(85.746)"><path class="k" d="M361.509,355.97a.22.22,0,0,1-.211-.157l-5.713-19.2a.22.22,0,0,1,.422-.126l5.713,19.2a.218.218,0,0,1-.148.273A.2.2,0,0,1,361.509,355.97Z" transform="translate(-355.577 -336.329)"/></g><g class="j" transform="translate(93.542)"><path class="k" d="M374.876,355.97a.221.221,0,0,1-.211-.157l-5.713-19.2a.22.22,0,0,1,.422-.126l5.712,19.2a.218.218,0,0,1-.148.273A.2.2,0,0,1,374.876,355.97Z" transform="translate(-368.944 -336.329)"/></g><g class="j" transform="translate(101.337)"><path class="k" d="M388.244,355.97a.221.221,0,0,1-.211-.157l-5.713-19.2a.22.22,0,0,1,.422-.126l5.713,19.2a.218.218,0,0,1-.148.273A.194.194,0,0,1,388.244,355.97Z" transform="translate(-382.311 -336.329)"/></g><g class="j" transform="translate(109.132)"><path class="k" d="M401.611,355.97a.221.221,0,0,1-.211-.157l-5.713-19.2a.22.22,0,0,1,.422-.126l5.712,19.2a.218.218,0,0,1-.148.273A.194.194,0,0,1,401.611,355.97Z" transform="translate(-395.678 -336.329)"/></g><g class="j" transform="translate(116.927)"><path class="k" d="M414.978,355.97a.221.221,0,0,1-.211-.157l-5.713-19.2a.22.22,0,0,1,.422-.126l5.712,19.2a.218.218,0,0,1-.148.273A.194.194,0,0,1,414.978,355.97Z" transform="translate(-409.045 -336.329)"/></g><g class="j" transform="translate(124.722)"><path class="k" d="M428.345,355.97a.221.221,0,0,1-.211-.157l-5.713-19.2a.22.22,0,0,1,.422-.126l5.712,19.2a.218.218,0,0,1-.148.273A.2.2,0,0,1,428.345,355.97Z" transform="translate(-422.412 -336.329)"/></g><g class="j" transform="translate(132.517)"><path class="k" d="M441.712,355.97a.221.221,0,0,1-.211-.157l-5.713-19.2a.22.22,0,0,1,.422-.126l5.712,19.2a.218.218,0,0,1-.148.273A.2.2,0,0,1,441.712,355.97Z" transform="translate(-435.779 -336.329)"/></g><g class="j" transform="translate(140.312)"><path class="k" d="M455.079,355.97a.221.221,0,0,1-.211-.157l-5.713-19.2a.22.22,0,0,1,.422-.126l5.713,19.2a.219.219,0,0,1-.148.273A.2.2,0,0,1,455.079,355.97Z" transform="translate(-449.146 -336.329)"/></g><g class="j" transform="translate(148.107)"><path class="k" d="M468.446,355.97a.221.221,0,0,1-.211-.157l-5.713-19.2a.22.22,0,0,1,.422-.126l5.713,19.2a.219.219,0,0,1-.148.273A.2.2,0,0,1,468.446,355.97Z" transform="translate(-462.513 -336.329)"/></g><g class="j" transform="translate(155.903)"><path class="k" d="M481.813,355.97a.222.222,0,0,1-.211-.157l-5.712-19.2a.22.22,0,0,1,.422-.126l5.713,19.2a.219.219,0,0,1-.148.273A.2.2,0,0,1,481.813,355.97Z" transform="translate(-475.881 -336.329)"/></g><g class="j" transform="translate(163.698)"><path class="k" d="M495.18,355.97a.222.222,0,0,1-.211-.157l-5.712-19.2a.22.22,0,0,1,.422-.126l5.713,19.2a.219.219,0,0,1-.148.273A.2.2,0,0,1,495.18,355.97Z" transform="translate(-489.248 -336.329)"/></g><g class="j" transform="translate(171.493)"><path class="k" d="M508.547,355.97a.222.222,0,0,1-.211-.157l-5.712-19.2a.22.22,0,0,1,.422-.126l5.713,19.2a.219.219,0,0,1-.148.273A.2.2,0,0,1,508.547,355.97Z" transform="translate(-502.615 -336.329)"/></g><g class="j" transform="translate(179.288)"><path class="k" d="M521.914,355.97a.22.22,0,0,1-.211-.157l-5.713-19.2a.22.22,0,0,1,.422-.126l5.713,19.2a.219.219,0,0,1-.148.273A.2.2,0,0,1,521.914,355.97Z" transform="translate(-515.982 -336.329)"/></g><g class="j" transform="translate(187.083)"><path class="k" d="M535.281,355.97a.22.22,0,0,1-.211-.157l-5.713-19.2a.22.22,0,0,1,.422-.126l5.713,19.2a.219.219,0,0,1-.148.273A.2.2,0,0,1,535.281,355.97Z" transform="translate(-529.349 -336.329)"/></g><g class="j" transform="translate(194.878)"><path class="k" d="M548.648,355.97a.22.22,0,0,1-.211-.157l-5.713-19.2a.22.22,0,0,1,.422-.126l5.713,19.2a.218.218,0,0,1-.148.273A.2.2,0,0,1,548.648,355.97Z" transform="translate(-542.716 -336.329)"/></g><g class="j" transform="translate(202.674)"><path class="k" d="M562.015,355.97a.22.22,0,0,1-.21-.157l-5.713-19.2a.22.22,0,0,1,.422-.126l5.713,19.2a.218.218,0,0,1-.148.273A.2.2,0,0,1,562.015,355.97Z" transform="translate(-556.083 -336.329)"/></g><g class="j" transform="translate(210.469)"><path class="k" d="M575.382,355.97a.22.22,0,0,1-.21-.157l-5.713-19.2a.22.22,0,0,1,.422-.126l5.713,19.2a.218.218,0,0,1-.148.273A.2.2,0,0,1,575.382,355.97Z" transform="translate(-569.45 -336.329)"/></g><g class="j" transform="translate(218.264)"><path class="k" d="M588.75,355.97a.221.221,0,0,1-.211-.157l-5.713-19.2a.22.22,0,0,1,.422-.126l5.712,19.2a.218.218,0,0,1-.148.273A.194.194,0,0,1,588.75,355.97Z" transform="translate(-582.817 -336.329)"/></g><g class="j" transform="translate(226.059)"><path class="k" d="M602.117,355.97a.221.221,0,0,1-.211-.157l-5.713-19.2a.22.22,0,0,1,.422-.126l5.712,19.2a.218.218,0,0,1-.148.273A.194.194,0,0,1,602.117,355.97Z" transform="translate(-596.184 -336.329)"/></g><g class="j" transform="translate(233.854)"><path class="k" d="M615.484,355.97a.221.221,0,0,1-.211-.157l-5.713-19.2a.22.22,0,0,1,.422-.126l5.712,19.2a.218.218,0,0,1-.148.273A.193.193,0,0,1,615.484,355.97Z" transform="translate(-609.551 -336.329)"/></g><g class="j" transform="translate(241.649)"><path class="k" d="M628.851,355.97a.221.221,0,0,1-.211-.157l-5.713-19.2a.22.22,0,0,1,.422-.126l5.712,19.2a.218.218,0,0,1-.148.273A.2.2,0,0,1,628.851,355.97Z" transform="translate(-622.918 -336.329)"/></g><g class="j" transform="translate(249.445)"><path class="k" d="M642.219,355.97a.221.221,0,0,1-.211-.157l-5.711-19.2a.22.22,0,0,1,.422-.126l5.712,19.2a.219.219,0,0,1-.148.273A.2.2,0,0,1,642.219,355.97Z" transform="translate(-636.286 -336.329)"/></g><g class="j" transform="translate(257.24)"><path class="k" d="M655.586,355.97a.222.222,0,0,1-.211-.157l-5.711-19.2a.22.22,0,0,1,.422-.126l5.712,19.2a.219.219,0,0,1-.148.273A.2.2,0,0,1,655.586,355.97Z" transform="translate(-649.654 -336.329)"/></g><g class="j" transform="translate(265.035)"><path class="k" d="M668.953,355.97a.222.222,0,0,1-.211-.157l-5.711-19.2a.22.22,0,0,1,.422-.126l5.712,19.2a.218.218,0,0,1-.148.273A.2.2,0,0,1,668.953,355.97Z" transform="translate(-663.021 -336.329)"/></g><g class="j" transform="translate(272.831)"><path class="k" d="M682.32,355.97a.222.222,0,0,1-.211-.157l-5.711-19.2a.22.22,0,0,1,.422-.126l5.711,19.2a.219.219,0,0,1-.148.273A.2.2,0,0,1,682.32,355.97Z" transform="translate(-676.388 -336.329)"/></g><g class="j" transform="translate(280.626)"><path class="k" d="M695.687,355.97a.222.222,0,0,1-.211-.157l-5.712-19.2a.22.22,0,0,1,.422-.126l5.711,19.2a.219.219,0,0,1-.148.273A.2.2,0,0,1,695.687,355.97Z" transform="translate(-689.755 -336.329)"/></g><g class="j" transform="translate(288.421)"><path class="k" d="M709.054,355.97a.222.222,0,0,1-.211-.157l-5.711-19.2a.22.22,0,0,1,.422-.126l5.712,19.2a.219.219,0,0,1-.148.273A.2.2,0,0,1,709.054,355.97Z" transform="translate(-703.122 -336.329)"/></g><g class="j" transform="translate(296.216)"><path class="k" d="M722.421,355.97a.222.222,0,0,1-.211-.157l-5.711-19.2a.22.22,0,0,1,.422-.126l5.711,19.2a.219.219,0,0,1-.148.273A.2.2,0,0,1,722.421,355.97Z" transform="translate(-716.489 -336.329)"/></g><g class="j" transform="translate(304.011)"><path class="k" d="M735.788,355.97a.22.22,0,0,1-.211-.157l-5.712-19.2a.22.22,0,0,1,.422-.126l5.711,19.2a.218.218,0,0,1-.148.273A.2.2,0,0,1,735.788,355.97Z" transform="translate(-729.856 -336.329)"/></g><g class="j" transform="translate(311.806)"><path class="k" d="M749.155,355.97a.22.22,0,0,1-.21-.157l-5.712-19.2a.22.22,0,0,1,.422-.126l5.711,19.2a.218.218,0,0,1-.148.273A.2.2,0,0,1,749.155,355.97Z" transform="translate(-743.223 -336.329)"/></g><g class="j" transform="translate(319.601)"><path class="k" d="M762.522,355.97a.221.221,0,0,1-.211-.157l-5.712-19.2a.22.22,0,0,1,.422-.126l5.711,19.2a.218.218,0,0,1-.148.273A.2.2,0,0,1,762.522,355.97Z" transform="translate(-756.59 -336.329)"/></g><g class="j" transform="translate(327.397)"><path class="k" d="M775.89,355.97a.221.221,0,0,1-.211-.157l-5.711-19.2a.22.22,0,0,1,.422-.126l5.711,19.2a.218.218,0,0,1-.148.273A.194.194,0,0,1,775.89,355.97Z" transform="translate(-769.958 -336.329)"/></g><g class="j" transform="translate(335.192)"><path class="k" d="M789.257,355.97a.221.221,0,0,1-.211-.157l-5.711-19.2a.22.22,0,0,1,.422-.126l5.711,19.2a.218.218,0,0,1-.148.273A.194.194,0,0,1,789.257,355.97Z" transform="translate(-783.325 -336.329)"/></g><g class="j" transform="translate(342.987)"><path class="k" d="M802.624,355.97a.221.221,0,0,1-.211-.157l-5.711-19.2a.22.22,0,0,1,.422-.126l5.711,19.2a.218.218,0,0,1-.148.273A.2.2,0,0,1,802.624,355.97Z" transform="translate(-796.692 -336.329)"/></g><g class="j" transform="translate(350.782)"><path class="k" d="M815.991,355.97a.221.221,0,0,1-.211-.157l-5.711-19.2a.22.22,0,0,1,.422-.126l5.711,19.2a.218.218,0,0,1-.148.273A.2.2,0,0,1,815.991,355.97Z" transform="translate(-810.059 -336.329)"/></g><g class="j" transform="translate(358.577)"><path class="k" d="M829.358,355.97a.221.221,0,0,1-.211-.157l-5.711-19.2a.22.22,0,0,1,.422-.126l5.712,19.2a.218.218,0,0,1-.148.273A.2.2,0,0,1,829.358,355.97Z" transform="translate(-823.425 -336.329)"/></g><g class="j" transform="translate(366.372)"><path class="k" d="M842.725,355.97a.222.222,0,0,1-.211-.157l-5.712-19.2a.22.22,0,0,1,.422-.126l5.712,19.2a.219.219,0,0,1-.148.273A.2.2,0,0,1,842.725,355.97Z" transform="translate(-836.793 -336.329)"/></g><g class="j" transform="translate(374.167)"><path class="k" d="M856.092,355.97a.222.222,0,0,1-.211-.157l-5.711-19.2a.22.22,0,0,1,.422-.126l5.712,19.2a.219.219,0,0,1-.148.273A.2.2,0,0,1,856.092,355.97Z" transform="translate(-850.159 -336.329)"/></g><g class="j" transform="translate(381.963)"><path class="k" d="M869.459,355.97a.222.222,0,0,1-.211-.157l-5.711-19.2a.22.22,0,0,1,.422-.126l5.712,19.2a.219.219,0,0,1-.148.273A.2.2,0,0,1,869.459,355.97Z" transform="translate(-863.527 -336.329)"/></g><g class="j" transform="translate(389.758)"><path class="k" d="M882.826,355.97a.222.222,0,0,1-.211-.157l-5.711-19.2a.22.22,0,0,1,.422-.126l5.711,19.2a.218.218,0,0,1-.148.273A.2.2,0,0,1,882.826,355.97Z" transform="translate(-876.894 -336.329)"/></g><g class="j" transform="translate(397.553)"><path class="k" d="M896.193,355.97a.222.222,0,0,1-.211-.157l-5.711-19.2a.22.22,0,0,1,.422-.126l5.711,19.2a.219.219,0,0,1-.148.273A.2.2,0,0,1,896.193,355.97Z" transform="translate(-890.261 -336.329)"/></g></g><g transform="translate(34.988 9.151)"><path class="l" d="M275.394,377.208H254.01V360.765L264.7,348.283l10.692,12.482Z" transform="translate(-251.214 -348.283)"/><rect class="m" width="21.384" height="3.393" transform="translate(2.796 25.532)"/><path class="n" d="M276.192,401.306H249.216l2.8-3.422H273.4Z" transform="translate(-249.216 -368.959)"/><g transform="translate(81.448)"><path class="l" d="M415.06,377.208H393.676V360.765l10.692-12.482,10.692,12.482Z" transform="translate(-390.88 -348.283)"/><rect class="m" width="21.384" height="3.393" transform="translate(2.796 25.532)"/><path class="n" d="M415.858,401.306H388.882l2.8-3.422h21.384Z" transform="translate(-388.882 -368.959)"/></g><g transform="translate(162.895)"><path class="l" d="M554.726,377.208H533.342V360.765l10.692-12.482,10.692,12.482Z" transform="translate(-530.546 -348.283)"/><rect class="m" width="21.384" height="3.393" transform="translate(2.796 25.532)"/><path class="n" d="M555.523,401.306H528.548l2.8-3.422h21.384Z" transform="translate(-528.548 -368.959)"/></g><g transform="translate(244.343)"><path class="l" d="M694.392,377.208H673.008V360.765L683.7,348.283l10.692,12.482Z" transform="translate(-670.212 -348.283)"/><rect class="m" width="21.384" height="3.393" transform="translate(2.796 25.532)"/><path class="n" d="M695.189,401.306H668.214l2.8-3.422h21.384Z" transform="translate(-668.214 -368.959)"/></g><g transform="translate(325.79)"><path class="l" d="M834.058,377.208H812.673V360.765l10.692-12.482,10.692,12.482Z" transform="translate(-809.878 -348.283)"/><rect class="m" width="21.384" height="3.393" transform="translate(2.796 25.532)"/><path class="n" d="M834.855,401.306H807.879l2.8-3.422H832.06Z" transform="translate(-807.879 -368.959)"/></g></g></g><g transform="translate(0)"><rect class="o" width="61.113" height="34.743" transform="translate(0 53.631)"/><path class="p" d="M5.073,0H57.22a0,0,0,0,1,0,0V58.081a0,0,0,0,1,0,0H5.073A5.073,5.073,0,0,1,0,53.008V5.073A5.073,5.073,0,0,1,5.073,0Z" transform="translate(62.048 58.081) rotate(180)"/><path class="q" d="M0,0H52.147A5.073,5.073,0,0,1,57.22,5.073V53.008a5.073,5.073,0,0,1-5.073,5.073H0a0,0,0,0,1,0,0V0A0,0,0,0,1,0,0Z" transform="translate(57.22 58.081) rotate(180)"/><ellipse class="p" cx="22.872" cy="23.216" rx="22.872" ry="23.216" transform="translate(5.738 5.824)"/><path class="q" d="M147.505,341.391a4.544,4.544,0,0,1,4.51-4.578h8.429l-9.15-9.287a4.464,4.464,0,0,1,6.379,0l5.96,6.05V320.442a4.544,4.544,0,0,1,4.51,4.578v8.556l9.149-9.287a4.625,4.625,0,0,1,0,6.474l-5.96,6.05h12.939a4.545,4.545,0,0,1-4.51,4.578h-8.429l9.149,9.287a4.463,4.463,0,0,1-6.378,0l-5.96-6.05v13.133a4.545,4.545,0,0,1-4.51-4.578v-8.556l-9.149,9.287a4.627,4.627,0,0,1,0-6.474l5.96-6.05Z" transform="translate(-137.278 -310.061)"/><path class="p" d="M172.921,349.856a3.562,3.562,0,1,0,3.561-3.616A3.588,3.588,0,0,0,172.921,349.856Z" transform="translate(-147.872 -320.815)"/><path class="r" d="M183.074,309.476a1.633,1.633,0,1,0,1.633-1.657A1.645,1.645,0,0,0,183.074,309.476Zm-44.739,0a1.633,1.633,0,1,0-1.633,1.657A1.645,1.645,0,0,0,138.335,309.476ZM183.074,358.2a1.633,1.633,0,1,0,1.633-1.657A1.645,1.645,0,0,0,183.074,358.2Zm-48.005,0a1.633,1.633,0,1,0,1.633-1.657A1.645,1.645,0,0,0,135.069,358.2Z" transform="translate(-132.094 -304.799)"/><g transform="translate(429.799 0)"><rect class="g" width="61.113" height="34.743" transform="translate(0.936 53.631)"/><path class="p" d="M5.073,0H57.22a0,0,0,0,1,0,0V58.081a0,0,0,0,1,0,0H5.073A5.073,5.073,0,0,1,0,53.008V5.073A5.073,5.073,0,0,1,5.073,0Z"/><path class="q" d="M0,0H52.147A5.073,5.073,0,0,1,57.22,5.073V53.008a5.073,5.073,0,0,1-5.073,5.073H0a0,0,0,0,1,0,0V0A0,0,0,0,1,0,0Z" transform="translate(4.828)"/><ellipse class="p" cx="22.872" cy="23.216" rx="22.872" ry="23.216" transform="translate(10.566 5.824)"/><path class="q" d="M929.568,341.391a4.544,4.544,0,0,0-4.51-4.578h-8.428l9.149-9.287a4.464,4.464,0,0,0-6.379,0l-5.96,6.05V320.442a4.545,4.545,0,0,0-4.51,4.578v8.556l-9.149-9.287a4.626,4.626,0,0,0,0,6.474l5.96,6.05H892.8a4.544,4.544,0,0,0,4.51,4.578h8.428l-9.149,9.287a4.464,4.464,0,0,0,6.379,0l5.96-6.05v13.133a4.545,4.545,0,0,0,4.51-4.578v-8.556l9.149,9.287a4.627,4.627,0,0,0,0-6.474l-5.96-6.05Z" transform="translate(-877.747 -310.061)"/><ellipse class="p" cx="3.562" cy="3.615" rx="3.562" ry="3.615" transform="translate(29.876 25.425)"/><path class="r" d="M882,307.819a1.658,1.658,0,1,0,1.632,1.657A1.645,1.645,0,0,0,882,307.819Zm48,3.315a1.658,1.658,0,1,0-1.632-1.657A1.645,1.645,0,0,0,930,311.134Zm-48,45.412a1.658,1.658,0,1,0,1.632,1.657A1.645,1.645,0,0,0,882,356.546Zm48,0a1.658,1.658,0,1,0,1.633,1.657A1.645,1.645,0,0,0,930,356.546Z" transform="translate(-872.563 -304.799)"/></g></g></g><g transform="translate(200.282 46.898)"><g transform="translate(0)"><rect class="s" width="46.791" height="579.262" transform="translate(26.173 33.042)"/><rect class="t" width="26.295" height="579.262" transform="translate(36.422 33.042)"/><path class="r" d="M489.117,80.421v17.82L502.2,113.463h46.791l13.087-15.222V80.421Z" transform="translate(-476.03 -80.421)"/><path class="q" d="M507.456,80.421v17.82l12.607,15.222h26.361l12.607-15.222V80.421Z" transform="translate(-483.675 -80.421)"/><rect class="u" width="580.566" height="26.173" transform="translate(26.173 31.738) rotate(90)"/><rect class="v" width="580.566" height="26.173" transform="translate(99.138 31.738) rotate(90)"/></g><g transform="translate(866.299)"><rect class="w" width="46.791" height="579.262" transform="translate(26.173 33.042)"/><path class="t" d="M0,0H26.295V579.262H0Z" transform="translate(36.421 33.042)"/><path class="r" d="M2258.192,80.421v17.82l13.086,15.222h46.792l13.087-15.222V80.421Z" transform="translate(-2245.106 -80.421)"/><path class="q" d="M2276.532,80.421v17.82l12.607,15.222H2315.5l12.607-15.222V80.421Z" transform="translate(-2252.75 -80.421)"/><rect class="x" width="580.566" height="26.173" transform="translate(26.173 31.738) rotate(90)"/><rect class="y" width="580.566" height="26.173" transform="translate(99.138 31.738) rotate(90)"/></g></g><g transform="translate(0 -16)"><rect class="z" width="1366" height="73.433"/><rect class="w" width="1366" height="9.733" transform="translate(0 68.904)"/><rect class="aa" width="1366" height="244.647" transform="translate(0 45.637)"/><path class="ab" d="M0,0H1366V46.9H0Z"/><rect class="ac" width="1366" height="244.647" transform="translate(0 -5.363)"/><path class="ac" d="M0,0S1024.5-61.162,1366,0s0,244.647,0,244.647H0Z" transform="translate(-42 -19.363)"/></g><g transform="translate(206.033 -11)"><g transform="translate(104.974 482.013)"><g transform="translate(51.125)"><rect class="a" width="40.922" height="71.989" transform="translate(50.917 71.989) rotate(180)"/><rect class="t" width="9.995" height="71.989"/><rect class="t" width="29.02" height="13.331" transform="translate(44.966 22.258) rotate(180)"/><g transform="translate(15.946 28.233)"><rect class="t" width="29.02" height="1.763"/></g><g transform="translate(15.946 34.184)"><rect class="t" width="29.02" height="1.763"/></g><g transform="translate(15.946 40.135)"><rect class="t" width="29.02" height="1.763"/></g><g transform="translate(15.946 46.086)"><rect class="t" width="29.02" height="1.763"/></g></g><rect class="a" width="40.922" height="71.989" transform="translate(50.917 71.989) rotate(180)"/><rect class="ad" width="9.995" height="71.989"/><rect class="t" width="29.02" height="13.331" transform="translate(44.966 22.258) rotate(180)"/><g transform="translate(15.947 28.233)"><rect class="t" width="29.02" height="1.763"/></g><g transform="translate(15.947 34.184)"><rect class="t" width="29.02" height="1.763"/></g><g transform="translate(15.947 40.135)"><rect class="t" width="29.02" height="1.763"/></g><g transform="translate(15.947 46.086)"><rect class="t" width="29.02" height="1.763"/></g></g><g transform="translate(223.918 505.042)"><path class="a" d="M1012.291,949.825a4.643,4.643,0,0,0,4.643-4.643v-32.4h-9.285v32.4A4.642,4.642,0,0,0,1012.291,949.825Z" transform="translate(-945.98 -906.868)"/><rect class="ae" width="12.473" height="11.72" rx="1.923" transform="translate(72.548 11.72) rotate(180)"/><path class="a" d="M987.4,949.825a4.642,4.642,0,0,0,4.643-4.643v-32.4h-9.284v32.4A4.642,4.642,0,0,0,987.4,949.825Z" transform="translate(-935.606 -906.868)"/><rect class="ae" width="12.473" height="11.72" rx="1.923" transform="translate(58.035 11.72) rotate(180)"/><path class="a" d="M962.517,949.825a4.643,4.643,0,0,0,4.643-4.643v-32.4h-9.285v32.4A4.642,4.642,0,0,0,962.517,949.825Z" transform="translate(-925.232 -906.868)"/><path class="ae" d="M1.923,0H10.55a1.923,1.923,0,0,1,1.923,1.923V9.8A1.923,1.923,0,0,1,10.55,11.72H1.923A1.923,1.923,0,0,1,0,9.8V1.923A1.923,1.923,0,0,1,1.923,0Z" transform="translate(43.521 11.72) rotate(180)"/><path class="a" d="M937.629,949.825a4.642,4.642,0,0,0,4.643-4.643v-32.4h-9.285v32.4A4.642,4.642,0,0,0,937.629,949.825Z" transform="translate(-914.858 -906.868)"/><rect class="ae" width="12.473" height="11.72" rx="1.923" transform="translate(29.008 11.72) rotate(180)"/><path class="a" d="M912.742,949.825a4.643,4.643,0,0,0,4.643-4.643v-32.4H908.1v32.4A4.642,4.642,0,0,0,912.742,949.825Z" transform="translate(-904.483 -906.868)"/><rect class="ae" width="12.473" height="11.72" rx="1.923" transform="translate(14.495 11.72) rotate(180)"/><path class="ae" d="M904.541,944.995h70.169a1.583,1.583,0,1,0,0-3.167H904.541a1.583,1.583,0,0,0,0,3.167Z" transform="translate(-902.34 -918.975)"/><path class="a" d="M906.642,978.076h65.084a4.743,4.743,0,0,1,4.742,4.743H901.9A4.743,4.743,0,0,1,906.642,978.076Z" transform="translate(-901.899 -934.084)"/></g><g transform="translate(-47.033 547.37)"><rect class="a" width="308.03" height="123.633" transform="translate(415.807 158.018) rotate(180)"/><path class="af" d="M0,0H271.742a0,0,0,0,1,0,0V79.425A14.038,14.038,0,0,1,257.7,93.463H14.038A14.038,14.038,0,0,1,0,79.425V0A0,0,0,0,1,0,0Z" transform="translate(397.663 158.018) rotate(180)"/><path class="t" d="M0,0H398.573V7.888H0Z" transform="translate(415.807 42.272) rotate(180)"/><path class="a" d="M0,0H433.042a0,0,0,0,1,0,0V9.493A24.892,24.892,0,0,1,408.15,34.385H24.892A24.892,24.892,0,0,1,0,9.493V0A0,0,0,0,1,0,0Z" transform="translate(433.042 34.385) rotate(180)"/><rect class="af" width="90.543" height="123.633" transform="translate(107.777 158.018) rotate(180)"/><path class="a" d="M795.939,1168a5.485,5.485,0,1,0,5.485-5.484A5.484,5.484,0,0,0,795.939,1168Zm14.878-29.755a5.484,5.484,0,1,0,5.484-5.485A5.484,5.484,0,0,0,810.817,1138.25Zm0-14.878a5.484,5.484,0,1,0,5.484-5.485A5.484,5.484,0,0,0,810.817,1123.373Zm-14.878,14.878a5.485,5.485,0,1,0,5.485-5.485A5.485,5.485,0,0,0,795.939,1138.25Zm0-14.878a5.485,5.485,0,1,0,5.485-5.485A5.485,5.485,0,0,0,795.939,1123.373Zm0,29.755a5.485,5.485,0,1,0,5.485-5.485A5.485,5.485,0,0,0,795.939,1153.128Zm29.755,0a5.485,5.485,0,1,0,5.485-5.485A5.485,5.485,0,0,0,825.693,1153.128Zm0,14.877a5.485,5.485,0,1,0,5.485-5.484A5.485,5.485,0,0,0,825.693,1168Zm-14.877-14.877a5.484,5.484,0,1,0,5.484-5.485A5.484,5.484,0,0,0,810.817,1153.128Zm14.877-29.755a5.485,5.485,0,1,0,5.485-5.485A5.485,5.485,0,0,0,825.693,1123.373ZM810.817,1168a5.484,5.484,0,1,0,5.484-5.484A5.484,5.484,0,0,0,810.817,1168Zm14.877-29.755a5.485,5.485,0,1,0,5.485-5.485A5.485,5.485,0,0,0,825.693,1138.25Zm-230.522,14.877a5.485,5.485,0,1,0,5.485-5.485A5.485,5.485,0,0,0,595.171,1153.128Zm0,14.877a5.485,5.485,0,1,0,5.485-5.484A5.484,5.484,0,0,0,595.171,1168Zm14.878-44.632a5.485,5.485,0,1,0,5.485-5.485A5.484,5.484,0,0,0,610.049,1123.373Zm-3.908,0a5.485,5.485,0,1,0-5.485,5.484A5.485,5.485,0,0,0,606.14,1123.373Zm-10.969,14.878a5.485,5.485,0,1,0,5.485-5.485A5.485,5.485,0,0,0,595.171,1138.25Zm14.878,0a5.485,5.485,0,1,0,5.485-5.485A5.484,5.484,0,0,0,610.049,1138.25Zm14.877,0a5.485,5.485,0,1,0,5.485-5.485A5.485,5.485,0,0,0,624.925,1138.25Zm0,29.755a5.485,5.485,0,1,0,5.485-5.484A5.485,5.485,0,0,0,624.925,1168Zm-14.877-14.877a5.485,5.485,0,1,0,5.485-5.485A5.484,5.484,0,0,0,610.049,1153.128Zm14.877,0a5.485,5.485,0,1,0,5.485-5.485A5.485,5.485,0,0,0,624.925,1153.128Zm0-29.755a5.485,5.485,0,1,0,5.485-5.485A5.485,5.485,0,0,0,624.925,1123.373ZM610.049,1168a5.485,5.485,0,1,0,5.485-5.484A5.484,5.484,0,0,0,610.049,1168Z" transform="translate(-454.124 -1041.098)"/><rect class="a" width="136.539" height="55.601" transform="translate(330.062 132.392) rotate(180)"/></g><g transform="translate(658.967 -45)"><path class="ag" d="M2169.067,89.338h-89.823A41.393,41.393,0,0,1,2037.9,47.992V0h3.526V47.992a37.862,37.862,0,0,0,37.82,37.819h89.823a37.862,37.862,0,0,0,37.819-37.819V0h3.527V47.992A41.393,41.393,0,0,1,2169.067,89.338Z" transform="translate(-2037.898)"/></g><g transform="translate(264.385)"><path class="ag" d="M1171.807,125.294h-1.432a27.072,27.072,0,0,1-27.042-27.042V0h3.526V98.252a23.543,23.543,0,0,0,23.516,23.515h1.432a23.542,23.542,0,0,0,23.515-23.515V0h3.527V98.252A27.073,27.073,0,0,1,1171.807,125.294Z" transform="translate(-1143.333)"/></g><g transform="translate(-127.033 581.755)"><rect class="ah" width="107.414" height="80.61" transform="translate(117.557 102.122) rotate(180)"/><rect class="ah" width="107.414" height="5.651" transform="translate(117.557 102.122) rotate(180)"/><g transform="translate(0 102.122)"><path class="af" d="M0,0H80.088a5.046,5.046,0,0,1,5.046,5.045v11.42a5.046,5.046,0,0,1-5.046,5.045H0Z" transform="translate(85.133 21.511) rotate(180)"/><path class="a" d="M5.045,0H85.133a0,0,0,0,1,0,0V21.511a0,0,0,0,1,0,0H5.045A5.045,5.045,0,0,1,0,16.466V5.045A5.045,5.045,0,0,1,5.045,0Z" transform="translate(127.699 21.511) rotate(180)"/><rect class="ai" width="5.093" height="11.096" transform="translate(50.298 5.208)"/><path class="ai" d="M1016.914,1229.22h-5.093v11.1h5.093Zm-7.276,0h-5.093v11.1h5.093Zm-7.276,0h-5.094v11.1h5.094Zm-7.277,0h-5.093v11.1h5.093Zm-12.369,0v11.1h5.093v-11.1Z" transform="translate(-914.682 -1224.012)"/><rect class="aj" width="5.094" height="5.093" transform="translate(119.969 10.301) rotate(180)"/><rect class="ai" width="5.094" height="5.093" transform="translate(119.969 16.304) rotate(180)"/></g><g transform="translate(0 76.591)"><path class="af" d="M0,0H80.088a5.045,5.045,0,0,1,5.045,5.045v11.42a5.045,5.045,0,0,1-5.045,5.045H0a0,0,0,0,1,0,0V0A0,0,0,0,1,0,0Z" transform="translate(85.133 21.511) rotate(180)"/><path class="a" d="M5.045,0H85.133a0,0,0,0,1,0,0V21.511a0,0,0,0,1,0,0H5.045A5.045,5.045,0,0,1,0,16.466V5.045A5.045,5.045,0,0,1,5.045,0Z" transform="translate(127.699 21.511) rotate(180)"/><rect class="ai" width="5.093" height="11.096" transform="translate(50.298 5.208)"/><path class="ai" d="M1016.914,1185.44h-5.093v11.1h5.093Zm-7.276,0h-5.093v11.1h5.093Zm-7.276,0h-5.094v11.1h5.094Zm-7.277,0h-5.093v11.1h5.093Zm-12.369,0v11.1h5.093v-11.1Z" transform="translate(-914.682 -1180.232)"/><rect class="aj" width="5.094" height="5.093" transform="translate(119.969 10.301) rotate(180)"/><rect class="ai" width="5.094" height="5.093" transform="translate(119.969 16.304) rotate(180)"/></g><g transform="translate(0 51.061)"><path class="af" d="M0,0H80.088a5.045,5.045,0,0,1,5.045,5.045v11.42a5.045,5.045,0,0,1-5.045,5.045H0a0,0,0,0,1,0,0V0A0,0,0,0,1,0,0Z" transform="translate(85.133 21.511) rotate(180)"/><path class="a" d="M5.045,0H85.133a0,0,0,0,1,0,0V21.511a0,0,0,0,1,0,0H5.045A5.045,5.045,0,0,1,0,16.466V5.045A5.045,5.045,0,0,1,5.045,0Z" transform="translate(127.699 21.511) rotate(180)"/><rect class="ai" width="5.093" height="11.096" transform="translate(50.298 5.208)"/><path class="ai" d="M1016.914,1141.66h-5.093v11.1h5.093Zm-7.276,0h-5.093v11.1h5.093Zm-7.276,0h-5.094v11.1h5.094Zm-7.277,0h-5.093v11.1h5.093Zm-12.369,0v11.1h5.093v-11.1Z" transform="translate(-914.682 -1136.453)"/><rect class="aj" width="5.094" height="5.093" transform="translate(119.969 10.301) rotate(180)"/><rect class="ai" width="5.094" height="5.094" transform="translate(119.969 16.304) rotate(180)"/></g><g transform="translate(0 25.53)"><path class="ak" d="M0,0H80.087a5.046,5.046,0,0,1,5.046,5.046v11.42a5.045,5.045,0,0,1-5.045,5.045H0a0,0,0,0,1,0,0V0A0,0,0,0,1,0,0Z" transform="translate(85.133 21.512) rotate(180)"/><path class="a" d="M5.045,0H85.133a0,0,0,0,1,0,0V21.512a0,0,0,0,1,0,0H5.046A5.046,5.046,0,0,1,0,16.466V5.045A5.045,5.045,0,0,1,5.045,0Z" transform="translate(127.699 21.512) rotate(180)"/><rect class="ai" width="5.093" height="11.096" transform="translate(50.298 5.208)"/><path class="ai" d="M1016.914,1097.881h-5.093v11.1h5.093Zm-7.276,0h-5.093v11.1h5.093Zm-7.276,0h-5.094v11.1h5.094Zm-7.277,0h-5.093v11.1h5.093Zm-12.369,0v11.1h5.093v-11.1Z" transform="translate(-914.682 -1092.673)"/><rect class="aj" width="5.094" height="5.093" transform="translate(119.969 10.301) rotate(180)"/><rect class="ai" width="5.094" height="5.093" transform="translate(119.969 16.304) rotate(180)"/></g><g transform="translate(0 0)"><path class="af" d="M0,0H80.088a5.045,5.045,0,0,1,5.045,5.045v11.42a5.045,5.045,0,0,1-5.045,5.045H0a0,0,0,0,1,0,0V0A0,0,0,0,1,0,0Z" transform="translate(85.133 21.511) rotate(180)"/><path class="a" d="M5.045,0H85.133a0,0,0,0,1,0,0V21.511a0,0,0,0,1,0,0H5.045A5.045,5.045,0,0,1,0,16.466V5.045A5.045,5.045,0,0,1,5.045,0Z" transform="translate(127.699 21.511) rotate(180)"/><rect class="ai" width="5.093" height="11.096" transform="translate(50.298 5.208)"/><path class="ai" d="M1016.914,1054.1h-5.093v11.1h5.093Zm-7.276,0h-5.093v11.1h5.093Zm-7.276,0h-5.094v11.1h5.094Zm-7.277,0h-5.093v11.1h5.093Zm-12.369,0v11.1h5.093v-11.1Z" transform="translate(-914.682 -1048.894)"/><rect class="aj" width="5.094" height="5.094" transform="translate(119.969 10.301) rotate(180)"/><rect class="ai" width="5.094" height="5.093" transform="translate(119.969 16.304) rotate(180)"/></g></g><g transform="translate(9.279 482.051)"><path class="al" d="M10.586,0h93.5a10.586,10.586,0,0,1,10.586,10.586v43.3a10.586,10.586,0,0,1-10.586,10.586h-93.5A10.586,10.586,0,0,1,0,53.888v-43.3A10.586,10.586,0,0,1,10.586,0Z" transform="translate(114.671 64.474) rotate(180)"/><rect class="a" width="84.374" height="64.474" rx="16.004" transform="translate(30.297)"/><path class="c" d="M4.1,0H66.389a4.1,4.1,0,0,1,4.1,4.1V46.491a4.1,4.1,0,0,1-4.1,4.1H4.1a4.1,4.1,0,0,1-4.1-4.1V4.1A4.1,4.1,0,0,1,4.1,0Z" transform="translate(37.238 6.941)"/><rect class="am" width="46.195" height="43.649" rx="7.141" transform="translate(58.063 10.412)"/><rect class="ah" width="89.253" height="7.476" transform="translate(98.627 71.951) rotate(180)"/><g transform="translate(3.674 37.942)"><path class="ah" d="M477.008,946.638a1.469,1.469,0,0,0,1.469-1.468V929.358a1.469,1.469,0,0,0-2.937,0V945.17A1.468,1.468,0,0,0,477.008,946.638ZM472.17,927.89a1.468,1.468,0,0,0-1.468,1.468V945.17a1.469,1.469,0,0,0,2.937,0V929.358A1.468,1.468,0,0,0,472.17,927.89Zm-4.837,0a1.468,1.468,0,0,0-1.469,1.468V945.17a1.469,1.469,0,0,0,2.937,0V929.358A1.468,1.468,0,0,0,467.334,927.89Zm-9.7,0a1.468,1.468,0,0,0-1.468,1.468V945.17a1.468,1.468,0,0,0,2.937,0V929.358A1.468,1.468,0,0,0,457.636,927.89Zm4.837,0A1.468,1.468,0,0,0,461,929.358V945.17a1.469,1.469,0,0,0,2.937,0V929.358A1.468,1.468,0,0,0,462.474,927.89Z" transform="translate(-456.168 -927.89)"/></g><path class="ah" d="M527.053,908.458h3.575a2.814,2.814,0,1,1,0,5.627h-3.575a2.814,2.814,0,1,1,0-5.627Z" transform="translate(-480.869 -881.848)"/><path class="a" d="M530.369,911.272a2.814,2.814,0,1,0,2.814-2.814A2.814,2.814,0,0,0,530.369,911.272Z" transform="translate(-483.424 -881.848)"/><path class="ah" d="M527.053,921.725h3.575a2.814,2.814,0,1,1,0,5.628h-3.575a2.814,2.814,0,0,1,0-5.628Z" transform="translate(-480.869 -887.378)"/><path class="a" d="M530.369,924.539a2.814,2.814,0,1,0,2.814-2.814A2.814,2.814,0,0,0,530.369,924.539Z" transform="translate(-483.424 -887.378)"/><path class="ah" d="M527.053,934.992h3.575a2.814,2.814,0,1,1,0,5.627h-3.575a2.814,2.814,0,1,1,0-5.627Z" transform="translate(-480.869 -892.909)"/><path class="a" d="M530.369,937.806a2.814,2.814,0,1,0,2.814-2.814A2.814,2.814,0,0,0,530.369,937.806Z" transform="translate(-483.424 -892.909)"/><rect class="ae" width="9.5" height="7.231" rx="1.628" transform="translate(52.339 17.643) rotate(180)"/><g transform="translate(72.267 17.205)"><g transform="translate(5.593)"><rect class="t" width="19.638" height="1.895"/><rect class="t" width="19.638" height="1.895" transform="translate(0 5.634)"/><rect class="t" width="19.638" height="1.895" transform="translate(0 11.267)"/><rect class="t" width="19.638" height="1.895" transform="translate(0 16.901)"/><rect class="t" width="19.638" height="1.895" transform="translate(0 22.534)"/><rect class="t" width="19.638" height="1.895" transform="translate(0 28.168)"/></g><rect class="t" width="3.857" height="1.895"/><rect class="t" width="3.857" height="1.895" transform="translate(0 5.634)"/><rect class="t" width="3.857" height="1.895" transform="translate(0 11.267)"/><rect class="t" width="3.857" height="1.895" transform="translate(0 16.901)"/><rect class="t" width="3.857" height="1.895" transform="translate(0 22.534)"/><rect class="t" width="3.857" height="1.895" transform="translate(0 28.168)"/></g></g><g transform="translate(25.954)"><path class="an" d="M867.195,68.317V0H849.562V68.317l-77.026,77.026V309.42h17.632V152.646l68.209-68.209,68.209,68.209V309.42h17.633V145.343Z" transform="translate(-717.097)"/><path class="a" d="M871.73,68.317V0H854.1V68.317l-77.026,77.026V309.42H794.7V152.646l68.209-68.209,68.209,68.209V309.42h17.632V145.343Z" transform="translate(-718.987)"/><g transform="translate(0 185.993)"><rect class="ai" width="131.583" height="87.722" rx="4.107" transform="translate(131.583 87.722) rotate(180)"/><rect class="a" width="131.583" height="87.722" rx="4.107" transform="translate(134.559 87.722) rotate(180)"/><path class="am" d="M0,0H75.82V119.682H0Z" transform="translate(128.608 5.952) rotate(90)"/><g transform="translate(14.745 15.042)"><rect class="a" width="29.755" height="12.161" transform="translate(0)"/><g transform="translate(0 16.476)"><rect class="a" width="29.755" height="0.882"/><g transform="translate(0 2.975)"><rect class="a" width="29.755" height="0.882"/></g><g transform="translate(0 5.951)"><rect class="a" width="29.755" height="0.882"/></g><g transform="translate(0 8.926)"><rect class="a" width="29.755" height="0.882"/></g><g transform="translate(0 11.902)"><rect class="a" width="17.545" height="0.882"/></g></g><g transform="translate(45.701 3.773)"><path class="a" d="M826.589,393.452a3.222,3.222,0,1,1-3.222-3.222A3.222,3.222,0,0,1,826.589,393.452Z" transform="translate(-797.388 -367.472)"/><g transform="translate(0 0.001)"><path class="a" d="M829.533,403.164c-5.7,0-17.359-7.572-29.1-19.312-14.057-14.056-22.141-27.995-18.4-31.734s17.679,4.346,31.734,18.4a104.707,104.707,0,0,1,15.712,19.454c2.538,4.291,5.065,9.9,2.69,12.28h0A3.581,3.581,0,0,1,829.533,403.164Zm-44.849-51.093a2.769,2.769,0,0,0-2.028.67c-2.918,2.919,3.779,15.865,18.4,30.487s27.568,21.317,30.487,18.4h0c1.52-1.519.49-5.6-2.825-11.208a103.808,103.808,0,0,0-15.577-19.279C800.771,358.771,789.6,352.071,784.684,352.071Z" transform="translate(-781.121 -351.207)"/></g><path class="a" d="M784.667,403.163a3.581,3.581,0,0,1-2.634-.911h0c-3.739-3.739,4.345-17.677,18.4-31.734s27.993-22.142,31.733-18.4c2.375,2.375-.152,7.989-2.69,12.281a104.7,104.7,0,0,1-15.712,19.453C802.027,395.59,790.369,403.163,784.667,403.163Zm-2.011-1.534c2.91,2.912,15.863-3.778,30.487-18.4a103.768,103.768,0,0,0,15.577-19.279c3.315-5.6,4.345-9.689,2.825-11.208-2.914-2.915-15.863,3.777-30.487,18.4s-21.32,27.569-18.4,30.488Z" transform="translate(-781.121 -351.205)"/></g></g><g transform="translate(153.295)"><rect class="ai" width="131.583" height="87.722" rx="4.107" transform="translate(131.583 87.722) rotate(180)"/><rect class="a" width="131.583" height="87.722" rx="4.107" transform="translate(134.559 87.722) rotate(180)"/><rect class="ae" width="75.82" height="119.682" transform="translate(128.608 5.952) rotate(90)"/></g><g transform="translate(172.286 13.536)"><g transform="translate(69.214 4.433)"><rect class="a" width="29.755" height="0.882"/><g transform="translate(0 2.975)"><rect class="a" width="29.755" height="0.882"/></g><g transform="translate(0 5.951)"><rect class="a" width="29.755" height="0.882"/></g><g transform="translate(0 8.926)"><rect class="a" width="29.755" height="0.882"/></g><g transform="translate(0 11.902)"><rect class="a" width="17.545" height="0.882"/></g></g><g transform="translate(69.214 43.114)"><rect class="a" width="29.755" height="0.882"/><g transform="translate(0 2.975)"><rect class="a" width="29.755" height="0.882"/></g><g transform="translate(0 5.951)"><rect class="a" width="29.755" height="0.882"/></g><g transform="translate(0 8.926)"><rect class="a" width="29.755" height="0.882"/></g><g transform="translate(0 11.902)"><rect class="a" width="17.545" height="0.882"/></g></g><g transform="translate(18.251 16.202)"><path class="a" d="M1028.662,398.181h-16.309l-8.153-14.123,8.153-14.124h16.309l8.153,14.124Zm-15.8-.882h15.29l7.645-13.241-7.645-13.242h-15.29l-7.645,13.242Z" transform="translate(-1004.2 -369.934)"/></g><path class="a" d="M1060.1,392.036a2.961,2.961,0,1,1-2.961-2.961A2.961,2.961,0,0,1,1060.1,392.036Z" transform="translate(-1006.782 -361.711)"/><path class="a" d="M1005.918,392.036a2.961,2.961,0,1,1-2.961-2.961A2.961,2.961,0,0,1,1005.918,392.036Z" transform="translate(-984.196 -361.711)"/><path class="a" d="M1019.548,368.574a2.961,2.961,0,1,1-2.961-2.961A2.961,2.961,0,0,1,1019.548,368.574Z" transform="translate(-989.878 -351.931)"/><path class="a" d="M1046.675,368.574a2.961,2.961,0,1,1-2.961-2.961A2.962,2.962,0,0,1,1046.675,368.574Z" transform="translate(-1001.185 -351.931)"/><g transform="translate(42.075)"><g transform="translate(0 2.742)"><rect class="a" width="15.798" height="0.881" transform="translate(0 13.679) rotate(-59.979)"/></g><path class="a" d="M1060.1,345.112a2.961,2.961,0,1,1-2.961-2.961A2.961,2.961,0,0,1,1060.1,345.112Z" transform="translate(-1048.857 -342.151)"/></g><g transform="translate(15.799)"><g transform="translate(2.579 2.741)"><rect class="a" width="0.881" height="15.798" transform="translate(0 0.441) rotate(-30.001)"/></g><path class="a" d="M999.995,345.112a2.961,2.961,0,1,0,2.961-2.961A2.961,2.961,0,0,0,999.995,345.112Z" transform="translate(-999.995 -342.151)"/></g><g transform="translate(42.077 43.787)"><g transform="translate(0 0)"><rect class="a" width="0.881" height="15.799" transform="translate(0 0.441) rotate(-29.999)"/></g><path class="a" d="M1060.1,438.96a2.961,2.961,0,1,0-2.961,2.961A2.961,2.961,0,0,0,1060.1,438.96Z" transform="translate(-1048.859 -425.058)"/></g><g transform="translate(15.799 43.789)"><g transform="translate(2.577 0)"><rect class="a" width="15.799" height="0.881" transform="matrix(0.5, -0.866, 0.866, 0.5, 0, 13.679)"/></g><path class="a" d="M999.995,438.96a2.961,2.961,0,1,1,2.961,2.961A2.961,2.961,0,0,1,999.995,438.96Z" transform="translate(-999.995 -425.06)"/></g><path class="a" d="M1019.548,415.5a2.961,2.961,0,1,1-2.961-2.961A2.961,2.961,0,0,1,1019.548,415.5Z" transform="translate(-989.878 -371.491)"/><path class="a" d="M1046.675,415.5a2.961,2.961,0,1,1-2.961-2.961A2.961,2.961,0,0,1,1046.675,415.5Z" transform="translate(-1001.185 -371.491)"/><g transform="translate(2.961 29.885)"><rect class="a" width="15.799" height="0.882"/></g><path class="a" d="M978.826,392.036a2.961,2.961,0,1,1-2.961-2.961A2.961,2.961,0,0,1,978.826,392.036Z" transform="translate(-972.903 -361.711)"/><g transform="translate(50.358 29.885)"><rect class="a" width="15.799" height="0.882"/></g><path class="a" d="M1081.27,392.036a2.961,2.961,0,1,0,2.961-2.961A2.961,2.961,0,0,0,1081.27,392.036Z" transform="translate(-1018.075 -361.711)"/></g><g transform="translate(153.295 108.264)"><path class="ai" d="M4.108,0H127.476a4.108,4.108,0,0,1,4.108,4.108V83.615a4.107,4.107,0,0,1-4.107,4.107H4.107A4.107,4.107,0,0,1,0,83.615V4.108A4.108,4.108,0,0,1,4.108,0Z" transform="translate(131.583 87.722) rotate(180)"/><path class="a" d="M4.108,0H127.476a4.108,4.108,0,0,1,4.108,4.108V83.615a4.107,4.107,0,0,1-4.107,4.107H4.107A4.107,4.107,0,0,1,0,83.615V4.108A4.108,4.108,0,0,1,4.108,0Z" transform="translate(134.559 87.722) rotate(180)"/><rect class="am" width="75.82" height="119.682" transform="translate(128.608 5.952) rotate(90)"/></g><g transform="translate(171.784 136.741)"><rect class="a" width="29.755" height="12.161"/><rect class="a" width="29.755" height="12.161" transform="translate(35.4)"/><rect class="a" width="29.755" height="12.161" transform="translate(70.801)"/><g transform="translate(0 16.476)"><rect class="a" width="29.755" height="0.882"/><g transform="translate(0 2.975)"><rect class="a" width="29.755" height="0.882"/></g><g transform="translate(0 5.951)"><rect class="a" width="29.755" height="0.882"/></g><g transform="translate(0 8.926)"><rect class="a" width="29.755" height="0.882"/></g><g transform="translate(0 11.902)"><rect class="a" width="17.545" height="0.882"/></g></g><g transform="translate(35.4 16.476)"><rect class="a" width="29.755" height="0.882"/><g transform="translate(0 2.975)"><rect class="a" width="29.755" height="0.882"/></g><g transform="translate(0 5.951)"><rect class="a" width="29.755" height="0.882"/></g><g transform="translate(0 8.926)"><rect class="a" width="29.755" height="0.882"/></g><g transform="translate(0 11.902)"><rect class="a" width="17.545" height="0.882"/></g></g><g transform="translate(70.801 16.476)"><rect class="a" width="29.755" height="0.882"/><g transform="translate(0 2.975)"><rect class="a" width="29.755" height="0.882"/></g><g transform="translate(0 5.951)"><rect class="a" width="29.755" height="0.882"/></g><g transform="translate(0 8.926)"><rect class="a" width="29.755" height="0.882"/></g><g transform="translate(0 11.902)"><rect class="a" width="17.545" height="0.882"/></g></g></g><g transform="translate(0 108.264)"><path class="ai" d="M4.108,0H127.476a4.108,4.108,0,0,1,4.108,4.108V83.615a4.107,4.107,0,0,1-4.107,4.107H4.107A4.107,4.107,0,0,1,0,83.615V4.108A4.108,4.108,0,0,1,4.108,0Z" transform="translate(131.583 87.722) rotate(180)"/><path class="a" d="M4.108,0H127.476a4.108,4.108,0,0,1,4.108,4.108V83.615a4.107,4.107,0,0,1-4.107,4.107H4.107A4.107,4.107,0,0,1,0,83.615V4.108A4.108,4.108,0,0,1,4.108,0Z" transform="translate(134.559 87.722) rotate(180)"/><path class="ae" d="M0,0H75.82V119.682H0Z" transform="translate(128.608 5.952) rotate(90)"/></g><g transform="translate(18.489 125.521)"><rect class="a" width="29.755" height="12.161" transform="translate(70.801)"/><rect class="a" width="29.755" height="12.161" transform="translate(35.401)"/><rect class="a" width="29.755" height="12.161" transform="translate(70.801 18.641)"/><rect class="a" width="29.755" height="12.161" transform="translate(35.401 18.641)"/><rect class="a" width="29.755" height="12.161"/><g transform="translate(0 44.645)"><path class="a" d="M709.174,623.172v-.882a16.29,16.29,0,0,0,11.978-5.334,16.289,16.289,0,0,0-11.978-5.335v-.881a17.183,17.183,0,0,1,12.9,5.926l.254.29-.254.29A17.185,17.185,0,0,1,709.174,623.172Z" transform="translate(-709.174 -610.74)"/><g transform="translate(11.983)"><path class="a" d="M742.878,623.172a17.185,17.185,0,0,1-12.9-5.925l-.254-.29.254-.29a17.007,17.007,0,0,1,25.8,0l.254.29-.254.29A17.185,17.185,0,0,1,742.878,623.172ZM730.9,616.956a16.115,16.115,0,0,0,23.956,0,16.114,16.114,0,0,0-23.956,0Z" transform="translate(-729.723 -610.74)"/></g><g transform="translate(37.123)"><path class="a" d="M785.986,623.172a17.182,17.182,0,0,1-12.9-5.925l-.254-.29.254-.29a17.006,17.006,0,0,1,25.8,0l.254.29-.254.29A17.181,17.181,0,0,1,785.986,623.172Zm-11.977-6.216a16.115,16.115,0,0,0,23.956,0,16.114,16.114,0,0,0-23.956,0Z" transform="translate(-772.832 -610.74)"/></g><g transform="translate(62.261)"><path class="a" d="M829.094,623.172a17.187,17.187,0,0,1-12.9-5.925l-.254-.29.254-.29a17.007,17.007,0,0,1,25.8,0l.254.29-.254.29A17.185,17.185,0,0,1,829.094,623.172Zm-11.979-6.216a16.116,16.116,0,0,0,23.956,0,16.115,16.115,0,0,0-23.956,0Z" transform="translate(-815.939 -610.74)"/></g><g transform="translate(87.4)"><path class="a" d="M872.2,623.172a17.186,17.186,0,0,1-12.9-5.925l-.254-.29.254-.29a17.182,17.182,0,0,1,12.9-5.926v.881a16.287,16.287,0,0,0-11.978,5.335A16.29,16.29,0,0,0,872.2,622.29Z" transform="translate(-859.048 -610.74)"/></g></g><g transform="translate(0 20.211)"><rect class="a" width="24.522" height="0.882"/><g transform="translate(0 2.975)"><rect class="a" width="24.522" height="0.882"/></g><g transform="translate(0 5.951)"><rect class="a" width="24.522" height="0.882"/></g><g transform="translate(0 8.926)"><rect class="a" width="24.522" height="0.882"/></g><g transform="translate(0 11.902)"><rect class="a" width="14.46" height="0.882"/></g></g></g></g></g></g></g></svg>