<svg xmlns="http://www.w3.org/2000/svg" width="37.003" height="146.718" viewBox="0 0 37.003 146.718">
  <path id="Path_13003" data-name="Path 13003" d="M1.689,68.71l1-.037ZM30,145.985l-9.96-5.842,10.039-5.705ZM17.645,1l.92.393h0l0,0-.009.021-.035.084-.14.335c-.123.3-.3.734-.534,1.3-.46,1.137-1.117,2.794-1.9,4.871-1.571,4.154-3.655,9.982-5.706,16.677C6.124,38.108,2.178,54.9,2.689,68.673l-2,.074C.167,54.625,4.2,37.565,8.323,24.1c2.067-6.746,4.165-12.615,5.748-16.8.791-2.092,1.454-3.764,1.919-4.913.233-.575.416-1.019.541-1.321l.144-.343.037-.088.01-.023,0-.006v0ZM2.689,68.673c.445,12.01,4.429,25.693,9.3,38.194A276.154,276.154,0,0,0,26.43,137.679l-1.757.956a278.169,278.169,0,0,1-14.549-31.042C5.225,95.016,1.148,81.088.69,68.747Z" transform="translate(6.997 -0.641) rotate(3)" fill="#ffb188"/>
</svg>
