<svg xmlns="http://www.w3.org/2000/svg" xmlns:xlink="http://www.w3.org/1999/xlink" width="68" height="68" viewBox="0 0 68 68"><defs><style>.a{fill:#1da4be;}.b{clip-path:url(#a);}.c{fill:#c4edf5;}</style><clipPath id="a"><rect class="a" width="68" height="68"/></clipPath></defs><g class="b"><path class="c" d="M61.826,29.157a4.135,4.135,0,0,0-2.4-7.451l-16.765-.633a.429.429,0,0,1-.373-.279L36.493,5.147a4.135,4.135,0,0,0-7.768,0l-5.774,15.7a.429.429,0,0,1-.373.279l-16.764.633a4.135,4.135,0,0,0-2.4,7.451L16.562,39.551a.428.428,0,0,1,.149.447L12.184,56.037a4.135,4.135,0,0,0,6.3,4.564l13.9-9.314a.409.409,0,0,1,.466,0l13.9,9.314a4.087,4.087,0,0,0,6.3-4.471L48.47,40.036a.41.41,0,0,1,.149-.447Z" transform="translate(1.506 2.098)"/></g></svg>